<svg width="26" height="24" fill="none" xmlns="http://www.w3.org/2000/svg"><path d="M16.575 5.705c-1.828.05-3.245.544-4.625 1.02-1.476.508-2.87.988-4.798 1.008-1.29.02-2.581-.2-3.85-.637l-.902-.31v11.53l.453.16a12.67 12.67 0 003.594.712c.19.009.378.013.561.013 2.048 0 3.616-.54 5.137-1.061 1.603-.55 3.115-1.07 5.178-.974 1.07.05 2.147.265 3.203.636l.907.32V6.587l-.448-.162a12.16 12.16 0 00-4.41-.72zm.037 1.341c.23-.007.468-.007.713.003.254.01.509.034.762.063a1.694 1.694 0 001.986 1.254v6.143a1.692 1.692 0 00-2.01 1.367 12.76 12.76 0 00-.677-.05c-2.321-.101-4.033.479-5.687 1.048-1.605.553-3.125 1.074-5.187.977a10.762 10.762 0 01-.767-.067 1.694 1.694 0 00-1.985-1.25v-6.143a1.691 1.691 0 002.01-1.384c.466.048.932.076 1.395.068 2.152-.021 3.716-.562 5.23-1.085 1.333-.46 2.604-.894 4.216-.944zM11.917 9.75c0 .971-.382 1.35-1.36 1.35v1.35c.527 0 .977-.102 1.36-.278v2.978h1.359v-5.4h-1.36zm5.098.675c-.27 0-.53.107-.721.297a1.01 1.01 0 000 1.431 1.023 1.023 0 001.441 0 1.009 1.009 0 000-1.431 1.024 1.024 0 00-.72-.297zM6.819 12.45c-.27 0-.53.107-.721.297a1.009 1.009 0 000 1.431 1.023 1.023 0 001.442 0 1.009 1.009 0 000-1.431 1.023 1.023 0 00-.721-.297z"/></svg>