<svg width="16" height="16" fill="none" xmlns="http://www.w3.org/2000/svg"><path d="M2.832 3.082C4.262 1.652 5.984.938 8 .938s3.738.714 5.168 2.144c1.43 1.43 2.145 3.152 2.145 5.168s-.715 3.738-2.145 5.168c-1.43 1.43-3.152 2.145-5.168 2.145s-3.738-.715-5.168-2.145C1.402 11.988.688 10.266.688 8.25s.714-3.738 2.144-5.168zm9.527.809C11.164 2.67 9.711 2.062 8 2.062c-1.71 0-3.176.61-4.395 1.829C2.41 5.086 1.813 6.539 1.813 8.25c0 1.71.597 3.176 1.792 4.395C4.825 13.84 6.29 14.438 8 14.438c1.71 0 3.164-.598 4.36-1.793 1.218-1.22 1.828-2.684 1.828-4.395 0-1.71-.61-3.164-1.829-4.36zm-4.921.984h1.125v2.813h2.812v1.125H8.562v2.812H7.438V8.812H4.624V7.688h2.813V4.874z" fill="#4D7CFE"/></svg>