<svg width="19" height="19" fill="none" xmlns="http://www.w3.org/2000/svg"><path d="M9.47.598c2.47 0 4.577.87 6.32 2.613 1.741 1.742 2.612 3.848 2.612 6.32 0 2.47-.87 4.577-2.613 6.32-1.742 1.741-3.848 2.612-6.32 2.612-2.47 0-4.577-.87-6.32-2.613C1.409 14.108.538 12.002.538 9.53c0-2.47.87-4.577 2.613-6.32C4.892 1.47 6.998.599 9.47.599zm7.535 8.932c.02-2.086-.71-3.868-2.188-5.347-1.479-1.479-3.271-2.218-5.378-2.218-2.066 0-3.838.74-5.317 2.218C2.643 5.662 1.894 7.444 1.874 9.53c.02 2.087.77 3.87 2.248 5.348 1.479 1.479 3.251 2.218 5.317 2.218 2.107 0 3.9-.74 5.378-2.218 1.479-1.479 2.208-3.261 2.188-5.348zM11.9 6.127l.973.973-2.431 2.43 2.43 2.431-.972.972-2.43-2.43-2.431 2.43-.972-.972 2.43-2.43L6.067 7.1l.972-.973 2.43 2.431 2.431-2.43z" fill="#778CA2"/></svg>