<svg width="19" height="19" fill="none" xmlns="http://www.w3.org/2000/svg"><path d="M12.33 4.517c-1.436.04-2.55.43-3.635.807-1.16.402-2.256.783-3.772.798a8.809 8.809 0 01-3.027-.504l-.708-.245V14.5l.355.126a9.898 9.898 0 003.267.574c1.61 0 2.843-.427 4.038-.84 1.26-.436 2.449-.848 4.07-.772.841.04 1.688.21 2.519.505l.713.252v-9.13l-.352-.13a9.5 9.5 0 00-3.467-.57zm.03 1.061c.181-.005.367-.005.56.002.2.009.4.027.6.05a1.333 1.333 0 001.56.993v4.863a1.333 1.333 0 00-1.58 1.082 9.452 9.452 0 00-.531-.039c-1.825-.08-3.171.379-4.472.83-1.261.437-2.457.85-4.077.773a8.76 8.76 0 01-.603-.053 1.333 1.333 0 00-1.56-.99V8.227a1.332 1.332 0 001.58-1.097c.365.038.732.06 1.096.054 1.692-.017 2.921-.445 4.111-.858 1.048-.365 2.047-.708 3.315-.748zm-3.691 2.14c0 .77-.3 1.07-1.07 1.07v1.068c.415 0 .769-.08 1.07-.22v2.358h1.068V7.719H8.67zm4.007.535a.802.802 0 100 1.603.802.802 0 000-1.603zM4.661 9.856a.802.802 0 100 1.604.802.802 0 000-1.604z"/></svg>