<svg width="14" height="15" fill="none" xmlns="http://www.w3.org/2000/svg"><path d="M11.887.5c.492 0 .925.188 1.3.563.352.351.528.785.528 1.3 0 .492-.176.926-.527 1.301l-.07.07.35.317-.386.386-8.754 8.79-.14.105-.176.035L.918 14l-.809.14.141-.808.633-3.094.035-.175.105-.141 8.79-8.754.386-.387.352.352.035-.07c.375-.375.809-.563 1.3-.563zm0 1.125c-.164 0-.328.07-.492.21l-.036.071.985.985.07-.036c.328-.328.328-.667 0-1.02a.797.797 0 00-.527-.21zm-1.653.738l-.843.809 1.687 1.687.809-.843-1.653-1.653zM8.617 3.98L2.711 9.852l1.055.21.351.07.07.352.211 1.055 5.872-5.906L8.617 3.98zm-6.68 6.856l-.246 1.125.598.598 1.125-.246-.281-1.196-1.196-.281z"/></svg>