<svg version="1.2" width="67.011" height="48.983" viewBox="0 0 1773 1296" preserveAspectRatio="xMidYMid" fill-rule="evenodd" stroke-width="28.222" stroke-linejoin="round" xmlns="http://www.w3.org/2000/svg"><defs class="ClipPathGroup"><clipPath id="a" clipPathUnits="userSpaceOnUse"><rect width="1773" height="1296"/></clipPath></defs><g class="SlideGroup"><g class="Slide" clip-path="url(#a)"><g class="Page"><g class="Graphic"><rect class="BoundingBox" fill="none" width="1773" height="1296"/><path fill="#FFF" d="M886 1255h741c58 0 105-47 105-105V145c0-58-47-105-105-105H145C87 40 40 87 40 145v1005c0 58 47 105 105 105h741z"/><path fill="none" stroke="#E8ECEF" stroke-width="26" stroke-linejoin="miter" d="M886 1255h741c58 0 105-47 105-105V145c0-58-47-105-105-105H145C87 40 40 87 40 145v1005c0 58 47 105 105 105h741z"/><path fill="#778CA2" d="M831 908h94V679h73l12-91h-85v-63c0-15 2-25 8-32 6-8 19-12 37-12h48v-81c-18-3-42-4-70-4-36 0-64 10-85 31-22 21-32 51-32 89v72h-77v91h77v229z"/></g></g></g></g></svg>