<svg version="1.2" width="67.011" height="48.983" viewBox="0 0 1773 1296" preserveAspectRatio="xMidYMid" fill-rule="evenodd" stroke-width="28.222" stroke-linejoin="round" xmlns="http://www.w3.org/2000/svg"><defs class="ClipPathGroup"><clipPath id="a" clipPathUnits="userSpaceOnUse"><rect width="1773" height="1296"/></clipPath></defs><g class="SlideGroup"><g class="Slide" clip-path="url(#a)"><g class="Page"><g class="Graphic"><rect class="BoundingBox" fill="none" width="1773" height="1296"/><path fill="#FFF" d="M886 1255h741c58 0 105-47 105-105V145c0-58-47-105-105-105H145C87 40 40 87 40 145v1005c0 58 47 105 105 105h741z"/><path fill="none" stroke="#E8ECEF" stroke-width="26" stroke-linejoin="miter" d="M886 1255h741c58 0 105-47 105-105V145c0-58-47-105-105-105H145C87 40 40 87 40 145v1005c0 58 47 105 105 105h741z"/><path fill="#778CA2" d="M1103 661c0-11-1-24-4-37H892v76h124c-2 13-7 26-15 39-10 15-24 28-39 37-20 12-43 18-70 18-24 0-47-6-67-19-21-13-37-29-50-50-12-21-18-44-18-69 0-29 8-55 24-78 14-21 34-37 58-47 24-11 48-14 73-11 26 4 48 14 67 32l59-57c-40-38-89-57-146-57-39 0-75 10-109 30-33 19-60 46-79 79-20 34-30 70-30 109s10 76 30 109c19 33 46 60 79 79 34 20 70 30 109 30 42 0 79-9 110-28 32-18 57-43 75-75 17-32 26-69 26-110z"/></g></g></g></g></svg>