<svg version="1.2" width="6.61mm" height="6.61mm" viewBox="0 0 661 661" preserveAspectRatio="xMidYMid" fill-rule="evenodd" stroke-width="28.222" stroke-linejoin="round" xmlns="http://www.w3.org/2000/svg"><defs class="ClipPathGroup"><clipPath id="a" clipPathUnits="userSpaceOnUse"><rect width="661" height="661"/></clipPath></defs><g class="SlideGroup"><g class="Slide" clip-path="url(#a)"><g class="Page"><g class="Graphic"><rect class="BoundingBox" fill="none" width="661" height="661"/><path d="M330 112c-76 0-139 62-139 139 0 48 25 90 62 115-71 30-121 100-121 182h40c0-88 70-159 158-159s158 71 158 159h40c0-82-50-152-121-182 37-25 62-67 62-115 0-77-63-139-139-139zm0 40c55 0 99 44 99 99s-44 99-99 99-99-44-99-99 44-99 99-99z"/></g></g></g></g></svg>