<svg version="1.2" width="6.61mm" height="6.61mm" viewBox="0 0 661 661" preserveAspectRatio="xMidYMid" fill-rule="evenodd" stroke-width="28.222" stroke-linejoin="round" xmlns="http://www.w3.org/2000/svg"><defs class="ClipPathGroup"><clipPath id="a" clipPathUnits="userSpaceOnUse"><rect width="661" height="661"/></clipPath></defs><g class="SlideGroup"><g class="Slide" clip-path="url(#a)"><g class="Page"><g class="Graphic"><rect class="BoundingBox" fill="none" width="661" height="661"/><path d="M33 92v416h62c9 34 40 60 77 60 36 0 67-26 76-60h164c9 34 40 60 76 60 37 0 68-26 77-60h62V302l-6-6-118-119-7-5H389V92H33zm40 40h277v337H248c-9-34-40-60-76-60-37 0-68 26-77 60H73V132zm316 79h91l107 108v150h-22c-9-34-40-60-77-60-36 0-67 26-76 60h-23V211zM172 449c22 0 39 17 39 39 0 23-17 40-39 40-23 0-40-17-40-40 0-22 17-39 40-39zm316 0c23 0 40 17 40 39 0 23-17 40-40 40-22 0-39-17-39-40 0-22 17-39 39-39z"/></g></g></g></g></svg>