<svg version="1.2" width="5.03mm" height="4.76mm" viewBox="0 0 503 476" preserveAspectRatio="xMidYMid" fill-rule="evenodd" stroke-width="28.222" stroke-linejoin="round" xmlns="http://www.w3.org/2000/svg"><defs class="ClipPathGroup"><clipPath id="a" clipPathUnits="userSpaceOnUse"><rect width="503" height="476"/></clipPath></defs><g class="SlideGroup"><g class="Slide" clip-path="url(#a)"><g class="Page"><g class="Graphic"><rect class="BoundingBox" fill="none" width="503" height="476"/><path d="M215 35h72c10 0 18 3 25 11 8 7 12 15 12 25v18h54V71h36v18h37c10 0 18 4 25 11s11 16 11 25v291c0 9-4 18-11 26-7 7-15 10-25 10H51c-10 0-18-3-26-10-7-8-10-17-10-26V125c0-9 3-18 10-25 8-7 16-11 26-11h37V71h36v18h54V71c0-10 4-18 11-25 7-8 16-11 26-11zm0 36v18h72V71h-72zM51 125v291h37V143h36v273h254V143h36v273h37V125H51z"/></g></g></g></g></svg>