<svg width="24" height="24" fill="none" xmlns="http://www.w3.org/2000/svg"><path d="M9.89 2.25l-.117.61-.445 2.226a7.454 7.454 0 00-1.945 1.148l-2.18-.75-.586-.187-.304.539-1.5 2.578-.305.54.445.398 1.688 1.476c-.062.384-.141.768-.141 1.172 0 .404.08.788.14 1.172l-1.687 1.476-.445.399.304.539 1.5 2.578.305.54.586-.188 2.18-.75c.586.471 1.23.867 1.945 1.148l.445 2.227.118.609h4.218l.118-.61.445-2.226a7.457 7.457 0 001.945-1.148l2.18.75.586.187.305-.539 1.5-2.578.304-.54-.445-.398-1.688-1.476c.062-.384.141-.768.141-1.172 0-.404-.08-.788-.14-1.172l1.687-1.476.445-.399-.305-.539-1.5-2.578-.304-.54-.586.188-2.18.75a7.456 7.456 0 00-1.945-1.148l-.445-2.227-.118-.609H9.891zm1.22 1.5h1.78l.376 1.945.093.446.422.14a6.013 6.013 0 012.274 1.313l.328.304.422-.14 1.898-.656.89 1.523-1.5 1.336-.35.281.116.445c.097.428.141.865.141 1.313 0 .448-.044.885-.14 1.313l-.094.445.328.281 1.5 1.336-.89 1.523-1.9-.656-.421-.14-.328.304a6.013 6.013 0 01-2.274 1.313l-.422.14-.093.446-.375 1.945h-1.782l-.375-1.945-.093-.446-.422-.14a6.013 6.013 0 01-2.274-1.313l-.328-.304-.422.14-1.898.656-.89-1.523 1.5-1.336.35-.281-.116-.445A5.927 5.927 0 016 12c0-.448.044-.885.14-1.313l.118-.445-.352-.281-1.5-1.336.89-1.523 1.9.656.421.14.328-.304A6.012 6.012 0 0110.22 6.28l.422-.14.093-.446.375-1.945zm.89 4.5A3.761 3.761 0 008.25 12 3.761 3.761 0 0012 15.75 3.761 3.761 0 0015.75 12 3.761 3.761 0 0012 8.25zm0 1.5A2.24 2.24 0 0114.25 12 2.24 2.24 0 0112 14.25 2.24 2.24 0 019.75 12 2.24 2.24 0 0112 9.75z"/></svg>