<svg version="1.2" width="6.61mm" height="6.61mm" viewBox="0 0 661 661" preserveAspectRatio="xMidYMid" fill-rule="evenodd" stroke-width="28.222" stroke-linejoin="round" xmlns="http://www.w3.org/2000/svg"><defs class="ClipPathGroup"><clipPath id="a" clipPathUnits="userSpaceOnUse"><rect width="661" height="661"/></clipPath></defs><g class="SlideGroup"><g class="Slide" clip-path="url(#a)"><g class="Page"><g class="Graphic"><rect class="BoundingBox" fill="none" width="661" height="661"/><path d="M468 92c-3 0-6 1-9 2l-322 84c-26 7-45 31-45 58v272c0 33 27 60 60 60h356c33 0 60-27 60-60V251c0-33-27-60-60-60H243l226-59v40h39v-40c0-22-19-40-40-40zM152 231h356c11 0 20 9 20 20v257c0 11-9 20-20 20H152c-11 0-20-9-20-20V251c0-11 9-20 20-20zm307 119c-17 0-30 13-30 30 0 16 13 29 30 29 16 0 29-13 29-29 0-17-13-30-29-30z"/></g></g></g></g></svg>