<svg width="18" height="4" fill="none" xmlns="http://www.w3.org/2000/svg"><path d="M1.137.805c.286-.287.616-.43.988-.43s.688.143.945.43c.287.257.43.573.43.945s-.143.702-.43.988a1.286 1.286 0 01-.945.387c-.372 0-.702-.129-.988-.387A1.434 1.434 0 01.75 1.75c0-.372.129-.688.387-.945zm6.875 0c.286-.287.616-.43.988-.43s.688.143.945.43c.287.257.43.573.43.945s-.143.702-.43.988A1.286 1.286 0 019 3.125c-.372 0-.702-.129-.988-.387a1.434 1.434 0 01-.387-.988c0-.372.129-.688.387-.945zm6.875 0c.286-.287.616-.43.988-.43s.688.143.945.43c.287.257.43.573.43.945s-.143.702-.43.988a1.286 1.286 0 01-.945.387c-.372 0-.702-.129-.988-.387a1.434 1.434 0 01-.387-.988c0-.372.129-.688.387-.945z" fill="#778CA2"/></svg>