<svg version="1.2" width="67.011" height="48.983" viewBox="0 0 1773 1296" preserveAspectRatio="xMidYMid" fill-rule="evenodd" stroke-width="28.222" stroke-linejoin="round" xmlns="http://www.w3.org/2000/svg"><defs class="ClipPathGroup"><clipPath id="a" clipPathUnits="userSpaceOnUse"><rect width="1773" height="1296"/></clipPath></defs><g class="SlideGroup"><g class="Slide" clip-path="url(#a)"><g class="Page"><g class="Graphic"><rect class="BoundingBox" fill="none" width="1773" height="1296"/><path fill="#FFF" d="M886 1255h741c58 0 105-47 105-105V145c0-58-47-105-105-105H145C87 40 40 87 40 145v1005c0 58 47 105 105 105h741z"/><path fill="none" stroke="#E8ECEF" stroke-width="26" stroke-linejoin="miter" d="M886 1255h741c58 0 105-47 105-105V145c0-58-47-105-105-105H145C87 40 40 87 40 145v1005c0 58 47 105 105 105h741z"/><path fill="#778CA2" d="M954 494c0-37-31-68-68-68-38 0-69 31-69 68s31 68 69 68c37 0 68-31 68-68zm97 0c0 90-74 164-165 164s-165-74-165-164 74-164 165-164 165 74 165 164zm-2 258c-30 19-63 32-96 39l92 92c19 18 19 49 0 68-19 18-49 18-68 0l-91-90-91 90c-9 9-21 14-34 14-12 0-25-5-34-14-19-19-19-49 0-68l92-92c-33-7-66-21-96-39-22-14-29-44-15-66 14-23 44-29 67-15 67 42 154 42 222 0 23-14 52-8 67 15 14 22 7 52-15 66z"/></g></g></g></g></svg>