<svg version="1.2" width="4.23mm" height="5.29mm" viewBox="0 0 423 529" preserveAspectRatio="xMidYMid" fill-rule="evenodd" stroke-width="28.222" stroke-linejoin="round" xmlns="http://www.w3.org/2000/svg"><defs class="ClipPathGroup"><clipPath id="a" clipPathUnits="userSpaceOnUse"><rect width="423" height="529"/></clipPath></defs><g class="SlideGroup"><g class="Slide" clip-path="url(#a)"><g class="Page"><g class="Graphic"><rect class="BoundingBox" fill="none" width="423" height="529"/><path d="M181 46c8-8 17-11 26-11 10 0 19 3 25 11 8 7 12 15 12 25v4c31 9 57 27 78 54 20 27 30 58 30 92v159c0 12 7 18 19 18h18v36H258c3 6 4 12 4 18 0 15-5 28-16 39-11 10-23 16-39 16-15 0-28-6-38-16-11-11-16-24-16-39 0-6 1-12 3-18H26v-36h18c12 0 18-6 18-18V216c0-33 11-63 31-88 21-27 47-44 78-53v-4c0-10 4-18 10-25zm18 61c-28 3-52 14-72 35-19 21-28 45-28 74v164c0 6-2 12-4 18h225c-3-6-4-12-4-18V221c0-31-10-57-30-79-21-22-46-34-75-35h-12zm27 345c0-12-7-18-19-18s-18 6-18 18 6 18 18 18 19-6 19-18z"/></g></g></g></g></svg>