<svg width="14" height="24" fill="none" xmlns="http://www.w3.org/2000/svg"><path fill-rule="evenodd" clip-rule="evenodd" d="M9.567 6.194A2.576 2.576 0 006.984 3.63c-1.423 0-2.583 1.15-2.583 2.564 0 1.413 1.16 2.563 2.583 2.563a2.576 2.576 0 002.583-2.563zm3.655 0c0 3.414-2.797 6.191-6.238 6.191-3.44 0-6.238-2.777-6.238-6.191C.746 2.778 3.544 0 6.984 0c3.44 0 6.238 2.778 6.238 6.194zm-.076 9.757a11.734 11.734 0 01-3.622 1.49l3.487 3.462a1.804 1.804 0 010 2.566 1.835 1.835 0 01-2.583 0l-3.429-3.403-3.425 3.403a1.832 1.832 0 01-1.293.53 1.83 1.83 0 01-1.292-.53 1.806 1.806 0 010-2.566l3.487-3.463a11.751 11.751 0 01-3.623-1.489 1.807 1.807 0 01-.572-2.502 1.833 1.833 0 012.52-.57 7.968 7.968 0 008.398 0 1.834 1.834 0 012.52.57c.538.847.28 1.968-.573 2.502z" fill="#778CA2"/></svg>