<svg width="25" height="14" fill="none" xmlns="http://www.w3.org/2000/svg"><path fill-rule="evenodd" clip-rule="evenodd" d="M13.726 13.941s.451-.049.682-.292c.212-.224.205-.645.205-.645s-.029-1.967.902-2.258c.917-.285 2.095 1.903 3.344 2.744.944.636 1.66.497 1.66.497l3.34-.046s1.746-.105.918-1.453c-.068-.11-.483-.997-2.482-2.82-2.095-1.907-1.813-1.598.708-4.898 1.536-2.009 2.15-3.235 1.958-3.76-.182-.502-1.312-.368-1.312-.368l-3.76.022s-.278-.037-.485.084c-.201.12-.332.396-.332.396s-.594 1.555-1.388 2.877c-1.674 2.79-2.343 2.937-2.617 2.765-.637-.405-.478-1.623-.478-2.489 0-2.704.418-3.83-.813-4.122-.408-.098-.709-.161-1.755-.172-1.34-.013-2.476.005-3.119.313-.428.206-.758.664-.556.69.248.033.81.15 1.109.548.385.515.372 1.67.372 1.67s.221 3.182-.518 3.577c-.506.271-1.2-.282-2.693-2.813-.764-1.296-1.342-2.73-1.342-2.73s-.11-.267-.31-.411a1.556 1.556 0 00-.577-.228L.815.642S.278.656.081.885c-.174.203-.013.624-.013.624s2.796 6.423 5.963 9.66c2.904 2.967 6.2 2.772 6.2 2.772h1.495z" fill="#778CA2"/></svg>