<svg width="17" height="17" fill="none" xmlns="http://www.w3.org/2000/svg"><path d="M16.203 8.434c0-.443-.044-.908-.133-1.395H8.234v2.856h4.682a4.43 4.43 0 01-.565 1.46 4.596 4.596 0 01-1.494 1.428c-.752.443-1.627.664-2.623.664a4.79 4.79 0 01-2.556-.714 5.436 5.436 0 01-1.86-1.892 5.024 5.024 0 01-.697-2.607c0-1.106.299-2.091.897-2.955a5.117 5.117 0 012.191-1.793c.908-.398 1.826-.53 2.756-.398a4.419 4.419 0 012.556 1.228l2.225-2.158C12.22.72 10.382 0 8.234 0a7.98 7.98 0 00-4.117 1.112 8.32 8.32 0 00-3.005 3.005A7.982 7.982 0 000 8.234c0 1.483.37 2.856 1.112 4.117a8.32 8.32 0 003.005 3.005 7.982 7.982 0 004.117 1.113c1.572 0 2.961-.343 4.167-1.03a7.18 7.18 0 002.806-2.855c.664-1.217.996-2.6.996-4.15z" fill="#778CA2"/></svg>