<svg width="12" height="14" fill="none" xmlns="http://www.w3.org/2000/svg"><path d="M4.516.5h2.25c.328 0 .597.105.808.316.211.211.317.48.317.809v.563h3.375v1.124h-.563v9c0 .47-.164.868-.492 1.196A1.627 1.627 0 019.016 14h-6.75c-.47 0-.868-.164-1.196-.492a1.627 1.627 0 01-.492-1.195v-9H.016V2.187H3.39v-.562c0-.328.105-.598.316-.809.211-.21.48-.316.809-.316zm0 1.125v.563h2.25v-.563h-2.25zM1.703 3.313v9c0 .164.047.304.14.421a.658.658 0 00.423.141h6.75a.523.523 0 00.386-.14.575.575 0 00.176-.422v-9H1.703zM2.828 5h1.125v6.188H2.828V5zm2.25 0h1.125v6.188H5.078V5zm2.25 0h1.125v6.188H7.328V5z"/></svg>