<svg version="1.2" width="67.011" height="48.983" viewBox="0 0 1773 1296" preserveAspectRatio="xMidYMid" fill-rule="evenodd" stroke-width="28.222" stroke-linejoin="round" xmlns="http://www.w3.org/2000/svg"><defs class="ClipPathGroup"><clipPath id="a" clipPathUnits="userSpaceOnUse"><rect width="1773" height="1296"/></clipPath></defs><g class="SlideGroup"><g class="Slide" clip-path="url(#a)"><g class="Page"><g class="Graphic"><rect class="BoundingBox" fill="none" width="1773" height="1296"/><path fill="#FFF" d="M886 1255h741c58 0 105-47 105-105V145c0-58-47-105-105-105H145C87 40 40 87 40 145v1005c0 58 47 105 105 105h741z"/><path fill="none" stroke="#E8ECEF" stroke-width="26" stroke-linejoin="miter" d="M886 1255h741c58 0 105-47 105-105V145c0-58-47-105-105-105H145C87 40 40 87 40 145v1005c0 58 47 105 105 105h741z"/><path fill="#778CA2" d="M905 831s12-1 18-8c6-6 6-17 6-17s-1-52 24-59c24-8 55 50 88 72 25 17 44 13 44 13l88-1s46-3 24-38c-1-3-12-27-65-75-56-50-48-42 19-129 40-54 56-86 51-100-4-13-34-10-34-10l-100 1s-7-1-13 2c-5 3-8 11-8 11s-16 41-37 76c-44 73-62 77-69 73-17-11-13-43-13-66 0-71 11-101-21-109-11-2-19-4-47-4-35-1-65 0-82 8-12 5-20 17-15 18 6 1 21 4 29 15 10 13 10 44 10 44s6 84-14 94c-13 7-31-7-71-74-20-34-35-72-35-72s-3-7-9-11c-6-5-15-6-15-6h-94s-14 1-20 7c-4 5 0 16 0 16s74 170 158 256c76 78 164 73 164 73h39z"/></g></g></g></g></svg>