<svg width="468" height="350" fill="none" xmlns="http://www.w3.org/2000/svg"><path opacity=".1" fill-rule="evenodd" clip-rule="evenodd" d="M266.735 49.044c-28.493-.986-55.63-10.188-81.543-20.252-25.913-10.064-51.58-21.229-79.391-26.543-17.887-3.434-38.346-3.918-52.755 5.675-13.864 9.228-18.354 25.174-20.762 39.94-1.814 11.12-2.88 22.827 2.087 33.239 3.451 7.229 9.57 13.304 13.806 20.225 14.735 24.095 4.319 53.803-11.645 77.326-7.484 11.032-16.18 21.572-21.96 33.305-5.78 11.732-8.452 25.204-3.394 37.188 5.01 11.887 16.954 20.797 29.893 27.071 26.279 12.745 57.233 16.39 87.438 18.46 66.844 4.569 134.039 2.593 201.059.607 24.804-.731 49.713-1.475 74.112-5.309 13.551-2.131 27.538-5.512 37.377-13.674 12.486-10.36 15.581-27.899 7.212-40.891-14.036-21.788-52.831-27.199-62.653-50.581-5.397-12.873.146-27.207 7.995-39.142 16.836-25.61 45.051-48.076 46.535-77.344 1.021-20.102-12.543-40.234-33.516-49.748-21.982-9.972-52.47-8.717-68.68 7.784-16.707 16.998-46.063 23.54-71.215 22.664z" fill="#4D7CFE"/><rect y="54.362" width="114.25" height="114.25" fill="#E8E9ED"/><rect x="353.297" y="54.362" width="114.25" height="114.25" fill="#E8E9ED"/><path opacity=".5" fill-rule="evenodd" clip-rule="evenodd" d="M64.008 14.1l-1.14-1.166a.238.238 0 00-.18-.079.229.229 0 00-.181.08l-7.88 7.924-2.871-2.866a.247.247 0 00-.361 0l-1.15 1.149a.255.255 0 000 .37l3.62 3.614c.194.215.463.348.753.37.285-.025.552-.152.752-.357l8.643-8.668a.277.277 0 000-.37h-.005z" fill="#3ACC6C"/><path opacity=".5" fill-rule="evenodd" clip-rule="evenodd" d="M44.705 13.04a13.44 13.44 0 0112.418-8.3 13.432 13.432 0 0113.44 13.437 13.441 13.441 0 11-25.858-5.139zm23.805 2.868a11.618 11.618 0 00-11.387-9.357 11.557 11.557 0 00-8.224 3.403 11.618 11.618 0 1019.611 5.954z" fill="#4D7CFE"/><path opacity=".8" fill-rule="evenodd" clip-rule="evenodd" d="M152.248 51.667l-1.435-1.47a.301.301 0 00-.225-.097.29.29 0 00-.229.097l-9.919 9.994-3.614-3.61a.309.309 0 00-.225-.097.317.317 0 00-.229.097l-1.448 1.448a.316.316 0 000 .462l4.552 4.544c.246.27.587.436.951.462.356-.03.69-.187.942-.44l10.874-10.936a.347.347 0 000-.44l.005-.014z" fill="#3ACC6C"/><path opacity=".8" fill-rule="evenodd" clip-rule="evenodd" d="M126.656 56.8c0-9.343 7.575-16.918 16.919-16.918a16.917 16.917 0 0116.919 16.919c0 9.344-7.575 16.919-16.919 16.919-9.344 0-16.919-7.575-16.919-16.92zm31.273-2.857a14.638 14.638 0 00-14.354-11.785 14.529 14.529 0 00-10.355 4.288 14.64 14.64 0 0015.952 23.875 14.639 14.639 0 008.757-16.378z" fill="#4D7CFE"/><path opacity=".5" fill-rule="evenodd" clip-rule="evenodd" d="M398.002 13.04a13.44 13.44 0 0112.418-8.3 13.431 13.431 0 0113.441 13.437 13.441 13.441 0 11-25.859-5.139zm23.806 2.868a11.618 11.618 0 00-11.388-9.357 11.556 11.556 0 00-8.224 3.403 11.618 11.618 0 1019.612 5.954z" fill="#4D7CFE"/><path opacity=".8" fill-rule="evenodd" clip-rule="evenodd" d="M306.455 56.8c0-9.343 7.575-16.918 16.919-16.918h-.022a16.915 16.915 0 0116.94 16.919c0 9.344-7.574 16.919-16.918 16.919s-16.919-7.575-16.919-16.92zm31.27-2.873a14.639 14.639 0 00-14.356-11.769 14.556 14.556 0 00-10.35 4.288 14.638 14.638 0 1024.706 7.48z" fill="#4D7CFE"/><path fill-rule="evenodd" clip-rule="evenodd" d="M210.669 88.362c0-12.354 10.015-22.369 22.369-22.369a22.365 22.365 0 0122.37 22.37c0 12.354-10.015 22.369-22.37 22.369-12.354 0-22.369-10.015-22.369-22.37zM252 84.585a19.344 19.344 0 00-18.962-15.58 19.224 19.224 0 00-13.691 5.666A19.345 19.345 0 10252 84.585z" fill="#4D7CFE"/><rect x="79.914" y="84.308" width="127.321" height="127.321" fill="#F3F5F7"/><rect x="259.691" y="84.308" width="127.321" height="127.321" fill="#F3F5F7"/><rect opacity=".1" x="11.416" y="74.644" width="42.467" height="4.72" fill="#000"/><rect opacity=".1" x="373.857" y="74.644" width="42.467" height="4.72" fill="#000"/><path d="M308.7 272.256s11.033-19.543 27.648-25.174A33.993 33.993 0 00353.57 234.2a57.471 57.471 0 005.081-9.153" stroke="#535461" stroke-width="2"/><path fill-rule="evenodd" clip-rule="evenodd" d="M369.098 221.451c-1.893 1.835-10.711 3.737-10.711 3.737s2.166-8.756 4.059-10.597a4.778 4.778 0 016.652 6.86zm-4.988 15.84c-2.589.515-11.006-2.681-11.006-2.681s6.573-6.164 9.161-6.688a4.777 4.777 0 011.858 9.369h-.013zm-18.16 17.148c-2.492-.881-8.158-7.881-8.158-7.881s8.805-2.012 11.283-1.149a4.778 4.778 0 01-3.125 9.03zm-16.642 9.874c-2.606-.44-9.377-6.388-9.377-6.388s8.329-3.464 10.931-3.037a4.775 4.775 0 012.951 7.761 4.775 4.775 0 01-4.505 1.664zm16.43-36.545c0 2.642 4.773 10.289 4.773 10.289s4.772-7.647 4.772-10.284a4.777 4.777 0 10-9.554 0l.009-.005zm-19.34 11.808c.788 2.518 7.634 8.391 7.634 8.391s2.272-8.726 1.484-11.244a4.778 4.778 0 00-9.118 2.853zm-17.223 14.039c.353 2.615 6.102 9.558 6.102 9.558s3.716-8.215 3.368-10.83a4.776 4.776 0 10-9.47 1.272z" fill="#4D7CFE"/><path opacity=".25" fill-rule="evenodd" clip-rule="evenodd" d="M369.098 221.451c-1.893 1.835-10.711 3.737-10.711 3.737s2.166-8.756 4.059-10.597a4.778 4.778 0 016.652 6.86zm-4.988 15.84c-2.589.515-11.006-2.681-11.006-2.681s6.573-6.164 9.161-6.688a4.777 4.777 0 011.858 9.369h-.013zm-18.16 17.148c-2.492-.881-8.158-7.881-8.158-7.881s8.805-2.012 11.283-1.149a4.778 4.778 0 01-3.125 9.03zm-16.642 9.874c-2.606-.44-9.377-6.388-9.377-6.388s8.329-3.464 10.931-3.037a4.775 4.775 0 012.951 7.761 4.775 4.775 0 01-4.505 1.664zm16.43-36.545c0 2.642 4.773 10.289 4.773 10.289s4.772-7.647 4.772-10.284a4.777 4.777 0 10-9.554 0l.009-.005zm-19.34 11.808c.788 2.518 7.634 8.391 7.634 8.391s2.272-8.726 1.484-11.244a4.778 4.778 0 00-9.118 2.853zm-17.223 14.039c.353 2.615 6.102 9.558 6.102 9.558s3.716-8.215 3.368-10.83a4.776 4.776 0 10-9.47 1.272z" fill="#000"/><path d="M309.334 271.868s2.17-22.334 15.074-34.216a34.047 34.047 0 0010.527-18.768c.629-3.436.943-6.923.937-10.416" stroke="#535461" stroke-width="2"/><path fill-rule="evenodd" clip-rule="evenodd" d="M343.964 200.944c-.986 2.447-8.277 7.757-8.277 7.757s-1.571-8.88-.585-11.328a4.78 4.78 0 018.862 3.571zm1.858 16.505c-2.157 1.519-11.16 2.016-11.16 2.016s3.522-8.312 5.666-9.826a4.776 4.776 0 015.494 7.81zm-9.655 23.034c-2.641.22-10.649-3.897-10.649-3.897s7.22-5.402 9.848-5.622a4.778 4.778 0 11.801 9.519zm-11.226 15.783c-2.558.66-11.16-2.043-11.16-2.043s6.207-6.542 8.761-7.207a4.777 4.777 0 012.399 9.245v.005zm.224-40.076c1.07 2.412 8.533 7.484 8.533 7.484s1.272-8.928.206-11.341a4.779 4.779 0 10-8.739 3.87v-.013zm-12.899 18.622c1.761 1.981 10.381 4.579 10.381 4.579s-1.461-8.902-3.2-10.883a4.778 4.778 0 00-7.181 6.304zm-10.051 19.82c1.378 2.25 9.452 6.27 9.452 6.27s.071-9.021-1.32-11.271a4.777 4.777 0 00-8.141 5.001h.009z" fill="#4D7CFE"/><rect opacity=".1" x="96.349" y="111.484" width="42.467" height="4.72" fill="#000"/><rect opacity=".1" x="174.604" y="152.969" width="25.354" height="4.72" fill="#000"/><rect opacity=".1" x="174.604" y="184.641" width="37.545" height="4.72" fill="#000"/><rect opacity=".1" x="96.349" y="128.117" width="42.467" height="4.72" fill="#000"/><rect opacity=".1" x="287.449" y="111.484" width="42.467" height="4.72" fill="#000"/><rect opacity=".1" x="287.449" y="128.117" width="42.467" height="4.72" fill="#000"/><path fill-rule="evenodd" clip-rule="evenodd" d="M227.02 94.94l1.189-1.559a6.162 6.162 0 004.279 1.761c2.008 0 3.496-.981 3.496-2.57 0-1.726-1.427-2.862-5.38-2.862v-1.792c3.522 0 4.843-1.158 4.843-2.686 0-1.382-1.185-2.245-2.941-2.245a5.663 5.663 0 00-3.681 1.506l-1.263-1.506a7.7 7.7 0 015.041-1.959c3.042 0 5.283 1.462 5.283 4.024 0 1.805-1.321 2.985-3.223 3.636v.097c2.038.44 3.746 1.792 3.746 3.9 0 2.783-2.641 4.452-5.758 4.452-2.65-.005-4.469-1.013-5.631-2.197z" fill="#4D7CFE"/><path fill-rule="evenodd" clip-rule="evenodd" d="M324.756 54.37c0-.845.075-1.923.119-2.768h-.11c-.485.748-1.035 1.492-1.528 2.236l-3.522 4.517h9.351v1.818h-11.764v-1.54l7.023-9.246h2.584v14.7h-2.153v-9.716z" fill="#4D7CFE" opacity=".8"/><path fill-rule="evenodd" clip-rule="evenodd" d="M405.846 22.84l.797-1.087a4.142 4.142 0 002.883 1.184c1.418 0 2.532-.846 2.532-2.232 0-1.387-.982-2.135-2.439-2.135a3.729 3.729 0 00-2.078.611l-.828-.532.335-5.2h6.163v1.431h-4.71l-.26 2.849a4.331 4.331 0 011.827-.388c2.021 0 3.667 1.04 3.667 3.337 0 2.298-1.928 3.641-4.01 3.641a5.41 5.41 0 01-3.879-1.48z" fill="#4D7CFE" opacity=".5"/><rect opacity=".1" x="152.838" y="124.732" width="157.386" height="157.386" fill="#4D7CFE"/><rect x="158.121" y="117.247" width="157.386" height="157.386" fill="#fff"/><rect opacity=".5" x="174.604" y="134.681" width="124.415" height="4.72" fill="#4D7CFE"/><rect opacity=".1" x="174.604" y="168.805" width="79.223" height="4.72" fill="#000"/><rect opacity=".1" x="174.604" y="200.481" width="76.868" height="4.72" fill="#000"/><rect opacity=".1" x="174.604" y="216.317" width="104.784" height="4.72" fill="#000"/><path opacity=".5" fill-rule="evenodd" clip-rule="evenodd" d="M276.267 169.223l-.542-.559a.135.135 0 00-.088-.035.122.122 0 00-.084.035l-3.755 3.787-1.369-1.37a.143.143 0 00-.088-.035.132.132 0 00-.084.035l-.55.551a.122.122 0 00-.037.088c0 .033.013.065.037.088l1.726 1.721a.549.549 0 00.361.176.55.55 0 00.356-.171l4.117-4.134a.143.143 0 000-.177z" fill="#3ACC6C"/><path opacity=".5" fill-rule="evenodd" clip-rule="evenodd" d="M267.065 168.707a6.406 6.406 0 015.922-3.952v.009a6.4 6.4 0 012.449 12.314 6.406 6.406 0 01-8.371-8.371zm11.366 1.369a5.549 5.549 0 00-9.362-2.838 5.546 5.546 0 109.362 2.838zm-2.164 30.819l-.542-.554a.117.117 0 00-.088-.036.108.108 0 00-.084.036l-3.755 3.781-1.369-1.364a.125.125 0 00-.088-.04.114.114 0 00-.084.04l-.55.545a.123.123 0 000 .177l1.726 1.725a.549.549 0 00.361.176.576.576 0 00.356-.171l4.117-4.139a.141.141 0 000-.176z" fill="#3ACC6C"/><path opacity=".5" fill-rule="evenodd" clip-rule="evenodd" d="M267.066 200.382a6.405 6.405 0 015.921-3.951c1.698 0 3.327.675 4.528 1.876a6.406 6.406 0 011.873 4.53 6.405 6.405 0 11-12.322-2.455zm11.365 1.392a5.547 5.547 0 00-5.444-4.462 5.501 5.501 0 00-3.918 1.624 5.546 5.546 0 109.362 2.838z" fill="#3ACC6C"/><path opacity=".1" fill-rule="evenodd" clip-rule="evenodd" d="M225.633 349.718c17.363 0 31.439-2.361 31.439-5.274s-14.076-5.275-31.439-5.275-31.438 2.362-31.438 5.275c0 2.913 14.075 5.274 31.438 5.274z" fill="#4D7CFE"/><path fill-rule="evenodd" clip-rule="evenodd" d="M57.633 305.257s1.638 2.144-.757 5.384-4.376 5.97-3.575 7.991c0 0 3.615-6.014 6.56-6.098 2.945-.083 1.008-3.658-2.228-7.277z" fill="#4D7CFE"/><path opacity=".1" fill-rule="evenodd" clip-rule="evenodd" d="M57.633 305.257c.143.208.256.434.335.673 2.87 3.377 4.402 6.525 1.642 6.604-2.571.075-5.657 4.671-6.397 5.834.024.089.053.178.088.264 0 0 3.615-6.014 6.56-6.098 2.945-.083 1.008-3.658-2.228-7.277z" fill="#000"/><path fill-rule="evenodd" clip-rule="evenodd" d="M60.68 307.991c0 .757-.084 1.369-.19 1.369-.105 0-.189-.612-.189-1.369s.106-.401.212-.401c.105 0 .167-.352.167.401z" fill="#FFD037"/><path fill-rule="evenodd" clip-rule="evenodd" d="M61.728 308.893c-.665.361-1.242.581-1.29.489-.049-.092.44-.44 1.11-.823.668-.383.4-.097.44 0 .04.097.4-.027-.26.334z" fill="#FFD037"/><path fill-rule="evenodd" clip-rule="evenodd" d="M48.97 305.257s-1.643 2.144.756 5.384c2.4 3.24 4.372 5.97 3.575 7.991 0 0-3.619-6.014-6.56-6.098-2.94-.083-1.012-3.658 2.228-7.277z" fill="#4D7CFE"/><path opacity=".1" fill-rule="evenodd" clip-rule="evenodd" d="M48.97 305.257a2.685 2.685 0 00-.335.673c-2.875 3.377-4.403 6.525-1.642 6.604 2.57.075 5.657 4.671 6.396 5.834a3.093 3.093 0 01-.088.264s-3.619-6.014-6.56-6.098c-2.94-.083-1.012-3.658 2.228-7.277z" fill="#000"/><path fill-rule="evenodd" clip-rule="evenodd" d="M45.918 307.991c0 .757.084 1.369.19 1.369.105 0 .189-.612.189-1.369s-.106-.401-.211-.401c-.106 0-.168-.352-.168.401z" fill="#FFD037"/><path fill-rule="evenodd" clip-rule="evenodd" d="M44.875 308.893c.66.361 1.237.581 1.29.489.053-.092-.44-.44-1.11-.823-.669-.383-.4-.097-.44 0-.04.097-.405-.027.26.334z" fill="#FFD037"/><path opacity=".1" fill-rule="evenodd" clip-rule="evenodd" d="M53.301 335.04c9.47 0 17.148-1.179 17.148-2.633s-7.677-2.633-17.148-2.633c-9.47 0-17.148 1.179-17.148 2.633s7.678 2.633 17.148 2.633z" fill="#4D7CFE"/><path fill-rule="evenodd" clip-rule="evenodd" d="M62.128 315.739l-.083.674-.115.942-.048.396-.115.947-.048.396-.119.942-1.32 10.76c-.115.96-1.687 1.708-3.58 1.708h-6.81c-1.894 0-3.461-.748-3.575-1.708l-1.321-10.76-.115-.942-.048-.396-.115-.947-.048-.396-.115-.942-.088-.674c-.066-.541.784-.999 1.854-.999h13.947c1.079 0 1.928.458 1.862.999z" fill="#65617D"/><path fill-rule="evenodd" clip-rule="evenodd" d="M62.045 316.408l-.115.947H44.672l-.118-.947h17.49zm-.163 1.343l-.115.947H44.835l-.114-.947h17.16zm-.163 1.339l-.119.946H44.998l-.114-.946h16.835z" fill="#9D9CB5"/><path opacity=".1" fill-rule="evenodd" clip-rule="evenodd" d="M257.477 194.939s2.346 7.761 2.641 8.364c.295.612.564 4.412-1.611 6.402a2.823 2.823 0 01-2.267.554c-.386.52-.829.994-1.321 1.414h-1.167l-10.253.105s-3.32-.312-3.082 3.245-1.268 8.061-1.268 8.061-.229 2.65-.079 3.161c.146.499-.291 2.408-.378 2.784l-.005.025v.039s-.339 1.325.101 1.792c.038.044.084.08.136.106.634.317 1.585 3.399 1.585 3.399.493.597.745 1.357.709 2.13-.079 1.268.396 4.271 2.452 6.01 2.056 1.739 4.192 5.851 4.192 5.851s-.247 2.87-2.567 4.614l.028.284.038.385c.387 4.706-.264 13.973-1.721 17.61-1.764 4.389-3.523 18.423-3.954 21.86l-.075.593c-.237 1.835-.18 9.364-.18 9.364s-.436 16.179-.476 18.49c-.039 2.312-1.761 8.123-1.761 8.123s-.59 4.86-.295 6.463c.203 1.092-.229 3.403-.524 4.759l.115-.075c.079-.057.158-.114.233-.18a.404.404 0 00.066-.058 1.928 1.928 0 013.108 1.916c-.037.156-.08.318-.125.485l-.024.091c-.306 1.028-.754 1.351-1.609 1.967-.672.484-1.596 1.149-2.899 2.48a5.926 5.926 0 01-5.891 1.668.717.717 0 01-.528-.748l.37-4.904.035-.441a5.614 5.614 0 01-.388-.246s-1.127-5.455.058-6.82c1.184-1.365-.414-5.573-.414-5.573s.594-21.885.77-22.893c.176-1.009-.709-4.09-1.541-6.639-.832-2.55.476-12.627.771-14.467.295-1.84-.115-10.196-.414-11.918-.299-1.721.352-8.893.352-8.893-1.184-3.557-2.131-.356-2.131-.356l-1.004 9.245-1.008 19.094s.119 5.824-.77 7.484c-.889 1.66-1.66 5.926-1.66 5.926l.414 21.572s-.057 4.508.238 6.225c.145.832-.005 2.281-.194 3.601a1.924 1.924 0 012.725 2.158 9.42 9.42 0 01-.119.475l-.026.097c-.306 1.031-.754 1.353-1.609 1.968-.672.484-1.596 1.148-2.899 2.478a5.917 5.917 0 01-5.891 1.669.712.712 0 01-.528-.748l.321-4.262a15.52 15.52 0 01-.814-1.043c.174.088.353.164.537.229a12.9 12.9 0 01-.81-1.106s.233-1.307.709-1.483c.475-.176-.154-3.364-.533-3.914-.379-.55.062-4.403.062-4.403s-.419-3.5-1.07-7.708c-.652-4.209-.471-20.454-.058-21.463.414-1.008.771-5.692.771-5.692s-.476-2.668.119-4.565c.416-1.33-.449-5.657-1.004-8.434-.237-1.187-.418-2.091-.418-2.357 0-.889-.749-6.401-1.189-6.996a3.529 3.529 0 01-.414-1.659s-.057-1.185-1.065-4.742c-.718-2.597-.286-7.717 0-10.297.032-.256.059-.485.079-.687-.673-.207-.88-.687-.48-1.272.209-.353.345-.744.401-1.15a19.808 19.808 0 01-1.761-2.839c-.788-1.682-1.739-8.365-1.739-8.365.18-1.101-.027-6.08-.137-8.453a7.008 7.008 0 01-.572-.123c-2.31-.583-1.734-2.94-1.499-3.903.031-.127.056-.23.068-.301l.078-.526c.206-1.376.715-4.769.715-5.405 0-.752 0-3.843-.119-5.256-.119-1.413.59-5.376.59-5.376s.004-9.941 5.771-11.12a15.5 15.5 0 00-.206-3.522l-.053.501a12.357 12.357 0 00-.608-2.386 26.136 26.136 0 00-.773-1.825c-.753-1.662-1.507-3.327-1.168-5.038.097-.46.257-.905.475-1.321l.031.07c.649-1.36 1.889-2.542 3.124-3.719.507-.483 1.013-.965 1.477-1.458a14.162 14.162 0 003.795-7.484c.039-.238.07-.478.102-.718.123-.924.247-1.852.778-2.677 4.808-7.44 20.692 1.246 24.214 5.283 3.046 3.492 3.579 8.537.22 11.795a7.778 7.778 0 01-.55.515c-.125.105-.254.209-.382.312a9.491 9.491 0 00-.807.7 2.583 2.583 0 00-.291.361 3.162 3.162 0 00-.387 1.99c.141 1.888.941 3.68 1.742 5.475.272.608.543 1.216.789 1.829 1.282.172 2.726.476 2.981.986a5.893 5.893 0 001.977.634l.328-.001c.783-.005 1.931-.012 2.313.16.061.026.128.035.194.026.387-.039.792-.621.792-.621s.432 0 1.097.044l.51-2.782s-1.571-4.843-1.439-6.163c.132-1.321-2.453-7.925-2.453-7.925s-6.295-9.043-2.201-12.811c4.095-3.769 6.837 11.336 6.837 11.336l4.522 11.478zm-44.968 37.377l-.074 1.805v-.004s-.234.022-.652.048l.101 1.03c.046-.033.095-.063.146-.088.43-.183.754-.553.88-1.004.122-.473.122-.97 0-1.444l-.401-.343z" fill="#000"/><path fill-rule="evenodd" clip-rule="evenodd" d="M250.899 206.803s5.838 3.756 8.048 1.761c2.21-1.994 1.937-5.842 1.638-6.449-.299-.608-2.677-8.422-2.677-8.422l-4.592-11.57s-2.791-15.228-6.956-11.447c-4.164 3.782 2.246 12.913 2.246 12.913s2.641 6.661 2.491 7.995c-.149 1.334 1.462 6.221 1.462 6.221l-1.66 8.998z" fill="url(#paint0_linear)"/><path fill-rule="evenodd" clip-rule="evenodd" d="M240.012 342.476a7.98 7.98 0 01-.154.581c-.542 1.853-1.567 1.435-4.579 4.482a6.043 6.043 0 01-5.987 1.681.722.722 0 01-.537-.752l.378-4.944.181-2.382s4.794 1.347 7.238-.357c.079-.057.158-.114.233-.18l.07-.058a1.961 1.961 0 013.157 1.929z" fill="url(#paint1_linear)"/><path fill-rule="evenodd" clip-rule="evenodd" d="M224.969 340.609c-.04.189-.093.383-.15.581-.542 1.854-1.567 1.435-4.579 4.482a6.061 6.061 0 01-5.987 1.686.717.717 0 01-.537-.757l.374-4.944.185-2.382s4.794 1.347 7.233-.357c.084-.057.159-.114.238-.18l.07-.057a1.955 1.955 0 013.153 1.928z" fill="url(#paint2_linear)"/><path fill-rule="evenodd" clip-rule="evenodd" d="M220.003 341.353l.198 2.567c-2.756 2.729-6.032-1.321-7-2.668 2.522 1.294 6.802.101 6.802.101z" fill="url(#paint3_linear)" opacity=".1"/><path fill-rule="evenodd" clip-rule="evenodd" d="M236.182 342.396l.365-.237c-2.518 3.795-6.251 2.043-7.414 1.365l.181-2.382s4.794 1.347 7.238-.357c-.194.929-.37 1.611-.37 1.611z" fill="url(#paint4_linear)" opacity=".1"/><path fill-rule="evenodd" clip-rule="evenodd" d="M243.838 270.609c-1.929 4.781-3.857 20.802-4.099 22.655-.242 1.854-.181 9.444-.181 9.444l-.501 18.649c-.058 2.333-1.805 8.189-1.805 8.189s-.604 4.904-.304 6.515c.299 1.612-.784 5.86-.784 5.86l.366-.238c-3.016 4.539-7.775 1.132-7.775 1.132s-1.145-5.499.057-6.873c1.202-1.373-.418-5.617-.418-5.617s.598-22.057.783-23.074c.185-1.017-.686-4.125-1.567-6.696-.88-2.571.48-12.732.784-14.586.303-1.853-.124-10.279-.441-12.014-.317-1.735.361-8.968.361-8.968-1.206-3.584-2.17-.357-2.17-.357l-.964 9.387-.991 19.269s.124 5.856-.783 7.529-1.687 5.978-1.687 5.978l.441 21.758s-.062 4.543.242 6.278c.304 1.734-.665 6.216-.665 6.216-3.372 7.889-8.805-.656-8.805-.656s.238-1.321.722-1.497c.484-.176-.18-3.407-.541-3.962-.361-.555.057-4.403.057-4.403s-.418-3.522-1.083-7.775c-.665-4.252-.48-20.621-.062-21.638.418-1.017.784-5.723.784-5.723s-.48-2.69.123-4.605c.603-1.915-1.448-9.981-1.448-10.879 0-.898-.784-6.454-1.207-7.044a3.521 3.521 0 01-.44-1.673s-.062-1.197-1.087-4.781c-.749-2.641-.308-7.784 0-10.381.105-.964.193-1.576.193-1.576s34.591-5.561 35.978-4.301c.326.29.541 1.32.665 2.756.391 4.693-.273 14.039-1.748 17.702z" fill="url(#paint5_linear)"/><path fill-rule="evenodd" clip-rule="evenodd" d="M230.758 297.529c.163 0 3.962.365 5.384.045 1.422-.32-5.384-.045-5.384-.045z" fill="url(#paint6_linear)" opacity=".1"/><path fill-rule="evenodd" clip-rule="evenodd" d="M231.04 299.718s5.283.916 5.547.441c.264-.476-5.547-.441-5.547-.441z" fill="url(#paint7_linear)" opacity=".1"/><path fill-rule="evenodd" clip-rule="evenodd" d="M214.931 298.763s2.729.119 4.217.797c1.488.678-4.217-.797-4.217-.797z" fill="url(#paint8_linear)" opacity=".1"/><path fill-rule="evenodd" clip-rule="evenodd" d="M205.008 231.735s.44 8.329.202 9.8c0 0 .964 6.736 1.761 8.448a24.27 24.27 0 002.532 3.866l2.368-16.536-.55-5.662-6.313.084z" fill="url(#paint9_linear)"/><path fill-rule="evenodd" clip-rule="evenodd" d="M229.917 193.794c5.125 0 9.28-4.122 9.28-9.206s-4.155-9.205-9.28-9.205c-5.126 0-9.281 4.121-9.281 9.205s4.155 9.206 9.281 9.206z" fill="url(#paint10_linear)"/><path fill-rule="evenodd" clip-rule="evenodd" d="M225.096 188.894s-2.892 5.618-5.785 8.25c-2.892 2.633 17.355 5.618 17.835 5.618.48 0-3.615-11.953-2.892-13.388.722-1.435-9.158-.48-9.158-.48z" fill="url(#paint11_linear)"/><path fill-rule="evenodd" clip-rule="evenodd" d="M245.585 252.862a5.979 5.979 0 01-1.488.828c-3.693 1.435-7.713 3.43-10.447 2.642-2.734-.788-8.514 0-8.514 0s-11.654-.96-13.983-.401a4.518 4.518 0 01-2.403.062c.105-.965.193-1.576.193-1.576s34.591-5.561 35.978-4.302c.325.282.541 1.299.664 2.747z" fill="url(#paint12_linear)" opacity=".1"/><path fill-rule="evenodd" clip-rule="evenodd" d="M248.117 247.553s-.321 3.962-4.02 5.42c-3.698 1.457-7.713 3.429-10.447 2.641-2.734-.788-8.514 0-8.514 0s-11.654-.96-13.983-.4c-2.328.559-3.522-.159-2.813-1.198.709-1.039.647-4.46.647-5.895 0-1.435-.805-7.255-.083-8.29.722-1.034 1.365-5.019 2.813-5.657.439-.183.771-.555.903-1.013a2.855 2.855 0 000-1.457s-.243-.198-.582-.497c-.849-.753-2.293-2.153-1.831-2.611.643-.638 0-4.786 0-4.786s-1.528-3.187-.964-4.38c.563-1.193-4.9-7.484-4.9-7.484s0-10.839 6.604-11.319c0 0 4.657.163 5.221-1.911.563-2.074 4.257-3.271 4.257-3.271l8.435 1.836s7.485 1.594 8.841.638c1.356-.955 2.412 1.272 2.412 1.272s4.658.243 5.142 1.198c.485.955-1.527 10.28-1.527 10.28s-3.377-.317-3.135 3.271-1.285 8.127-1.285 8.127-.243 2.641-.08 3.187c.163.546-.317 2.519-.392 2.831v.04s-.334 1.321.102 1.809a.636.636 0 00.141.106c.642.317 1.607 3.425 1.607 3.425.502.602.761 1.37.726 2.153-.079 1.277.401 4.301 2.487 6.058 2.087 1.756 4.218 5.877 4.218 5.877z" fill="url(#paint13_linear)"/><path fill-rule="evenodd" clip-rule="evenodd" d="M212.276 229.102v.339l-.15 3.729s-4.939.396-7.634-.282c-2.694-.678-1.554-3.623-1.448-4.239.079-.559.801-5.222.801-5.979 0-.757 0-3.865-.119-5.283-.118-1.418.604-5.419.604-5.419l.519-.639 5.666 2.153 1.761 15.62z" fill="url(#paint14_linear)"/><path fill-rule="evenodd" clip-rule="evenodd" d="M212.267 229.45l-.149 3.729s-4.94.396-7.634-.282c-2.695-.678-1.554-3.623-1.449-4.24l9.232.793z" fill="url(#paint15_linear)" opacity=".1"/><path fill-rule="evenodd" clip-rule="evenodd" d="M212.642 233.152a2.855 2.855 0 000-1.457s-.243-.198-.582-.497c4.258-.586 21.106-2.884 26.785-3.13v.039s-.334 1.321.102 1.81l-26.305 3.235z" fill="url(#paint16_linear)" opacity=".1"/><path fill-rule="evenodd" clip-rule="evenodd" d="M239.44 236.054s1.043 5.859-2.853 7.924c0 0 2.21-2.919 2.853-7.924z" fill="url(#paint17_linear)" opacity=".1"/><path fill-rule="evenodd" clip-rule="evenodd" d="M213.927 244.128s9.399-1.594 11.248-.361c1.849 1.233-11.248.361-11.248.361z" fill="url(#paint18_linear)" opacity=".1"/><path fill-rule="evenodd" clip-rule="evenodd" d="M236.182 207.825s-1.444 5.895-.361 7.251c1.083 1.356.361-7.251.361-7.251z" fill="url(#paint19_linear)" opacity=".1"/><path fill-rule="evenodd" clip-rule="evenodd" d="M208.943 203s1.321 2.201.524 4.464c-.797 2.263-.524-4.464-.524-4.464z" fill="url(#paint20_linear)" opacity=".1"/><path fill-rule="evenodd" clip-rule="evenodd" d="M206.214 222.208s1.686.999 1.123 2.553c-.564 1.554-1.123-2.553-1.123-2.553z" fill="url(#paint21_linear)"/><path fill-rule="evenodd" clip-rule="evenodd" d="M206.038 217.664s1.567.841 1.761 2.074c.193 1.233-1.761-2.074-1.761-2.074z" fill="url(#paint22_linear)" opacity=".1"/><path fill-rule="evenodd" clip-rule="evenodd" d="M229.274 265.326s9.844.999 11.812-1.321c0 .009-8.88 1.761-11.812 1.321z" fill="url(#paint23_linear)" opacity=".1"/><path fill-rule="evenodd" clip-rule="evenodd" d="M212.281 264.771s10.566 2.47 12.652.515c0 0-9.078.678-12.652-.515z" fill="url(#paint24_linear)" opacity=".1"/><path fill-rule="evenodd" clip-rule="evenodd" d="M230.036 268.618s4.402 0 6.467.135c2.065.135-6.467-.135-6.467-.135z" fill="url(#paint25_linear)" opacity=".1"/><path fill-rule="evenodd" clip-rule="evenodd" d="M213.003 270.428s2.17 2.431 4.618 1.995c2.448-.436-4.618-1.995-4.618-1.995z" fill="url(#paint26_linear)" opacity=".1"/><path fill-rule="evenodd" clip-rule="evenodd" d="M217.264 170.896c-.682 1.048-.704 2.259-.88 3.421a14.227 14.227 0 01-3.857 7.568c-1.928 2.034-4.574 3.874-5.072 6.357-.471 2.36 1.132 4.627 1.973 6.921 2.201 6.054-.881 12.398-1.783 18.645-.247 1.726.052 3.931 2.201 4.504.669.18 1.435.158 2.034.44.81.383 1.056 1.18 1.206 1.897.536 2.565.722 5.191.55 7.806-.096 1.47-.202 3.157 1.194 4.165a7.09 7.09 0 002.315.915c2.202.59 5.05 1.061 6.534-.317.625-.576.88-1.395 1.633-1.853 1.162-.682 2.813-.22 4.279-.15a7.77 7.77 0 006.961-3.707c1.184-2.117 1.083-4.53.642-6.81-.44-2.281-1.197-4.535-1.254-6.842a3.962 3.962 0 01.519-2.32c.881-1.373 2.981-1.999 4.403-3.082 2.668-2.025 2.641-5.344 1.69-8.122-.951-2.778-2.712-5.433-2.927-8.303a3.15 3.15 0 01.396-2.008 7.826 7.826 0 011.62-1.506c3.896-3.262 3.438-8.624.216-12.291-3.575-4.082-19.728-12.843-24.593-5.328z" fill="url(#paint27_linear)"/><g opacity=".1" fill-rule="evenodd" clip-rule="evenodd"><path d="M209.921 197.668a15.007 15.007 0 00-.612-7.185c-.44-1.158-1.044-2.311-1.488-3.469-.224.415-.387.86-.485 1.321-.475 2.355 1.132 4.623 1.973 6.921.283.782.488 1.59.612 2.412z" fill="url(#paint28_linear)"/><path d="M213.522 223.775a28.735 28.735 0 00-.555-7.806c-.149-.717-.396-1.514-1.202-1.897-.603-.286-1.369-.264-2.038-.44a2.777 2.777 0 01-1.875-1.541 38.033 38.033 0 00-.317 1.818c-.251 1.726.048 3.932 2.201 4.504.669.18 1.435.158 2.038.44.806.383 1.052 1.18 1.202 1.898.25 1.189.423 2.394.52 3.605-.009-.189.026-.387.026-.581z" fill="url(#paint29_linear)"/><path d="M236.415 222.846a7.767 7.767 0 01-6.956 3.707c-1.466-.07-3.117-.533-4.279.15-.775.44-1.013 1.277-1.633 1.853-1.484 1.378-4.333.907-6.534.317a7.052 7.052 0 01-2.316-.915 2.852 2.852 0 01-1.14-1.841c0 .819 0 1.642-.053 2.461-.096 1.466-.202 3.152 1.193 4.161.712.44 1.496.75 2.316.915 2.201.595 5.05 1.061 6.534-.317.62-.576.88-1.391 1.633-1.849 1.162-.686 2.813-.224 4.279-.149a7.758 7.758 0 006.956-3.712c1.14-2.034 1.092-4.341.696-6.542a7.136 7.136 0 01-.696 1.761z" fill="url(#paint30_linear)"/><path d="M241.518 183.84a7.85 7.85 0 00-1.625 1.506 3.153 3.153 0 00-.392 2.007c.075.873.26 1.732.551 2.558.449-.473.94-.904 1.466-1.29 2.641-2.201 3.275-5.371 2.421-8.325a7.653 7.653 0 01-2.421 3.544z" fill="url(#paint31_linear)"/><path d="M240.738 203.779c-1.426 1.079-3.522 1.704-4.402 3.082a3.93 3.93 0 00-.52 2.32c.034.933.148 1.861.344 2.773a3 3 0 01.176-.312c.88-1.369 2.976-1.999 4.402-3.082 2.435-1.849 2.642-4.777 1.92-7.387a5.575 5.575 0 01-1.92 2.606z" fill="url(#paint32_linear)"/></g><path fill-rule="evenodd" clip-rule="evenodd" d="M259.084 204.756c-1.647 4.143-3.778 5.776-3.778 5.776h-1.184l-10.425.106-1.206-3.267 1.69-7.044 1.039.066a6.047 6.047 0 002.008.639c.761 0 2.249-.04 2.69.158a.354.354 0 00.198.027c.392-.04.81-.626.81-.626s9.804.018 8.158 4.165z" fill="url(#paint33_linear)"/><path fill-rule="evenodd" clip-rule="evenodd" d="M259.084 204.756c-1.647 4.143-3.778 5.776-3.778 5.776h-1.184c.616-1.642 1.92-5.014 2.43-5.789.511-.775-3.878-2.571-6.432-3.562.392-.039.81-.625.81-.625s9.8.053 8.154 4.2z" fill="url(#paint34_linear)" opacity=".1"/><path fill-rule="evenodd" clip-rule="evenodd" d="M250.591 207.966s5.723 3.724 7.925 1.734c2.201-1.99 1.906-5.793 1.611-6.397-.295-.603-2.641-8.364-2.641-8.364l-4.522-11.478s-2.743-15.105-6.837-11.336c-4.094 3.768 2.201 12.811 2.201 12.811s2.585 6.604 2.452 7.925c-.132 1.32 1.44 6.163 1.44 6.163l-1.629 8.942z" fill="#EFB7B9"/><path fill-rule="evenodd" clip-rule="evenodd" d="M239.88 342.533c-.044.185-.097.379-.15.577-.537 1.836-1.545 1.422-4.508 4.446a5.925 5.925 0 01-5.89 1.669.718.718 0 01-.529-.749l.37-4.904.181-2.36s4.719 1.321 7.118-.356c.08-.058.159-.115.234-.181a.45.45 0 00.066-.057 1.927 1.927 0 013.108 1.915zm-14.815-1.849c-.039.185-.092.374-.145.572-.537 1.84-1.545 1.422-4.508 4.447a5.919 5.919 0 01-5.891 1.668.712.712 0 01-.528-.748l.37-4.905.18-2.359s4.72 1.32 7.119-.357c.081-.054.159-.113.234-.176l.066-.062a1.929 1.929 0 013.103 1.92z" fill="#4D7CFE"/><path opacity=".1" fill-rule="evenodd" clip-rule="evenodd" d="M220.192 341.419l.194 2.549c-2.708 2.703-5.935-1.321-6.886-2.641 2.492 1.268 6.692.092 6.692.092zm15.919 1.035l.357-.234c-2.474 3.76-6.164 2.026-7.295 1.352l.18-2.36s4.72 1.321 7.119-.356c-.189.92-.361 1.598-.361 1.598z" fill="#000"/><path fill-rule="evenodd" clip-rule="evenodd" d="M243.64 271.274c-1.898 4.741-3.795 20.63-4.029 22.453-.233 1.822-.18 9.364-.18 9.364l-.476 18.49c-.057 2.312-1.761 8.123-1.761 8.123s-.59 4.843-.295 6.463-.77 5.811-.77 5.811l.357-.238c-2.963 4.504-7.648 1.128-7.648 1.128s-1.127-5.455.058-6.82c1.184-1.365-.414-5.574-.414-5.574s.594-21.876.77-22.893c.176-1.017-.713-4.09-1.541-6.639-.827-2.549.476-12.63.771-14.466.295-1.836-.119-10.201-.414-11.918-.295-1.717.352-8.893.352-8.893-1.184-3.557-2.131-.357-2.131-.357l-.951 9.307-1.025 19.112s.118 5.807-.771 7.484c-.889 1.677-1.655 5.908-1.655 5.908l.414 21.572s-.058 4.509.237 6.226c.295 1.717-.651 6.163-.651 6.163-3.32 7.823-8.656-.651-8.656-.651s.238-1.321.709-1.484c.471-.163-.176-3.381-.532-3.914-.357-.533.061-4.402.061-4.402s-.44-3.5-1.07-7.709c-.629-4.209-.471-20.454-.057-21.463.414-1.008.771-5.692.771-5.692s-.476-2.668.118-4.565c.595-1.898-1.422-9.902-1.422-10.791 0-.889-.77-6.401-1.188-6.996a3.514 3.514 0 01-.414-1.659s-.057-1.185-1.065-4.742c-.736-2.597-.304-7.717 0-10.297.105-.956.193-1.563.193-1.563s34.032-5.512 35.396-4.266c.317.29.533 1.32.652 2.734.365 4.728-.286 13.995-1.743 17.654z" fill="#444053"/><path opacity=".1" fill-rule="evenodd" clip-rule="evenodd" d="M230.776 297.909c.158 0 3.913.317 5.283.04 1.369-.278-5.283-.04-5.283-.04zm.277 2.214s5.177.912 5.455.441c.277-.471-5.455-.441-5.455-.441zm-15.849-.946s2.685.119 4.147.788c1.462.669-4.147-.788-4.147-.788z" fill="#000"/><path fill-rule="evenodd" clip-rule="evenodd" d="M205.439 232.695s.44 8.259.198 9.72c0 0 .951 6.683 1.739 8.365a24.225 24.225 0 002.492 3.835l2.333-16.386-.55-5.614-6.212.08zm24.509-37.629a9.13 9.13 0 100-18.261 9.13 9.13 0 100 18.261z" fill="#EFB7B9"/><path fill-rule="evenodd" clip-rule="evenodd" d="M225.202 190.206s-2.844 5.569-5.693 8.18c-2.848 2.61 17.078 5.573 17.553 5.573.476 0-3.557-11.86-2.848-13.282.709-1.422-9.012-.471-9.012-.471z" fill="#EFB7B9"/><path opacity=".1" fill-rule="evenodd" clip-rule="evenodd" d="M245.361 253.664a5.949 5.949 0 01-1.462.823c-3.636 1.422-7.59 3.399-10.279 2.606-2.69-.792-8.365 0-8.365 0s-11.447-.946-13.754-.396a4.436 4.436 0 01-2.381.049c.105-.956.193-1.563.193-1.563s34.032-5.512 35.396-4.266c.317.29.533 1.298.652 2.747z" fill="#000"/><path fill-rule="evenodd" clip-rule="evenodd" d="M247.862 248.381s-.317 3.962-3.963 5.375c-3.645 1.413-7.59 3.399-10.28 2.611-2.689-.788-8.364 0-8.364 0s-11.447-.951-13.754-.396c-2.307.554-3.478-.159-2.769-1.189.709-1.03.634-4.403.634-5.847 0-1.444-.792-7.193-.079-8.223.713-1.031 1.321-4.98 2.769-5.614.431-.183.755-.552.88-1.003a2.872 2.872 0 000-1.444s-.237-.199-.572-.494c-.836-.748-2.254-2.135-1.796-2.588.629-.634 0-4.746 0-4.746s-1.506-3.161-.951-4.345c.555-1.185-4.843-7.432-4.843-7.432s0-10.751 6.485-11.226c0 0 4.583.158 5.138-1.898.555-2.056 4.191-3.24 4.191-3.24l8.299 1.818s7.352 1.581 8.695.634c1.342-.946 2.355 1.259 2.355 1.259s4.583.238 5.059 1.185c.475.946-1.502 10.196-1.502 10.196s-3.319-.313-3.081 3.244c.237 3.558-1.268 8.061-1.268 8.061s-.238 2.611-.08 3.161c.159.551-.312 2.501-.383 2.809v.04s-.325 1.321.102 1.792c.038.044.084.08.136.105.634.313 1.585 3.399 1.585 3.399.492.598.745 1.357.709 2.131-.079 1.268.396 4.27 2.452 6.009 2.056 1.739 4.196 5.856 4.196 5.856z" fill="#4D7CFE"/><path fill-rule="evenodd" clip-rule="evenodd" d="M212.593 230.084v.334l-.145 3.699s-4.843.396-7.484-.278c-2.642-.673-1.533-3.592-1.431-4.204.079-.555.792-5.182.792-5.93 0-.749 0-3.835-.119-5.257-.119-1.422.59-5.375.59-5.375l.515-.634 5.574 2.135 1.708 15.51z" fill="#4D7CFE"/><path opacity=".1" fill-rule="evenodd" clip-rule="evenodd" d="M212.58 230.419l-.145 3.698s-4.843.396-7.485-.278c-2.641-.673-1.532-3.592-1.43-4.204l9.06.784z" fill="#000"/><path opacity=".1" fill-rule="evenodd" clip-rule="evenodd" d="M212.932 234.099a2.894 2.894 0 000-1.444s-.238-.198-.572-.493c4.191-.581 20.766-2.857 26.353-3.082v.04s-.326 1.32.101 1.792l-25.882 3.187zm26.38 2.862s1.03 5.811-2.804 7.867c0 0 2.174-2.884 2.804-7.867zm-25.099 8.025s9.246-1.58 11.068-.356c1.823 1.224-11.068.356-11.068.356zm21.898-36.008s-1.422 5.851-.356 7.194c1.065 1.343.356-7.194.356-7.194zm-26.798-4.781s1.321 2.171.515 4.425c-.805 2.254-.515-4.425-.515-4.425z" fill="#000"/><path fill-rule="evenodd" clip-rule="evenodd" d="M206.628 223.247s1.659.99 1.105 2.531c-.555 1.541-1.105-2.531-1.105-2.531z" fill="#4D7CFE"/><path opacity=".1" fill-rule="evenodd" clip-rule="evenodd" d="M206.478 218.743s1.541.828 1.739 2.052c.198 1.224-1.739-2.052-1.739-2.052zm22.836 47.27s9.685.99 11.618-1.321c0 .018-8.735 1.739-11.618 1.321zm-16.721-.555s10.394 2.452 12.45.515c0 .018-8.932.674-12.45-.515zm17.469 3.755s4.35 0 6.366.119c2.017.119-6.366-.119-6.366-.119zm-16.756 1.858s2.135 2.413 4.544 1.977c2.408-.436-4.544-1.977-4.544-1.977z" fill="#000"/><path fill-rule="evenodd" clip-rule="evenodd" d="M217.484 172.332c-.669 1.039-.691 2.241-.88 3.394a14.144 14.144 0 01-3.795 7.484c-1.893 2.017-4.495 3.844-4.988 6.305-.462 2.337 1.114 4.587 1.941 6.863 2.202 6.001-.88 12.296-1.761 18.491-.246 1.712.049 3.9 2.158 4.468.66.176 1.413.154 2.007.441.793.378 1.035 1.171 1.18 1.879.53 2.545.714 5.15.546 7.744-.097 1.458-.203 3.131 1.171 4.134.702.433 1.473.74 2.28.907 2.166.586 4.966 1.048 6.428-.317.612-.572.841-1.382 1.607-1.835 1.145-.678 2.769-.221 4.209-.15a7.633 7.633 0 006.846-3.676c1.166-2.105 1.065-4.491.634-6.754-.432-2.263-1.18-4.499-1.233-6.788a3.922 3.922 0 01.511-2.299c.88-1.364 2.927-1.985 4.332-3.055 2.641-2.007 2.615-5.283 1.664-8.056-.951-2.774-2.672-5.389-2.884-8.238a3.156 3.156 0 01.388-1.99 8.005 8.005 0 011.633-1.457c3.835-3.236 3.381-8.554.211-12.19-3.513-4.051-19.406-12.737-24.205-5.305z" fill="#E3787D"/><path d="M210.277 198.905c.374-2.39.165-4.835-.607-7.127-.414-1.149-1.022-2.29-1.466-3.439a5.105 5.105 0 00-.476 1.321c-.462 2.338 1.114 4.587 1.942 6.864.281.771.485 1.569.607 2.381zm3.531 25.896a28.801 28.801 0 00-.546-7.744c-.145-.709-.387-1.501-1.18-1.88-.594-.286-1.347-.264-2.007-.44a2.757 2.757 0 01-1.845-1.528 36.465 36.465 0 00-.312 1.801c-.247 1.712.048 3.9 2.157 4.468.66.176 1.413.154 2.007.44.793.383 1.035 1.171 1.18 1.885.245 1.18.415 2.373.511 3.575.009-.194.022-.388.035-.577zm22.541-.938a7.623 7.623 0 01-6.846 3.676c-1.439-.07-3.082-.528-4.209.15-.761.44-.995 1.263-1.607 1.836-1.461 1.365-4.261.902-6.427.317a6.915 6.915 0 01-2.276-.912 2.867 2.867 0 01-1.127-1.822c0 .81 0 1.624-.049 2.434-.097 1.458-.202 3.131 1.176 4.134.7.433 1.47.74 2.276.907 2.166.586 4.966 1.048 6.427-.312.612-.577.846-1.387 1.607-1.841 1.145-.678 2.77-.22 4.209-.149a7.627 7.627 0 006.846-3.676c1.123-2.021 1.074-4.306.682-6.49a7.132 7.132 0 01-.682 1.748zm5.01-38.672a7.78 7.78 0 00-1.598 1.493 3.154 3.154 0 00-.387 1.99c.077.866.26 1.719.545 2.54.44-.471.922-.899 1.44-1.281 2.593-2.201 3.223-5.327 2.382-8.255a7.554 7.554 0 01-2.382 3.513zm-.766 19.777c-1.404 1.069-3.452 1.69-4.332 3.051-.4.697-.578 1.5-.511 2.302.034.925.148 1.846.339 2.752.049-.108.106-.211.172-.309.88-1.364 2.928-1.985 4.332-3.055 2.395-1.836 2.598-4.737 1.889-7.326a5.568 5.568 0 01-1.889 2.585z" opacity=".1" fill-rule="evenodd" clip-rule="evenodd" fill="#000"/><path fill-rule="evenodd" clip-rule="evenodd" d="M258.643 205.936c-1.62 4.112-3.72 5.723-3.72 5.723h-1.166l-10.254.106-1.184-3.24 1.66-6.996 1.025.04a5.923 5.923 0 001.977.634c.753 0 2.201-.04 2.642.158a.366.366 0 00.193.027c.388-.04.793-.621.793-.621s9.65.057 8.034 4.169z" fill="#4D7CFE"/><path opacity=".1" fill-rule="evenodd" clip-rule="evenodd" d="M258.643 205.936c-1.62 4.112-3.72 5.723-3.72 5.723h-1.166c.612-1.629 1.893-4.97 2.395-5.723.501-.753-3.817-2.549-6.327-3.522.388-.04.793-.621.793-.621s9.641.031 8.025 4.143z" fill="#000"/><defs><linearGradient id="paint0_linear" x1="260.786" y1="209.141" x2="260.786" y2="170.073" gradientUnits="userSpaceOnUse"><stop stop-color="gray" stop-opacity=".25"/><stop offset=".54" stop-color="gray" stop-opacity=".12"/><stop offset="1" stop-color="gray" stop-opacity=".1"/></linearGradient><linearGradient id="paint1_linear" x1="240.064" y1="349.432" x2="240.064" y2="340.094" gradientUnits="userSpaceOnUse"><stop stop-color="gray" stop-opacity=".25"/><stop offset=".54" stop-color="gray" stop-opacity=".12"/><stop offset="1" stop-color="gray" stop-opacity=".1"/></linearGradient><linearGradient id="paint2_linear" x1="225.008" y1="347.565" x2="225.008" y2="338.227" gradientUnits="userSpaceOnUse"><stop stop-color="gray" stop-opacity=".25"/><stop offset=".54" stop-color="gray" stop-opacity=".12"/><stop offset="1" stop-color="gray" stop-opacity=".1"/></linearGradient><linearGradient id="paint3_linear" x1="220.2" y1="344.844" x2="220.2" y2="341.252" gradientUnits="userSpaceOnUse"><stop stop-color="gray" stop-opacity=".25"/><stop offset=".54" stop-color="gray" stop-opacity=".12"/><stop offset="1" stop-color="gray" stop-opacity=".1"/></linearGradient><linearGradient id="paint4_linear" x1="236.551" y1="344.523" x2="236.551" y2="340.785" gradientUnits="userSpaceOnUse"><stop stop-color="gray" stop-opacity=".25"/><stop offset=".54" stop-color="gray" stop-opacity=".12"/><stop offset="1" stop-color="gray" stop-opacity=".1"/></linearGradient><linearGradient id="paint5_linear" x1="245.708" y1="344.369" x2="245.708" y2="249.922" gradientUnits="userSpaceOnUse"><stop stop-color="gray" stop-opacity=".25"/><stop offset=".54" stop-color="gray" stop-opacity=".12"/><stop offset="1" stop-color="gray" stop-opacity=".1"/></linearGradient><linearGradient id="paint6_linear" x1="235.139" y1="297.704" x2="235.139" y2="297.419" gradientUnits="userSpaceOnUse"><stop stop-color="gray" stop-opacity=".25"/><stop offset=".54" stop-color="gray" stop-opacity=".12"/><stop offset="1" stop-color="gray" stop-opacity=".1"/></linearGradient><linearGradient id="paint7_linear" x1="236.591" y1="300.295" x2="236.591" y2="299.718" gradientUnits="userSpaceOnUse"><stop stop-color="gray" stop-opacity=".25"/><stop offset=".54" stop-color="gray" stop-opacity=".12"/><stop offset="1" stop-color="gray" stop-opacity=".1"/></linearGradient><linearGradient id="paint8_linear" x1="219.391" y1="299.736" x2="219.391" y2="298.763" gradientUnits="userSpaceOnUse"><stop stop-color="gray" stop-opacity=".25"/><stop offset=".54" stop-color="gray" stop-opacity=".12"/><stop offset="1" stop-color="gray" stop-opacity=".1"/></linearGradient><linearGradient id="paint9_linear" x1="211.873" y1="253.849" x2="211.873" y2="231.656" gradientUnits="userSpaceOnUse"><stop stop-color="gray" stop-opacity=".25"/><stop offset=".54" stop-color="gray" stop-opacity=".12"/><stop offset="1" stop-color="gray" stop-opacity=".1"/></linearGradient><linearGradient id="paint10_linear" x1="239.197" y1="193.794" x2="239.197" y2="175.383" gradientUnits="userSpaceOnUse"><stop stop-color="gray" stop-opacity=".25"/><stop offset=".54" stop-color="gray" stop-opacity=".12"/><stop offset="1" stop-color="gray" stop-opacity=".1"/></linearGradient><linearGradient id="paint11_linear" x1="237.187" y1="202.762" x2="237.187" y2="188.581" gradientUnits="userSpaceOnUse"><stop stop-color="gray" stop-opacity=".25"/><stop offset=".54" stop-color="gray" stop-opacity=".12"/><stop offset="1" stop-color="gray" stop-opacity=".1"/></linearGradient><linearGradient id="paint12_linear" x1="245.587" y1="256.503" x2="245.587" y2="249.922" gradientUnits="userSpaceOnUse"><stop stop-color="gray" stop-opacity=".25"/><stop offset=".54" stop-color="gray" stop-opacity=".12"/><stop offset="1" stop-color="gray" stop-opacity=".1"/></linearGradient><linearGradient id="paint13_linear" x1="248.109" y1="255.786" x2="248.109" y2="195.427" gradientUnits="userSpaceOnUse"><stop stop-color="gray" stop-opacity=".25"/><stop offset=".54" stop-color="gray" stop-opacity=".12"/><stop offset="1" stop-color="gray" stop-opacity=".1"/></linearGradient><linearGradient id="paint14_linear" x1="212.288" y1="233.285" x2="212.288" y2="211.29" gradientUnits="userSpaceOnUse"><stop stop-color="gray" stop-opacity=".25"/><stop offset=".54" stop-color="gray" stop-opacity=".12"/><stop offset="1" stop-color="gray" stop-opacity=".1"/></linearGradient><linearGradient id="paint15_linear" x1="212.271" y1="233.285" x2="212.271" y2="228.649" gradientUnits="userSpaceOnUse"><stop stop-color="gray" stop-opacity=".25"/><stop offset=".54" stop-color="gray" stop-opacity=".12"/><stop offset="1" stop-color="gray" stop-opacity=".1"/></linearGradient><linearGradient id="paint16_linear" x1="238.9" y1="233.152" x2="238.9" y2="228.068" gradientUnits="userSpaceOnUse"><stop stop-color="gray" stop-opacity=".25"/><stop offset=".54" stop-color="gray" stop-opacity=".12"/><stop offset="1" stop-color="gray" stop-opacity=".1"/></linearGradient><linearGradient id="paint17_linear" x1="239.566" y1="243.969" x2="239.566" y2="236.036" gradientUnits="userSpaceOnUse"><stop stop-color="gray" stop-opacity=".25"/><stop offset=".54" stop-color="gray" stop-opacity=".12"/><stop offset="1" stop-color="gray" stop-opacity=".1"/></linearGradient><linearGradient id="paint18_linear" x1="225.351" y1="244.427" x2="225.351" y2="243.3" gradientUnits="userSpaceOnUse"><stop stop-color="gray" stop-opacity=".25"/><stop offset=".54" stop-color="gray" stop-opacity=".12"/><stop offset="1" stop-color="gray" stop-opacity=".1"/></linearGradient><linearGradient id="paint19_linear" x1="236.417" y1="215.221" x2="236.417" y2="207.825" gradientUnits="userSpaceOnUse"><stop stop-color="gray" stop-opacity=".25"/><stop offset=".54" stop-color="gray" stop-opacity=".12"/><stop offset="1" stop-color="gray" stop-opacity=".1"/></linearGradient><linearGradient id="paint20_linear" x1="209.722" y1="207.935" x2="209.722" y2="203" gradientUnits="userSpaceOnUse"><stop stop-color="gray" stop-opacity=".25"/><stop offset=".54" stop-color="gray" stop-opacity=".12"/><stop offset="1" stop-color="gray" stop-opacity=".1"/></linearGradient><linearGradient id="paint21_linear" x1="207.449" y1="225.113" x2="207.449" y2="222.208" gradientUnits="userSpaceOnUse"><stop stop-color="gray" stop-opacity=".25"/><stop offset=".54" stop-color="gray" stop-opacity=".12"/><stop offset="1" stop-color="gray" stop-opacity=".1"/></linearGradient><linearGradient id="paint22_linear" x1="207.833" y1="220.015" x2="207.833" y2="217.664" gradientUnits="userSpaceOnUse"><stop stop-color="gray" stop-opacity=".25"/><stop offset=".54" stop-color="gray" stop-opacity=".12"/><stop offset="1" stop-color="gray" stop-opacity=".1"/></linearGradient><linearGradient id="paint23_linear" x1="241.057" y1="265.542" x2="241.057" y2="264.014" gradientUnits="userSpaceOnUse"><stop stop-color="gray" stop-opacity=".25"/><stop offset=".54" stop-color="gray" stop-opacity=".12"/><stop offset="1" stop-color="gray" stop-opacity=".1"/></linearGradient><linearGradient id="paint24_linear" x1="224.934" y1="266.039" x2="224.934" y2="264.771" gradientUnits="userSpaceOnUse"><stop stop-color="gray" stop-opacity=".25"/><stop offset=".54" stop-color="gray" stop-opacity=".12"/><stop offset="1" stop-color="gray" stop-opacity=".1"/></linearGradient><linearGradient id="paint25_linear" x1="234.584" y1="268.788" x2="234.584" y2="268.618" gradientUnits="userSpaceOnUse"><stop stop-color="gray" stop-opacity=".25"/><stop offset=".54" stop-color="gray" stop-opacity=".12"/><stop offset="1" stop-color="gray" stop-opacity=".1"/></linearGradient><linearGradient id="paint26_linear" x1="218.137" y1="272.476" x2="218.137" y2="270.428" gradientUnits="userSpaceOnUse"><stop stop-color="gray" stop-opacity=".25"/><stop offset=".54" stop-color="gray" stop-opacity=".12"/><stop offset="1" stop-color="gray" stop-opacity=".1"/></linearGradient><linearGradient id="paint27_linear" x1="244.415" y1="234.099" x2="244.415" y2="167.942" gradientUnits="userSpaceOnUse"><stop stop-color="gray" stop-opacity=".25"/><stop offset=".54" stop-color="gray" stop-opacity=".12"/><stop offset="1" stop-color="gray" stop-opacity=".1"/></linearGradient><linearGradient id="paint28_linear" x1="210.099" y1="197.668" x2="210.099" y2="187.014" gradientUnits="userSpaceOnUse"><stop stop-color="gray" stop-opacity=".25"/><stop offset=".54" stop-color="gray" stop-opacity=".12"/><stop offset="1" stop-color="gray" stop-opacity=".1"/></linearGradient><linearGradient id="paint29_linear" x1="213.578" y1="224.356" x2="213.578" y2="212.086" gradientUnits="userSpaceOnUse"><stop stop-color="gray" stop-opacity=".25"/><stop offset=".54" stop-color="gray" stop-opacity=".12"/><stop offset="1" stop-color="gray" stop-opacity=".1"/></linearGradient><linearGradient id="paint30_linear" x1="237.373" y1="234.218" x2="237.373" y2="221.068" gradientUnits="userSpaceOnUse"><stop stop-color="gray" stop-opacity=".25"/><stop offset=".54" stop-color="gray" stop-opacity=".12"/><stop offset="1" stop-color="gray" stop-opacity=".1"/></linearGradient><linearGradient id="paint31_linear" x1="244.299" y1="189.911" x2="244.299" y2="180.296" gradientUnits="userSpaceOnUse"><stop stop-color="gray" stop-opacity=".25"/><stop offset=".54" stop-color="gray" stop-opacity=".12"/><stop offset="1" stop-color="gray" stop-opacity=".1"/></linearGradient><linearGradient id="paint32_linear" x1="243.027" y1="211.95" x2="243.027" y2="201.173" gradientUnits="userSpaceOnUse"><stop stop-color="gray" stop-opacity=".25"/><stop offset=".54" stop-color="gray" stop-opacity=".12"/><stop offset="1" stop-color="gray" stop-opacity=".1"/></linearGradient><linearGradient id="paint33_linear" x1="259.279" y1="210.651" x2="259.279" y2="200.332" gradientUnits="userSpaceOnUse"><stop stop-color="gray" stop-opacity=".25"/><stop offset=".54" stop-color="gray" stop-opacity=".12"/><stop offset="1" stop-color="gray" stop-opacity=".1"/></linearGradient><linearGradient id="paint34_linear" x1="259.269" y1="210.546" x2="259.269" y2="200.569" gradientUnits="userSpaceOnUse"><stop stop-color="gray" stop-opacity=".25"/><stop offset=".54" stop-color="gray" stop-opacity=".12"/><stop offset="1" stop-color="gray" stop-opacity=".1"/></linearGradient></defs></svg>