<svg version="1.2" width="6.61mm" height="6.88mm" viewBox="0 0 661 688" preserveAspectRatio="xMidYMid" fill-rule="evenodd" stroke-width="28.222" stroke-linejoin="round" xmlns="http://www.w3.org/2000/svg"><defs class="ClipPathGroup"><clipPath id="a" clipPathUnits="userSpaceOnUse"><rect width="661" height="688"/></clipPath></defs><g class="SlideGroup"><g class="Slide" clip-path="url(#a)"><g class="Page"><g class="Graphic"><rect class="BoundingBox" fill="none" width="661" height="688"/><path fill="#252631" d="M468 105c-3 0-6 0-9 1l-322 85c-26 7-45 31-45 58v272c0 33 27 59 60 59h356c33 0 60-26 60-59V263c0-32-27-59-60-59H243l226-59v39h39v-39c0-23-19-40-40-40zM152 244h356c11 0 20 8 20 19v258c0 11-9 20-20 20H152c-11 0-20-9-20-20V263c0-11 9-19 20-19zm307 118c-17 0-30 14-30 30 0 17 13 30 30 30 16 0 29-13 29-30 0-16-13-30-29-30z"/></g></g></g></g></svg>