<svg width="10" height="10" fill="none" xmlns="http://www.w3.org/2000/svg"><path d="M1.946 10a.324.324 0 01-.238-.098.324.324 0 01-.098-.238v-1.54H.546a.324.324 0 01-.238-.098.324.324 0 01-.098-.238v-.434c0-.093.033-.173.098-.238a.324.324 0 01.238-.098H1.61v-.756H.546a.324.324 0 01-.238-.098.324.324 0 01-.098-.238V5.17c0-.103.033-.182.098-.238a.324.324 0 01.238-.098H1.61V.55c0-.103.028-.187.084-.252A.341.341 0 011.946.2h3.738c1.13 0 2.016.266 2.66.798.644.523.966 1.293.966 2.31 0 .98-.322 1.717-.966 2.212-.644.495-1.53.742-2.66.742H3.612v.756h2.282c.093 0 .173.033.238.098a.324.324 0 01.098.238v.434a.324.324 0 01-.098.238.296.296 0 01-.238.098H3.612v1.54a.324.324 0 01-.098.238.341.341 0 01-.252.098H1.946zm3.668-5.166c.541 0 .957-.126 1.246-.378.299-.261.448-.644.448-1.148 0-.485-.14-.863-.42-1.134-.28-.28-.705-.42-1.274-.42h-2.03v3.08h2.03z" fill="#98A9BC"/></svg>