<svg version="1.2" width="72" height="6.61mm" viewBox="0 0 1905 661" preserveAspectRatio="xMidYMid" fill-rule="evenodd" stroke-width="28.222" stroke-linejoin="round" xmlns="http://www.w3.org/2000/svg"><defs class="ClipPathGroup"><clipPath id="a" clipPathUnits="userSpaceOnUse"><rect width="1905" height="661"/></clipPath></defs><g class="SlideGroup"><g class="Slide" clip-path="url(#a)"><g class="Page"><g class="Graphic"><rect class="BoundingBox" fill="none" width="1905" height="661"/><path fill="#4D7CFE" d="M843 541c-4 0-7-1-10-4-2-3-4-6-4-10V149c0-4 1-8 4-10 2-3 6-4 10-4h156c47 0 83 11 110 33 27 21 40 53 40 96 0 42-13 74-40 95-26 22-63 32-110 32h-87v136c0 4-1 7-4 10-2 3-5 4-10 4h-55zm153-214c23 0 40-5 52-16s18-27 18-47c0-21-6-36-18-47-11-12-29-18-52-18h-85v128h85zm166 214c-3 0-6-1-9-3-2-3-3-6-3-9l1-5 140-375c3-10 10-14 21-14h63c10 0 17 4 20 14l141 375v5c0 3-1 6-3 9-3 2-5 3-8 3h-51c-5 0-9-1-12-3-2-3-4-5-5-8l-27-71h-173l-27 71c-4 8-9 11-17 11h-51zm247-148l-66-180-66 180h132zm258 148c-4 0-7-1-10-4-2-3-4-6-4-10V396l-137-243c-1-2-2-4-2-6 0-4 1-7 4-9 2-2 5-3 8-3h52c4 0 7 1 10 3s5 5 7 8l99 169 98-169c5-8 11-11 18-11h51c4 0 7 1 9 3 3 2 4 5 4 9 0 2-1 4-2 6l-137 243v131c0 4-2 7-4 10-3 3-7 4-11 4h-53zm-1465 6c-31 0-57-5-80-15-22-10-39-23-51-38-11-16-18-33-18-52 0-3 1-5 3-8 2-2 5-3 9-3h11c7 0 12 4 13 11 3 19 14 35 32 49 19 14 46 21 81 21 36 0 64-6 82-20 18-13 27-32 27-56 0-15-5-27-13-36-9-10-22-18-38-25-17-7-42-16-76-27-30-10-53-19-70-29-17-9-29-20-38-34-8-13-12-31-12-52 0-19 5-37 16-53s26-28 46-37c21-10 45-14 73-14s53 5 73 16c21 10 37 23 47 38 11 16 16 32 17 47 0 4-1 6-4 9-2 2-4 3-8 3h-12c-3 0-5-1-8-2-3-2-4-5-5-10-2-19-13-35-31-47-18-13-41-19-69-19-30 0-54 5-72 17-17 12-26 29-26 52 0 15 4 28 12 38s20 18 36 26c15 7 39 15 70 25 32 10 57 20 74 29 18 10 32 21 41 34s14 30 14 51c0 35-13 62-39 82-26 19-62 29-107 29zm242-6c-3 0-7-1-9-3-2-3-3-6-3-10V148c0-4 1-7 3-9 2-3 6-4 9-4h142c41 0 74 10 98 31s36 50 36 89-12 68-36 89-57 31-98 31H468v153c0 4-1 7-4 10-2 2-5 3-9 3h-11zm139-201c33 0 58-7 75-21 17-15 25-36 25-64s-8-49-25-63c-17-15-42-23-75-23H468v171h115z"/></g></g></g></g></svg>