<svg width="36" height="36" fill="none" xmlns="http://www.w3.org/2000/svg"><path fill-rule="evenodd" clip-rule="evenodd" d="M18 36c9.941 0 18-8.059 18-18S27.941 0 18 0 0 8.059 0 18s8.059 18 18 18z" fill="#E8ECEF"/><mask id="a" maskUnits="userSpaceOnUse" x="0" y="0" width="36" height="36"><path fill-rule="evenodd" clip-rule="evenodd" d="M18 36c9.941 0 18-8.059 18-18S27.941 0 18 0 0 8.059 0 18s8.059 18 18 18z" fill="#fff"/></mask><g mask="url(#a)"><rect width="36" height="36" fill="#4285F4"/></g><path d="M18 9.75A5.26 5.26 0 0012.75 15a5.27 5.27 0 002.32 4.36c-2.675 1.148-4.57 3.802-4.57 6.89H12c0-3.322 2.678-6 6-6s6 2.678 6 6h1.5c0-3.088-1.895-5.742-4.57-6.89A5.268 5.268 0 0023.25 15 5.26 5.26 0 0018 9.75zm0 1.5c2.08 0 3.75 1.67 3.75 3.75s-1.67 3.75-3.75 3.75-3.75-1.67-3.75-3.75 1.67-3.75 3.75-3.75z" fill="#fff"/></svg>