<svg width="468" height="350" viewBox="0 0 468 350" fill="none" xmlns="http://www.w3.org/2000/svg">
<path opacity="0.1" fill-rule="evenodd" clip-rule="evenodd" d="M266.735 49.0436C238.242 48.0575 211.105 38.8562 185.192 28.7921C159.279 18.7279 133.612 7.56314 105.801 2.2493C87.9139 -1.18466 67.4554 -1.66894 53.046 7.92415C39.1824 17.1518 34.6919 33.0977 32.2837 47.8638C30.4699 58.9845 29.4045 70.6908 34.3705 81.1028C37.8221 88.3317 43.9416 94.4072 48.1768 101.328C62.912 125.423 52.4957 155.131 36.5321 178.654C29.0479 189.686 20.3529 200.226 14.5724 211.959C8.79188 223.691 6.11955 237.163 11.178 249.147C16.1881 261.034 28.1321 269.944 41.0711 276.218C67.3497 288.963 98.3038 292.608 128.509 294.678C195.353 299.247 262.548 297.271 329.568 295.285C354.372 294.554 379.281 293.81 403.68 289.976C417.231 287.845 431.218 284.464 441.057 276.302C453.543 265.942 456.638 248.403 448.269 235.411C434.233 213.623 395.438 208.212 385.616 184.83C380.219 171.957 385.762 157.623 393.611 145.688C410.447 120.078 438.662 97.6122 440.146 68.3443C441.167 48.2424 427.603 28.1097 406.63 18.5958C384.648 8.62415 354.16 9.87886 337.95 26.3795C321.243 43.3776 291.887 49.9197 266.735 49.0436Z" fill="#4D7CFE"/>
<rect y="54.3619" width="114.25" height="114.25" fill="#E8E9ED"/>
<rect x="353.297" y="54.3619" width="114.25" height="114.25" fill="#E8E9ED"/>
<path opacity="0.5" fill-rule="evenodd" clip-rule="evenodd" d="M64.0081 14.1009L62.8679 12.9342C62.822 12.8829 62.7562 12.854 62.6874 12.855C62.6183 12.8528 62.552 12.8819 62.5069 12.9342L54.6264 20.8587L51.7559 17.9927C51.7093 17.9426 51.6439 17.9141 51.5754 17.9141C51.507 17.9141 51.4416 17.9426 51.3949 17.9927L50.2459 19.1418C50.1953 19.19 50.1666 19.2568 50.1666 19.3267C50.1666 19.3966 50.1953 19.4634 50.2459 19.5116L53.8647 23.126C54.059 23.3412 54.3285 23.4736 54.6176 23.4959C54.9031 23.4709 55.1702 23.3444 55.3704 23.1392L64.0125 14.4707C64.1067 14.3654 64.1067 14.2062 64.0125 14.1009H64.0081Z" fill="#3ACC6C"/>
<path opacity="0.5" fill-rule="evenodd" clip-rule="evenodd" d="M44.7045 13.0394C46.7846 8.01633 51.6859 4.74109 57.1227 4.74109C60.6874 4.73875 64.1068 6.15349 66.6278 8.6737C69.1489 11.1939 70.5647 14.6129 70.5636 18.1776C70.5653 23.6143 67.2917 28.5167 62.2693 30.5985C57.247 32.6802 51.4651 31.5314 47.6201 27.6877C43.7751 23.8439 42.6244 18.0624 44.7045 13.0394ZM68.5105 15.9082C67.4322 10.4722 62.6646 6.55449 57.1227 6.55053C54.037 6.54149 51.0758 7.76685 48.8988 9.95367C44.9801 13.8725 44.3749 20.0136 47.4531 24.622C50.5313 29.2304 56.436 31.0232 61.5568 28.9041C66.6776 26.7851 69.5889 21.3442 68.5105 15.9082Z" fill="#4D7CFE"/>
<path opacity="0.8" fill-rule="evenodd" clip-rule="evenodd" d="M152.248 51.6675L150.813 50.1971C150.755 50.1343 150.673 50.0991 150.588 50.1002C150.501 50.0966 150.417 50.1321 150.359 50.1971L140.44 60.1908L136.826 56.5807C136.768 56.5189 136.686 56.4838 136.601 56.4839C136.515 56.4836 136.432 56.5186 136.372 56.5807L134.924 58.0292C134.86 58.0891 134.824 58.1727 134.824 58.2603C134.824 58.3478 134.86 58.4315 134.924 58.4914L139.476 63.0348C139.722 63.305 140.063 63.4705 140.427 63.4971C140.783 63.4665 141.117 63.3105 141.369 63.0568L152.243 52.121C152.348 51.9929 152.348 51.8088 152.243 51.6807L152.248 51.6675Z" fill="#3ACC6C"/>
<path opacity="0.8" fill-rule="evenodd" clip-rule="evenodd" d="M126.656 56.8008C126.656 47.4568 134.231 39.882 143.575 39.882C148.062 39.8808 152.366 41.6629 155.54 44.8361C158.713 48.0092 160.495 52.3133 160.494 56.8008C160.494 66.1449 152.919 73.7197 143.575 73.7197C134.231 73.7197 126.656 66.1449 126.656 56.8008ZM157.929 53.9428C156.568 47.0936 150.558 42.1596 143.575 42.1581C139.689 42.145 135.959 43.6894 133.22 46.4461C128.283 51.3843 127.521 59.1225 131.4 64.9289C135.28 70.7353 142.72 72.9928 149.172 70.321C155.624 67.6492 159.29 60.7921 157.929 53.9428Z" fill="#4D7CFE"/>
<path opacity="0.5" fill-rule="evenodd" clip-rule="evenodd" d="M398.002 13.0394C400.082 8.01633 404.983 4.74109 410.42 4.74109C413.985 4.73875 417.404 6.15349 419.925 8.6737C422.446 11.1939 423.862 14.6129 423.861 18.1776C423.863 23.6143 420.589 28.5167 415.567 30.5985C410.544 32.6802 404.763 31.5314 400.918 27.6877C397.073 23.8439 395.922 18.0624 398.002 13.0394ZM421.808 15.9082C420.73 10.4722 415.962 6.55449 410.42 6.55053C407.334 6.54149 404.373 7.76685 402.196 9.95367C398.278 13.8725 397.672 20.0136 400.751 24.622C403.829 29.2304 409.733 31.0232 414.854 28.9041C419.975 26.7851 422.886 21.3442 421.808 15.9082Z" fill="#4D7CFE"/>
<path opacity="0.8" fill-rule="evenodd" clip-rule="evenodd" d="M306.455 56.8008C306.455 47.4568 314.03 39.882 323.374 39.882H323.352C327.843 39.875 332.153 41.6545 335.331 44.8283C338.508 48.0021 340.294 52.3095 340.292 56.8008C340.292 66.1449 332.718 73.7197 323.374 73.7197C314.03 73.7197 306.455 66.1449 306.455 56.8008ZM337.725 53.9266C336.356 47.0825 330.347 42.1572 323.369 42.1581C319.485 42.1493 315.759 43.6931 313.019 46.4461C308.08 51.3857 307.319 59.1269 311.202 64.9335C315.085 70.7401 322.529 72.9942 328.981 70.3168C335.433 67.6393 339.094 60.7763 337.725 53.9266Z" fill="#4D7CFE"/>
<path fill-rule="evenodd" clip-rule="evenodd" d="M210.669 88.3625C210.669 76.0083 220.684 65.9933 233.038 65.9933C238.971 65.9921 244.662 68.3485 248.857 72.5438C253.052 76.7391 255.409 82.4294 255.408 88.3625C255.408 100.717 245.393 110.732 233.038 110.732C220.684 110.732 210.669 100.717 210.669 88.3625ZM252 84.5848C250.205 75.5336 242.266 69.0108 233.038 69.0046C227.901 68.988 222.97 71.0284 219.347 74.6706C212.822 81.1956 211.814 91.4207 216.939 99.094C222.065 106.767 231.896 109.752 240.422 106.224C248.949 102.695 253.796 93.636 252 84.5848Z" fill="#4D7CFE"/>
<rect x="79.9144" y="84.3077" width="127.321" height="127.321" fill="#F3F5F7"/>
<rect x="259.691" y="84.3077" width="127.321" height="127.321" fill="#F3F5F7"/>
<rect opacity="0.1" x="11.4158" y="74.6443" width="42.4667" height="4.7195" fill="black"/>
<rect opacity="0.1" x="373.857" y="74.6443" width="42.4667" height="4.7195" fill="black"/>
<path d="M308.7 272.256C308.7 272.256 319.733 252.713 336.348 247.082C343.331 244.765 349.375 240.245 353.57 234.2C355.539 231.31 357.239 228.246 358.651 225.047" stroke="#535461" stroke-width="2"/>
<path fill-rule="evenodd" clip-rule="evenodd" d="M369.098 221.451C367.205 223.286 358.387 225.188 358.387 225.188C358.387 225.188 360.553 216.432 362.446 214.591C364.34 212.754 367.365 212.801 369.201 214.695C371.038 216.589 370.992 219.614 369.098 221.451Z" fill="#4D7CFE"/>
<path fill-rule="evenodd" clip-rule="evenodd" d="M364.11 237.291C361.521 237.806 353.104 234.61 353.104 234.61C353.104 234.61 359.677 228.446 362.265 227.922C364.822 227.475 367.268 229.152 367.773 231.699C368.278 234.245 366.657 236.728 364.123 237.291H364.11Z" fill="#4D7CFE"/>
<path fill-rule="evenodd" clip-rule="evenodd" d="M345.95 254.439C343.458 253.558 337.792 246.558 337.792 246.558C337.792 246.558 346.597 244.546 349.075 245.409C350.688 245.967 351.881 247.344 352.204 249.02C352.527 250.696 351.931 252.417 350.641 253.535C349.351 254.652 347.563 254.997 345.95 254.439Z" fill="#4D7CFE"/>
<path fill-rule="evenodd" clip-rule="evenodd" d="M329.308 264.313C326.702 263.873 319.931 257.925 319.931 257.925C319.931 257.925 328.26 254.461 330.862 254.888C332.559 255.151 333.984 256.305 334.594 257.91C335.204 259.515 334.906 261.325 333.813 262.649C332.72 263.973 331 264.609 329.308 264.313Z" fill="#4D7CFE"/>
<path fill-rule="evenodd" clip-rule="evenodd" d="M345.738 227.768C345.738 230.41 350.511 238.057 350.511 238.057C350.511 238.057 355.283 230.41 355.283 227.773C355.283 225.134 353.144 222.996 350.506 222.996C347.868 222.996 345.729 225.134 345.729 227.773L345.738 227.768Z" fill="#4D7CFE"/>
<path fill-rule="evenodd" clip-rule="evenodd" d="M326.398 239.576C327.186 242.094 334.032 247.967 334.032 247.967C334.032 247.967 336.304 239.241 335.516 236.723C335.006 235.094 333.666 233.861 332.001 233.488C330.336 233.115 328.598 233.659 327.442 234.914C326.286 236.17 325.888 237.947 326.398 239.576Z" fill="#4D7CFE"/>
<path fill-rule="evenodd" clip-rule="evenodd" d="M309.175 253.615C309.528 256.23 315.277 263.173 315.277 263.173C315.277 263.173 318.993 254.958 318.645 252.343C318.418 250.651 317.305 249.21 315.727 248.561C314.148 247.912 312.343 248.154 310.992 249.197C309.641 250.239 308.948 251.924 309.175 253.615Z" fill="#4D7CFE"/>
<path opacity="0.25" fill-rule="evenodd" clip-rule="evenodd" d="M369.098 221.451C367.205 223.286 358.387 225.188 358.387 225.188C358.387 225.188 360.553 216.432 362.446 214.591C364.34 212.754 367.365 212.801 369.201 214.695C371.038 216.589 370.992 219.614 369.098 221.451Z" fill="black"/>
<path opacity="0.25" fill-rule="evenodd" clip-rule="evenodd" d="M364.11 237.291C361.521 237.806 353.104 234.61 353.104 234.61C353.104 234.61 359.677 228.446 362.265 227.922C364.822 227.475 367.268 229.152 367.773 231.699C368.278 234.245 366.657 236.728 364.123 237.291H364.11Z" fill="black"/>
<path opacity="0.25" fill-rule="evenodd" clip-rule="evenodd" d="M345.95 254.439C343.458 253.558 337.792 246.558 337.792 246.558C337.792 246.558 346.597 244.546 349.075 245.409C350.688 245.967 351.881 247.344 352.204 249.02C352.527 250.696 351.931 252.417 350.641 253.535C349.351 254.652 347.563 254.997 345.95 254.439Z" fill="black"/>
<path opacity="0.25" fill-rule="evenodd" clip-rule="evenodd" d="M329.308 264.313C326.702 263.873 319.931 257.925 319.931 257.925C319.931 257.925 328.26 254.461 330.862 254.888C332.559 255.151 333.984 256.305 334.594 257.91C335.204 259.515 334.906 261.325 333.813 262.649C332.72 263.973 331 264.609 329.308 264.313Z" fill="black"/>
<path opacity="0.25" fill-rule="evenodd" clip-rule="evenodd" d="M345.738 227.768C345.738 230.41 350.511 238.057 350.511 238.057C350.511 238.057 355.283 230.41 355.283 227.773C355.283 225.134 353.144 222.996 350.506 222.996C347.868 222.996 345.729 225.134 345.729 227.773L345.738 227.768Z" fill="black"/>
<path opacity="0.25" fill-rule="evenodd" clip-rule="evenodd" d="M326.398 239.576C327.186 242.094 334.032 247.967 334.032 247.967C334.032 247.967 336.304 239.241 335.516 236.723C335.006 235.094 333.666 233.861 332.001 233.488C330.336 233.115 328.598 233.659 327.442 234.914C326.286 236.17 325.888 237.947 326.398 239.576Z" fill="black"/>
<path opacity="0.25" fill-rule="evenodd" clip-rule="evenodd" d="M309.175 253.615C309.528 256.23 315.277 263.173 315.277 263.173C315.277 263.173 318.993 254.958 318.645 252.343C318.418 250.651 317.305 249.21 315.727 248.561C314.148 247.912 312.343 248.154 310.992 249.197C309.641 250.239 308.948 251.924 309.175 253.615Z" fill="black"/>
<path d="M309.334 271.868C309.334 271.868 311.504 249.534 324.408 237.652C329.854 232.699 333.547 226.113 334.935 218.884C335.564 215.448 335.878 211.961 335.872 208.468" stroke="#535461" stroke-width="2"/>
<path fill-rule="evenodd" clip-rule="evenodd" d="M343.964 200.944C342.978 203.391 335.687 208.701 335.687 208.701C335.687 208.701 334.116 199.821 335.102 197.373C335.74 195.79 337.174 194.668 338.863 194.428C340.553 194.189 342.243 194.87 343.295 196.214C344.347 197.557 344.602 199.361 343.964 200.944Z" fill="#4D7CFE"/>
<path fill-rule="evenodd" clip-rule="evenodd" d="M345.822 217.449C343.665 218.968 334.662 219.465 334.662 219.465C334.662 219.465 338.184 211.153 340.328 209.639C342.483 208.218 345.378 208.767 346.863 210.878C348.349 212.99 347.888 215.9 345.822 217.449Z" fill="#4D7CFE"/>
<path fill-rule="evenodd" clip-rule="evenodd" d="M336.167 240.483C333.526 240.703 325.518 236.586 325.518 236.586C325.518 236.586 332.738 231.184 335.366 230.964C337.084 230.788 338.763 231.554 339.758 232.966C340.752 234.378 340.907 236.217 340.163 237.775C339.418 239.334 337.891 240.369 336.167 240.483Z" fill="#4D7CFE"/>
<path fill-rule="evenodd" clip-rule="evenodd" d="M324.941 256.266C322.383 256.926 313.781 254.223 313.781 254.223C313.781 254.223 319.988 247.681 322.542 247.016C325.072 246.413 327.619 247.945 328.273 250.463C328.926 252.98 327.445 255.558 324.941 256.261V256.266Z" fill="#4D7CFE"/>
<path fill-rule="evenodd" clip-rule="evenodd" d="M325.165 216.19C326.235 218.602 333.698 223.674 333.698 223.674C333.698 223.674 334.97 214.746 333.904 212.333C332.836 209.92 330.013 208.83 327.6 209.898C325.187 210.967 324.097 213.79 325.165 216.203V216.19Z" fill="#4D7CFE"/>
<path fill-rule="evenodd" clip-rule="evenodd" d="M312.266 234.812C314.027 236.793 322.647 239.391 322.647 239.391C322.647 239.391 321.186 230.489 319.447 228.508C317.706 226.525 314.687 226.329 312.704 228.07C310.721 229.811 310.525 232.829 312.266 234.812Z" fill="#4D7CFE"/>
<path fill-rule="evenodd" clip-rule="evenodd" d="M302.215 254.632C303.593 256.882 311.667 260.902 311.667 260.902C311.667 260.902 311.738 251.881 310.347 249.631C308.965 247.383 306.024 246.681 303.776 248.062C301.528 249.443 300.825 252.384 302.206 254.632H302.215Z" fill="#4D7CFE"/>
<rect opacity="0.1" x="96.3491" y="111.484" width="42.4667" height="4.7195" fill="black"/>
<rect opacity="0.1" x="174.604" y="152.969" width="25.3541" height="4.7195" fill="black"/>
<rect opacity="0.1" x="174.604" y="184.641" width="37.5447" height="4.7195" fill="black"/>
<rect opacity="0.1" x="96.3491" y="128.117" width="42.4667" height="4.7195" fill="black"/>
<rect opacity="0.1" x="287.449" y="111.484" width="42.4667" height="4.7195" fill="black"/>
<rect opacity="0.1" x="287.449" y="128.117" width="42.4667" height="4.7195" fill="black"/>
<path fill-rule="evenodd" clip-rule="evenodd" d="M227.02 94.9399L228.209 93.3814C229.352 94.5019 230.887 95.1335 232.488 95.1424C234.496 95.1424 235.984 94.1607 235.984 92.5714C235.984 90.8456 234.557 89.7097 230.604 89.7097V87.9179C234.126 87.9179 235.447 86.76 235.447 85.2324C235.447 83.85 234.262 82.9871 232.506 82.9871C231.137 83.0274 229.83 83.5623 228.825 84.4927L227.562 82.9871C228.95 81.746 230.741 81.05 232.603 81.028C235.645 81.028 237.886 82.4896 237.886 85.0519C237.886 86.8569 236.565 88.0368 234.663 88.6883V88.7852C236.701 89.2254 238.409 90.577 238.409 92.6858C238.409 95.4682 235.768 97.1368 232.651 97.1368C230.001 97.1324 228.182 96.1242 227.02 94.9399Z" fill="#4D7CFE"/>
<g opacity="0.8">
<path fill-rule="evenodd" clip-rule="evenodd" d="M324.756 54.3707C324.756 53.5254 324.831 52.4468 324.875 51.6016H324.765C324.28 52.35 323.73 53.094 323.237 53.838L319.715 58.355H329.066V60.1732H317.302V58.6324L324.325 49.3871H326.909V64.0871H324.756V54.3707Z" fill="#4D7CFE"/>
</g>
<g opacity="0.5">
<path fill-rule="evenodd" clip-rule="evenodd" d="M405.846 22.8399L406.643 21.7525C407.413 22.5076 408.448 22.9325 409.526 22.9368C410.944 22.9368 412.058 22.0915 412.058 20.7047C412.058 19.3179 411.076 18.5695 409.619 18.5695C408.881 18.5633 408.158 18.7763 407.541 19.1814L406.713 18.6487L407.048 13.4493H413.211V14.8802H408.501L408.241 17.7286C408.815 17.4681 409.438 17.3359 410.068 17.3412C412.089 17.3412 413.735 18.3802 413.735 20.6783C413.735 22.9764 411.807 24.3192 409.725 24.3192C408.286 24.3614 406.891 23.8291 405.846 22.8399Z" fill="#4D7CFE"/>
</g>
<rect opacity="0.1" x="152.838" y="124.732" width="157.386" height="157.386" fill="#4D7CFE"/>
<rect x="158.121" y="117.247" width="157.386" height="157.386" fill="white"/>
<rect opacity="0.5" x="174.604" y="134.681" width="124.415" height="4.7195" fill="#4D7CFE"/>
<rect opacity="0.1" x="174.604" y="168.805" width="79.2233" height="4.7195" fill="black"/>
<rect opacity="0.1" x="174.604" y="200.481" width="76.8679" height="4.7195" fill="black"/>
<rect opacity="0.1" x="174.604" y="216.317" width="104.784" height="4.7195" fill="black"/>
<path opacity="0.5" fill-rule="evenodd" clip-rule="evenodd" d="M276.267 169.223L275.725 168.664C275.701 168.642 275.67 168.63 275.637 168.629C275.606 168.629 275.576 168.642 275.553 168.664L271.798 172.451L270.429 171.081C270.405 171.06 270.373 171.047 270.341 171.046C270.31 171.047 270.28 171.06 270.257 171.081L269.707 171.632C269.683 171.655 269.67 171.687 269.67 171.72C269.67 171.753 269.683 171.785 269.707 171.808L271.433 173.529C271.527 173.631 271.655 173.694 271.794 173.705C271.93 173.694 272.057 173.633 272.15 173.534L276.267 169.4C276.308 169.348 276.308 169.275 276.267 169.223Z" fill="#3ACC6C"/>
<path opacity="0.5" fill-rule="evenodd" clip-rule="evenodd" d="M267.065 168.707C268.058 166.313 270.395 164.753 272.987 164.755V164.764C276.519 164.764 279.383 167.624 279.388 171.156C279.39 173.748 277.83 176.085 275.436 177.078C273.042 178.07 270.285 177.523 268.453 175.69C266.62 173.858 266.073 171.101 267.065 168.707ZM278.431 170.076C277.913 167.48 275.634 165.612 272.987 165.613C271.516 165.61 270.105 166.195 269.069 167.238C267.197 169.11 266.908 172.043 268.379 174.243C269.85 176.444 272.67 177.299 275.115 176.285C277.56 175.271 278.949 172.671 278.431 170.076Z" fill="#3ACC6C"/>
<path opacity="0.5" fill-rule="evenodd" clip-rule="evenodd" d="M276.267 200.895L275.725 200.341C275.702 200.317 275.67 200.304 275.637 200.305C275.605 200.304 275.575 200.317 275.553 200.341L271.798 204.122L270.429 202.758C270.406 202.733 270.374 202.719 270.341 202.718C270.309 202.719 270.278 202.733 270.257 202.758L269.707 203.303C269.683 203.327 269.67 203.358 269.67 203.391C269.67 203.425 269.683 203.456 269.707 203.48L271.433 205.205C271.527 205.307 271.655 205.37 271.794 205.381C271.929 205.368 272.055 205.307 272.15 205.21L276.267 201.071C276.308 201.02 276.308 200.947 276.267 200.895Z" fill="#3ACC6C"/>
<path opacity="0.5" fill-rule="evenodd" clip-rule="evenodd" d="M267.066 200.382C268.058 197.989 270.396 196.429 272.987 196.431C274.685 196.431 276.314 197.106 277.515 198.307C278.715 199.509 279.389 201.138 279.388 202.837C279.388 205.428 277.827 207.764 275.433 208.755C273.039 209.746 270.283 209.198 268.451 207.365C266.62 205.532 266.073 202.776 267.066 200.382ZM278.431 201.774C277.913 199.178 275.634 197.31 272.987 197.312C271.516 197.308 270.105 197.893 269.069 198.936C267.197 200.808 266.908 203.741 268.379 205.941C269.85 208.142 272.67 208.997 275.115 207.983C277.56 206.969 278.949 204.369 278.431 201.774Z" fill="#3ACC6C"/>
<path opacity="0.1" fill-rule="evenodd" clip-rule="evenodd" d="M225.633 349.718C242.996 349.718 257.072 347.357 257.072 344.444C257.072 341.531 242.996 339.169 225.633 339.169C208.27 339.169 194.195 341.531 194.195 344.444C194.195 347.357 208.27 349.718 225.633 349.718Z" fill="#4D7CFE"/>
<path fill-rule="evenodd" clip-rule="evenodd" d="M57.6333 305.257C57.6333 305.257 59.271 307.401 56.8761 310.641C54.4811 313.881 52.5 316.611 53.3012 318.632C53.3012 318.632 56.9157 312.618 59.861 312.534C62.8063 312.451 60.8692 308.876 57.6333 305.257Z" fill="#4D7CFE"/>
<path opacity="0.1" fill-rule="evenodd" clip-rule="evenodd" d="M57.6334 305.257C57.776 305.465 57.8886 305.691 57.968 305.93C60.8384 309.307 62.3705 312.455 59.6101 312.534C57.039 312.609 53.9529 317.205 53.2133 318.368C53.2366 318.457 53.266 318.546 53.3013 318.632C53.3013 318.632 56.9158 312.618 59.8611 312.534C62.8063 312.451 60.8692 308.876 57.6334 305.257Z" fill="black"/>
<path fill-rule="evenodd" clip-rule="evenodd" d="M60.6798 307.991C60.6798 308.748 60.5962 309.36 60.4905 309.36C60.3849 309.36 60.3012 308.748 60.3012 307.991C60.3012 307.234 60.4069 307.59 60.5125 307.59C60.6182 307.59 60.6798 307.238 60.6798 307.991Z" fill="#FFD037"/>
<path fill-rule="evenodd" clip-rule="evenodd" d="M61.7277 308.893C61.0629 309.254 60.4862 309.474 60.4378 309.382C60.3893 309.29 60.878 308.942 61.5472 308.559C62.2164 308.176 61.9478 308.462 61.9874 308.559C62.0271 308.656 62.3881 308.532 61.7277 308.893Z" fill="#FFD037"/>
<path fill-rule="evenodd" clip-rule="evenodd" d="M48.9692 305.257C48.9692 305.257 47.327 307.401 49.7264 310.641C52.1258 313.881 54.0981 316.611 53.3013 318.632C53.3013 318.632 49.6824 312.618 46.7415 312.534C43.8006 312.451 45.7289 308.876 48.9692 305.257Z" fill="#4D7CFE"/>
<path opacity="0.1" fill-rule="evenodd" clip-rule="evenodd" d="M48.9692 305.257C48.8266 305.465 48.7139 305.691 48.6346 305.93C45.7597 309.307 44.2321 312.455 46.9925 312.534C49.5635 312.609 52.6497 317.205 53.3893 318.368C53.3629 318.456 53.3365 318.544 53.3013 318.632C53.3013 318.632 49.6824 312.618 46.7415 312.534C43.8006 312.451 45.7289 308.876 48.9692 305.257Z" fill="black"/>
<path fill-rule="evenodd" clip-rule="evenodd" d="M45.9183 307.991C45.9183 308.748 46.0019 309.36 46.1076 309.36C46.2132 309.36 46.2969 308.748 46.2969 307.991C46.2969 307.234 46.1912 307.59 46.0856 307.59C45.9799 307.59 45.9183 307.238 45.9183 307.991Z" fill="#FFD037"/>
<path fill-rule="evenodd" clip-rule="evenodd" d="M44.8748 308.893C45.5352 309.254 46.1119 309.474 46.1648 309.382C46.2176 309.29 45.7245 308.942 45.0553 308.559C44.3861 308.176 44.6547 308.462 44.6151 308.559C44.5754 308.656 44.21 308.532 44.8748 308.893Z" fill="#FFD037"/>
<path opacity="0.1" fill-rule="evenodd" clip-rule="evenodd" d="M53.3012 335.04C62.7717 335.04 70.449 333.861 70.449 332.407C70.449 330.953 62.7717 329.774 53.3012 329.774C43.8308 329.774 36.1534 330.953 36.1534 332.407C36.1534 333.861 43.8308 335.04 53.3012 335.04Z" fill="#4D7CFE"/>
<path fill-rule="evenodd" clip-rule="evenodd" d="M62.1283 315.739L62.0446 316.413L61.9302 317.355L61.8818 317.751L61.7673 318.698L61.7189 319.094L61.6 320.036L60.2792 330.796C60.1648 331.756 58.5931 332.504 56.7 332.504H49.8893C47.9962 332.504 46.4289 331.756 46.3145 330.796L44.9937 320.036L44.8792 319.094L44.8308 318.698L44.7163 317.751L44.6679 317.355L44.5534 316.413L44.4654 315.739C44.3994 315.198 45.249 314.74 46.3189 314.74H60.266C61.3446 314.74 62.1943 315.198 62.1283 315.739Z" fill="#65617D"/>
<path fill-rule="evenodd" clip-rule="evenodd" d="M62.0447 316.408L61.9302 317.355H44.6723L44.5535 316.408H62.0447Z" fill="#9D9CB5"/>
<path fill-rule="evenodd" clip-rule="evenodd" d="M61.8817 317.751L61.7672 318.698H44.8352L44.7207 317.751H61.8817Z" fill="#9D9CB5"/>
<path fill-rule="evenodd" clip-rule="evenodd" d="M61.7189 319.09L61.6 320.036H44.9981L44.8837 319.09H61.7189Z" fill="#9D9CB5"/>
<path opacity="0.1" fill-rule="evenodd" clip-rule="evenodd" d="M257.477 194.939C257.477 194.939 259.823 202.7 260.118 203.303C260.413 203.915 260.682 207.715 258.507 209.705C257.866 210.208 257.04 210.41 256.24 210.259C255.854 210.779 255.411 211.253 254.919 211.673H253.752L243.499 211.778C243.499 211.778 240.179 211.466 240.417 215.023C240.655 218.58 239.149 223.084 239.149 223.084C239.149 223.084 238.92 225.734 239.07 226.245C239.216 226.744 238.779 228.653 238.692 229.029L238.687 229.054V229.093C238.687 229.093 238.348 230.418 238.788 230.885C238.826 230.929 238.872 230.965 238.924 230.991C239.558 231.308 240.509 234.39 240.509 234.39C241.002 234.987 241.254 235.747 241.218 236.52C241.139 237.788 241.614 240.791 243.67 242.53C245.726 244.269 247.862 248.381 247.862 248.381C247.862 248.381 247.615 251.251 245.295 252.995C245.304 253.093 245.314 253.186 245.323 253.279C245.336 253.404 245.348 253.528 245.361 253.664C245.748 258.37 245.097 267.637 243.64 271.274C241.876 275.663 240.117 289.697 239.686 293.134C239.653 293.396 239.628 293.597 239.611 293.727C239.374 295.562 239.431 303.091 239.431 303.091C239.431 303.091 238.995 319.27 238.955 321.581C238.916 323.893 237.194 329.704 237.194 329.704C237.194 329.704 236.604 334.564 236.899 336.167C237.102 337.259 236.67 339.57 236.375 340.926L236.49 340.851C236.569 340.794 236.648 340.737 236.723 340.671C236.747 340.654 236.769 340.635 236.789 340.613C237.426 340.088 238.326 340.025 239.029 340.458C239.732 340.891 240.081 341.724 239.897 342.529C239.86 342.685 239.817 342.847 239.772 343.014L239.748 343.105C239.442 344.133 238.994 344.456 238.139 345.072C237.467 345.556 236.543 346.221 235.24 347.552C233.738 349.158 231.47 349.8 229.349 349.22C229.016 349.13 228.794 348.816 228.821 348.472L229.191 343.568L229.226 343.127C228.979 342.982 228.838 342.881 228.838 342.881C228.838 342.881 227.711 337.426 228.896 336.061C230.08 334.696 228.482 330.488 228.482 330.488C228.482 330.488 229.076 308.603 229.252 307.595C229.428 306.586 228.543 303.505 227.711 300.956C226.879 298.406 228.187 288.329 228.482 286.489C228.777 284.649 228.367 276.293 228.068 274.571C227.769 272.85 228.42 265.678 228.42 265.678C227.236 262.121 226.289 265.322 226.289 265.322L225.285 274.567L224.277 293.661C224.277 293.661 224.396 299.485 223.507 301.145C222.618 302.805 221.847 307.071 221.847 307.071L222.261 328.643C222.261 328.643 222.204 333.151 222.499 334.868C222.644 335.7 222.494 337.149 222.305 338.469C222.971 338.141 223.767 338.226 224.349 338.687C224.932 339.148 225.197 339.903 225.03 340.627C224.997 340.781 224.955 340.939 224.911 341.102C224.902 341.134 224.894 341.166 224.885 341.199C224.579 342.23 224.131 342.552 223.276 343.167C222.604 343.651 221.68 344.315 220.377 345.645C218.876 347.253 216.607 347.896 214.486 347.314C214.152 347.226 213.929 346.91 213.958 346.566L214.279 342.304C213.936 341.899 213.654 341.529 213.465 341.261C213.639 341.349 213.818 341.425 214.002 341.49C213.713 341.136 213.442 340.767 213.192 340.384C213.192 340.384 213.425 339.077 213.901 338.901C214.376 338.725 213.747 335.537 213.368 334.987C212.989 334.437 213.43 330.584 213.43 330.584C213.43 330.584 213.011 327.084 212.36 322.876C211.708 318.667 211.889 302.422 212.302 301.413C212.716 300.405 213.073 295.721 213.073 295.721C213.073 295.721 212.597 293.053 213.192 291.156C213.608 289.826 212.743 285.499 212.188 282.722C211.951 281.535 211.77 280.631 211.77 280.365C211.77 279.476 211.021 273.964 210.581 273.369C210.309 272.859 210.167 272.288 210.167 271.71C210.167 271.71 210.11 270.525 209.102 266.968C208.384 264.371 208.816 259.251 209.102 256.671C209.134 256.415 209.161 256.186 209.181 255.984C208.508 255.777 208.301 255.297 208.701 254.712C208.91 254.359 209.046 253.968 209.102 253.562C208.436 252.667 207.847 251.717 207.341 250.723C206.553 249.041 205.602 242.358 205.602 242.358C205.782 241.257 205.575 236.278 205.465 233.905C205.267 233.87 205.074 233.83 204.893 233.782C202.583 233.199 203.159 230.842 203.394 229.879C203.425 229.752 203.45 229.649 203.462 229.578C203.475 229.491 203.502 229.306 203.54 229.052C203.746 227.676 204.255 224.283 204.255 223.647C204.255 222.895 204.255 219.804 204.136 218.391C204.017 216.978 204.726 213.015 204.726 213.015C204.726 213.015 204.73 203.074 210.497 201.895C210.563 200.716 210.493 199.535 210.291 198.373L210.238 198.874C210.115 198.061 209.912 197.261 209.63 196.488C209.408 195.879 209.133 195.271 208.857 194.663C208.104 193.001 207.35 191.336 207.689 189.625C207.786 189.165 207.946 188.72 208.164 188.304L208.195 188.374C208.844 187.014 210.084 185.832 211.319 184.655C211.826 184.172 212.332 183.69 212.796 183.197C214.788 181.143 216.111 178.534 216.591 175.713C216.63 175.475 216.661 175.235 216.693 174.995C216.816 174.071 216.94 173.143 217.471 172.318C222.279 164.878 238.163 173.564 241.685 177.601C244.731 181.093 245.264 186.138 241.905 189.396C241.733 189.572 241.553 189.744 241.355 189.911C241.23 190.016 241.101 190.12 240.973 190.223C240.692 190.449 240.41 190.676 240.166 190.923C240.058 191.035 239.961 191.155 239.875 191.284C239.531 191.887 239.395 192.587 239.488 193.274C239.629 195.162 240.429 196.954 241.23 198.749C241.502 199.357 241.773 199.965 242.019 200.578C243.301 200.75 244.745 201.054 245 201.564C245.616 201.891 246.286 202.105 246.977 202.198C247.075 202.198 247.185 202.198 247.305 202.197C248.088 202.192 249.236 202.185 249.618 202.357C249.679 202.383 249.746 202.392 249.812 202.383C250.199 202.344 250.604 201.762 250.604 201.762C250.604 201.762 251.036 201.762 251.701 201.806L252.211 199.024C252.211 199.024 250.64 194.181 250.772 192.861C250.904 191.54 248.319 184.936 248.319 184.936C248.319 184.936 242.024 175.893 246.118 172.125C250.213 168.356 252.955 183.461 252.955 183.461L257.477 194.939ZM212.509 232.316L212.435 234.121V234.117C212.435 234.117 212.201 234.139 211.783 234.165L211.884 235.195C211.93 235.162 211.979 235.132 212.03 235.107C212.46 234.924 212.784 234.554 212.91 234.103C213.032 233.63 213.032 233.133 212.91 232.659L212.509 232.316Z" fill="black"/>
<path fill-rule="evenodd" clip-rule="evenodd" d="M250.899 206.803C250.899 206.803 256.737 210.559 258.947 208.564C261.157 206.57 260.884 202.722 260.585 202.115C260.286 201.507 257.908 193.693 257.908 193.693L253.316 182.123C253.316 182.123 250.525 166.895 246.36 170.676C242.196 174.458 248.606 183.589 248.606 183.589C248.606 183.589 251.247 190.25 251.097 191.584C250.948 192.918 252.559 197.805 252.559 197.805L250.899 206.803Z" fill="url(#paint0_linear)"/>
<path fill-rule="evenodd" clip-rule="evenodd" d="M240.012 342.476C239.968 342.665 239.92 342.859 239.858 343.057C239.316 344.91 238.291 344.492 235.279 347.539C233.747 349.162 231.445 349.808 229.292 349.22C228.955 349.132 228.729 348.815 228.755 348.468L229.133 343.524L229.314 341.142C229.314 341.142 234.108 342.489 236.552 340.785C236.631 340.728 236.71 340.671 236.785 340.605L236.855 340.547C237.5 340.02 238.407 339.957 239.118 340.391C239.829 340.825 240.187 341.662 240.012 342.476Z" fill="url(#paint1_linear)"/>
<path fill-rule="evenodd" clip-rule="evenodd" d="M224.969 340.609C224.929 340.798 224.876 340.992 224.819 341.19C224.277 343.044 223.252 342.625 220.24 345.672C218.707 347.293 216.407 347.941 214.253 347.358C213.913 347.271 213.685 346.951 213.716 346.601L214.09 341.657L214.275 339.275C214.275 339.275 219.069 340.622 221.508 338.918C221.592 338.861 221.667 338.804 221.746 338.738L221.816 338.681C222.46 338.151 223.368 338.087 224.079 338.522C224.791 338.957 225.148 339.795 224.969 340.609Z" fill="url(#paint2_linear)"/>
<g opacity="0.1">
<path fill-rule="evenodd" clip-rule="evenodd" d="M220.003 341.353L220.201 343.92C217.445 346.649 214.169 342.599 213.201 341.252C215.723 342.546 220.003 341.353 220.003 341.353Z" fill="url(#paint3_linear)"/>
</g>
<g opacity="0.1">
<path fill-rule="evenodd" clip-rule="evenodd" d="M236.182 342.396L236.547 342.159C234.029 345.954 230.296 344.202 229.133 343.524L229.314 341.142C229.314 341.142 234.108 342.489 236.552 340.785C236.358 341.714 236.182 342.396 236.182 342.396Z" fill="url(#paint4_linear)"/>
</g>
<path fill-rule="evenodd" clip-rule="evenodd" d="M243.838 270.609C241.909 275.39 239.981 291.411 239.739 293.264C239.497 295.118 239.558 302.708 239.558 302.708L239.057 321.357C238.999 323.69 237.252 329.546 237.252 329.546C237.252 329.546 236.648 334.45 236.948 336.061C237.247 337.673 236.164 341.921 236.164 341.921L236.53 341.683C233.514 346.222 228.755 342.815 228.755 342.815C228.755 342.815 227.61 337.316 228.812 335.942C230.014 334.569 228.394 330.325 228.394 330.325C228.394 330.325 228.992 308.268 229.177 307.251C229.362 306.234 228.491 303.126 227.61 300.555C226.73 297.984 228.09 287.823 228.394 285.969C228.697 284.116 228.27 275.69 227.953 273.955C227.636 272.22 228.314 264.987 228.314 264.987C227.108 261.403 226.144 264.63 226.144 264.63L225.18 274.017L224.189 293.286C224.189 293.286 224.313 299.142 223.406 300.815C222.499 302.488 221.719 306.793 221.719 306.793L222.16 328.551C222.16 328.551 222.098 333.094 222.402 334.829C222.706 336.563 221.737 341.045 221.737 341.045C218.365 348.934 212.932 340.389 212.932 340.389C212.932 340.389 213.17 339.068 213.654 338.892C214.138 338.716 213.474 335.485 213.113 334.93C212.752 334.375 213.17 330.527 213.17 330.527C213.17 330.527 212.752 327.005 212.087 322.752C211.422 318.5 211.607 302.131 212.025 301.114C212.443 300.097 212.809 295.391 212.809 295.391C212.809 295.391 212.329 292.701 212.932 290.786C213.535 288.871 211.484 280.805 211.484 279.907C211.484 279.009 210.7 273.453 210.277 272.863C209.994 272.351 209.842 271.776 209.837 271.19C209.837 271.19 209.775 269.993 208.75 266.409C208.001 263.768 208.442 258.625 208.75 256.028C208.855 255.064 208.943 254.452 208.943 254.452C208.943 254.452 243.534 248.891 244.921 250.151C245.247 250.441 245.462 251.471 245.586 252.907C245.977 257.6 245.313 266.946 243.838 270.609Z" fill="url(#paint5_linear)"/>
<g opacity="0.1">
<path fill-rule="evenodd" clip-rule="evenodd" d="M230.758 297.529C230.921 297.529 234.72 297.894 236.142 297.574C237.564 297.254 230.758 297.529 230.758 297.529Z" fill="url(#paint6_linear)"/>
</g>
<g opacity="0.1">
<path fill-rule="evenodd" clip-rule="evenodd" d="M231.04 299.718C231.04 299.718 236.323 300.634 236.587 300.159C236.851 299.683 231.04 299.718 231.04 299.718Z" fill="url(#paint7_linear)"/>
</g>
<g opacity="0.1">
<path fill-rule="evenodd" clip-rule="evenodd" d="M214.931 298.763C214.931 298.763 217.66 298.882 219.148 299.56C220.636 300.238 214.931 298.763 214.931 298.763Z" fill="url(#paint8_linear)"/>
</g>
<path fill-rule="evenodd" clip-rule="evenodd" d="M205.008 231.735C205.008 231.735 205.448 240.064 205.21 241.535C205.21 241.535 206.174 248.271 206.971 249.983C207.69 251.349 208.538 252.644 209.503 253.849L211.871 237.313L211.321 231.651L205.008 231.735Z" fill="url(#paint9_linear)"/>
<path fill-rule="evenodd" clip-rule="evenodd" d="M229.917 193.794C235.042 193.794 239.197 189.672 239.197 184.588C239.197 179.504 235.042 175.383 229.917 175.383C224.791 175.383 220.636 179.504 220.636 184.588C220.636 189.672 224.791 193.794 229.917 193.794Z" fill="url(#paint10_linear)"/>
<path fill-rule="evenodd" clip-rule="evenodd" d="M225.096 188.894C225.096 188.894 222.204 194.512 219.311 197.144C216.419 199.777 236.666 202.762 237.146 202.762C237.626 202.762 233.531 190.809 234.254 189.374C234.976 187.939 225.096 188.894 225.096 188.894Z" fill="url(#paint11_linear)"/>
<g opacity="0.1">
<path fill-rule="evenodd" clip-rule="evenodd" d="M245.585 252.862C245.131 253.208 244.63 253.486 244.097 253.69C240.404 255.125 236.384 257.12 233.65 256.332C230.916 255.544 225.136 256.332 225.136 256.332C225.136 256.332 213.482 255.372 211.153 255.931C210.372 256.168 209.542 256.19 208.75 255.993C208.855 255.028 208.943 254.417 208.943 254.417C208.943 254.417 243.534 248.856 244.921 250.115C245.246 250.397 245.462 251.414 245.585 252.862Z" fill="url(#paint12_linear)"/>
</g>
<path fill-rule="evenodd" clip-rule="evenodd" d="M248.117 247.553C248.117 247.553 247.796 251.515 244.097 252.973C240.399 254.43 236.384 256.402 233.65 255.614C230.916 254.826 225.136 255.614 225.136 255.614C225.136 255.614 213.482 254.654 211.153 255.214C208.825 255.773 207.631 255.055 208.34 254.016C209.049 252.977 208.987 249.556 208.987 248.121C208.987 246.686 208.182 240.866 208.904 239.831C209.626 238.797 210.269 234.812 211.717 234.174C212.156 233.991 212.488 233.619 212.62 233.161C212.746 232.684 212.746 232.182 212.62 231.704C212.62 231.704 212.377 231.506 212.038 231.207C211.189 230.454 209.745 229.054 210.207 228.596C210.85 227.958 210.207 223.81 210.207 223.81C210.207 223.81 208.679 220.623 209.243 219.43C209.806 218.237 204.343 211.946 204.343 211.946C204.343 211.946 204.343 201.107 210.947 200.627C210.947 200.627 215.604 200.79 216.168 198.716C216.731 196.642 220.425 195.445 220.425 195.445L228.86 197.281C228.86 197.281 236.345 198.875 237.701 197.919C239.057 196.964 240.113 199.191 240.113 199.191C240.113 199.191 244.771 199.434 245.255 200.389C245.74 201.344 243.728 210.669 243.728 210.669C243.728 210.669 240.351 210.352 240.593 213.94C240.835 217.528 239.308 222.067 239.308 222.067C239.308 222.067 239.065 224.708 239.228 225.254C239.391 225.8 238.911 227.773 238.836 228.085V228.125C238.836 228.125 238.502 229.446 238.938 229.934C238.98 229.976 239.027 230.011 239.079 230.04C239.721 230.357 240.686 233.465 240.686 233.465C241.188 234.067 241.447 234.835 241.412 235.618C241.333 236.895 241.813 239.919 243.899 241.676C245.986 243.432 248.117 247.553 248.117 247.553Z" fill="url(#paint13_linear)"/>
<path fill-rule="evenodd" clip-rule="evenodd" d="M212.276 229.102V229.441L212.126 233.17C212.126 233.17 207.187 233.566 204.492 232.888C201.798 232.21 202.938 229.265 203.044 228.649C203.123 228.09 203.845 223.427 203.845 222.67C203.845 221.913 203.845 218.805 203.726 217.387C203.608 215.969 204.33 211.968 204.33 211.968L204.849 211.329L210.515 213.482L212.276 229.102Z" fill="url(#paint14_linear)"/>
<g opacity="0.1">
<path fill-rule="evenodd" clip-rule="evenodd" d="M212.267 229.45L212.118 233.179C212.118 233.179 207.178 233.575 204.484 232.897C201.789 232.219 202.93 229.274 203.035 228.657L212.267 229.45Z" fill="url(#paint15_linear)"/>
</g>
<g opacity="0.1">
<path fill-rule="evenodd" clip-rule="evenodd" d="M212.642 233.152C212.768 232.675 212.768 232.173 212.642 231.695C212.642 231.695 212.399 231.497 212.06 231.198C216.318 230.612 233.166 228.314 238.845 228.068V228.107C238.845 228.107 238.511 229.428 238.947 229.917L212.642 233.152Z" fill="url(#paint16_linear)"/>
</g>
<g opacity="0.1">
<path fill-rule="evenodd" clip-rule="evenodd" d="M239.44 236.054C239.44 236.054 240.483 241.913 236.587 243.978C236.587 243.978 238.797 241.059 239.44 236.054Z" fill="url(#paint17_linear)"/>
</g>
<g opacity="0.1">
<path fill-rule="evenodd" clip-rule="evenodd" d="M213.927 244.128C213.927 244.128 223.326 242.534 225.175 243.767C227.024 245 213.927 244.128 213.927 244.128Z" fill="url(#paint18_linear)"/>
</g>
<g opacity="0.1">
<path fill-rule="evenodd" clip-rule="evenodd" d="M236.182 207.825C236.182 207.825 234.738 213.72 235.821 215.076C236.904 216.432 236.182 207.825 236.182 207.825Z" fill="url(#paint19_linear)"/>
</g>
<g opacity="0.1">
<path fill-rule="evenodd" clip-rule="evenodd" d="M208.943 203C208.943 203 210.264 205.201 209.467 207.464C208.67 209.727 208.943 203 208.943 203Z" fill="url(#paint20_linear)"/>
</g>
<path fill-rule="evenodd" clip-rule="evenodd" d="M206.214 222.208C206.214 222.208 207.9 223.207 207.337 224.761C206.773 226.315 206.214 222.208 206.214 222.208Z" fill="url(#paint21_linear)"/>
<g opacity="0.1">
<path fill-rule="evenodd" clip-rule="evenodd" d="M206.038 217.664C206.038 217.664 207.605 218.505 207.799 219.738C207.992 220.971 206.038 217.664 206.038 217.664Z" fill="url(#paint22_linear)"/>
</g>
<g opacity="0.1">
<path fill-rule="evenodd" clip-rule="evenodd" d="M229.274 265.326C229.274 265.326 239.118 266.325 241.086 264.005C241.086 264.014 232.206 265.766 229.274 265.326Z" fill="url(#paint23_linear)"/>
</g>
<g opacity="0.1">
<path fill-rule="evenodd" clip-rule="evenodd" d="M212.281 264.771C212.281 264.771 222.847 267.241 224.933 265.286C224.933 265.286 215.855 265.964 212.281 264.771Z" fill="url(#paint24_linear)"/>
</g>
<g opacity="0.1">
<path fill-rule="evenodd" clip-rule="evenodd" d="M230.036 268.618C230.036 268.618 234.438 268.618 236.503 268.753C238.568 268.888 230.036 268.618 230.036 268.618Z" fill="url(#paint25_linear)"/>
</g>
<g opacity="0.1">
<path fill-rule="evenodd" clip-rule="evenodd" d="M213.003 270.428C213.003 270.428 215.173 272.859 217.621 272.423C220.069 271.987 213.003 270.428 213.003 270.428Z" fill="url(#paint26_linear)"/>
</g>
<path fill-rule="evenodd" clip-rule="evenodd" d="M217.264 170.896C216.582 171.944 216.56 173.155 216.384 174.317C215.899 177.174 214.553 179.814 212.527 181.885C210.599 183.919 207.953 185.759 207.455 188.242C206.984 190.602 208.587 192.869 209.428 195.163C211.629 201.217 208.547 207.561 207.645 213.808C207.398 215.534 207.697 217.739 209.846 218.312C210.515 218.492 211.281 218.47 211.88 218.752C212.69 219.135 212.936 219.932 213.086 220.649C213.622 223.214 213.808 225.84 213.636 228.455C213.54 229.925 213.434 231.612 214.83 232.62C215.542 233.059 216.325 233.369 217.145 233.535C219.347 234.125 222.195 234.596 223.679 233.218C224.304 232.642 224.559 231.823 225.312 231.365C226.474 230.683 228.125 231.145 229.591 231.215C232.413 231.336 235.077 229.917 236.552 227.508C237.736 225.391 237.635 222.978 237.194 220.698C236.754 218.417 235.997 216.163 235.94 213.856C235.871 213.048 236.053 212.238 236.459 211.536C237.34 210.163 239.44 209.537 240.862 208.454C243.53 206.429 243.503 203.11 242.552 200.332C241.601 197.554 239.84 194.899 239.625 192.029C239.53 191.334 239.669 190.628 240.021 190.021C240.487 189.445 241.032 188.938 241.641 188.515C245.537 185.253 245.079 179.891 241.857 176.224C238.282 172.142 222.129 163.381 217.264 170.896Z" fill="url(#paint27_linear)"/>
<g opacity="0.1">
<path fill-rule="evenodd" clip-rule="evenodd" d="M209.921 197.668C210.304 195.259 210.094 192.793 209.309 190.483C208.869 189.325 208.265 188.172 207.821 187.014C207.597 187.429 207.434 187.874 207.336 188.335C206.861 190.69 208.468 192.958 209.309 195.256C209.592 196.038 209.797 196.846 209.921 197.668Z" fill="url(#paint28_linear)"/>
<path fill-rule="evenodd" clip-rule="evenodd" d="M213.522 223.775C213.694 221.16 213.507 218.534 212.967 215.969C212.818 215.252 212.571 214.455 211.765 214.072C211.162 213.786 210.396 213.808 209.727 213.632C208.899 213.433 208.207 212.865 207.852 212.091C207.733 212.698 207.623 213.306 207.535 213.909C207.284 215.635 207.583 217.841 209.736 218.413C210.405 218.593 211.171 218.571 211.774 218.853C212.58 219.236 212.826 220.033 212.976 220.751C213.226 221.94 213.399 223.145 213.496 224.356C213.487 224.167 213.522 223.969 213.522 223.775Z" fill="url(#paint29_linear)"/>
<path fill-rule="evenodd" clip-rule="evenodd" d="M236.415 222.846C234.942 225.254 232.279 226.673 229.459 226.553C227.993 226.483 226.342 226.02 225.18 226.703C224.405 227.143 224.167 227.98 223.547 228.556C222.063 229.934 219.214 229.463 217.013 228.873C216.193 228.708 215.409 228.398 214.697 227.958C214.09 227.518 213.68 226.857 213.557 226.117C213.557 226.936 213.557 227.759 213.504 228.578C213.408 230.044 213.302 231.73 214.697 232.739C215.409 233.179 216.193 233.489 217.013 233.654C219.214 234.249 222.063 234.715 223.547 233.337C224.167 232.761 224.427 231.946 225.18 231.488C226.342 230.802 227.993 231.264 229.459 231.339C232.28 231.46 234.945 230.038 236.415 227.627C237.555 225.593 237.507 223.286 237.111 221.085C236.958 221.701 236.724 222.293 236.415 222.846Z" fill="url(#paint30_linear)"/>
<path fill-rule="evenodd" clip-rule="evenodd" d="M241.518 183.84C240.908 184.263 240.361 184.769 239.893 185.346C239.543 185.953 239.405 186.659 239.501 187.353C239.576 188.226 239.761 189.085 240.052 189.911C240.501 189.438 240.992 189.007 241.518 188.621C244.159 186.42 244.793 183.25 243.939 180.296C243.487 181.684 242.646 182.914 241.518 183.84Z" fill="url(#paint31_linear)"/>
<path fill-rule="evenodd" clip-rule="evenodd" d="M240.738 203.779C239.312 204.858 237.216 205.483 236.336 206.861C235.927 207.562 235.746 208.372 235.816 209.181C235.85 210.114 235.964 211.042 236.16 211.954C236.212 211.847 236.271 211.743 236.336 211.642C237.216 210.273 239.312 209.643 240.738 208.56C243.173 206.711 243.38 203.783 242.658 201.173C242.29 202.212 241.622 203.119 240.738 203.779Z" fill="url(#paint32_linear)"/>
</g>
<path fill-rule="evenodd" clip-rule="evenodd" d="M259.084 204.756C257.437 208.899 255.306 210.532 255.306 210.532H254.122L243.697 210.638L242.491 207.371L244.181 200.327L245.22 200.393C245.847 200.722 246.526 200.938 247.228 201.032C247.989 201.032 249.477 200.992 249.918 201.19C249.98 201.218 250.049 201.227 250.116 201.217C250.508 201.177 250.926 200.591 250.926 200.591C250.926 200.591 260.73 200.609 259.084 204.756Z" fill="url(#paint33_linear)"/>
<g opacity="0.1">
<path fill-rule="evenodd" clip-rule="evenodd" d="M259.084 204.756C257.437 208.899 255.306 210.532 255.306 210.532H254.122C254.738 208.89 256.042 205.518 256.552 204.743C257.063 203.968 252.674 202.172 250.12 201.181C250.512 201.142 250.93 200.556 250.93 200.556C250.93 200.556 260.73 200.609 259.084 204.756Z" fill="url(#paint34_linear)"/>
</g>
<path fill-rule="evenodd" clip-rule="evenodd" d="M250.591 207.966C250.591 207.966 256.314 211.69 258.516 209.7C260.717 207.71 260.422 203.907 260.127 203.303C259.832 202.7 257.486 194.939 257.486 194.939L252.964 183.461C252.964 183.461 250.221 168.356 246.127 172.125C242.033 175.893 248.328 184.936 248.328 184.936C248.328 184.936 250.913 191.54 250.78 192.861C250.648 194.181 252.22 199.024 252.22 199.024L250.591 207.966Z" fill="#EFB7B9"/>
<path fill-rule="evenodd" clip-rule="evenodd" d="M239.88 342.533C239.836 342.718 239.783 342.912 239.73 343.11C239.193 344.946 238.185 344.532 235.222 347.556C233.72 349.162 231.453 349.805 229.332 349.225C228.998 349.135 228.776 348.82 228.803 348.476L229.173 343.572L229.354 341.212C229.354 341.212 234.073 342.533 236.472 340.856C236.552 340.798 236.631 340.741 236.706 340.675C236.73 340.658 236.752 340.639 236.772 340.618C237.408 340.092 238.309 340.03 239.011 340.463C239.714 340.896 240.063 341.728 239.88 342.533Z" fill="#4D7CFE"/>
<path fill-rule="evenodd" clip-rule="evenodd" d="M225.065 340.684C225.026 340.869 224.973 341.058 224.92 341.256C224.383 343.096 223.375 342.678 220.412 345.703C218.911 347.31 216.642 347.953 214.521 347.371C214.187 347.283 213.964 346.967 213.993 346.623L214.363 341.718L214.543 339.359C214.543 339.359 219.263 340.679 221.662 339.002C221.743 338.948 221.821 338.889 221.896 338.826L221.962 338.764C222.599 338.241 223.498 338.181 224.2 338.614C224.901 339.048 225.249 339.88 225.065 340.684Z" fill="#4D7CFE"/>
<path opacity="0.1" fill-rule="evenodd" clip-rule="evenodd" d="M220.192 341.419L220.386 343.968C217.678 346.671 214.451 342.647 213.5 341.327C215.992 342.595 220.192 341.419 220.192 341.419Z" fill="black"/>
<path opacity="0.1" fill-rule="evenodd" clip-rule="evenodd" d="M236.111 342.454L236.468 342.22C233.994 345.98 230.304 344.246 229.173 343.572L229.353 341.212C229.353 341.212 234.073 342.533 236.472 340.856C236.283 341.776 236.111 342.454 236.111 342.454Z" fill="black"/>
<path fill-rule="evenodd" clip-rule="evenodd" d="M243.64 271.274C241.742 276.015 239.845 291.904 239.611 293.727C239.378 295.549 239.431 303.091 239.431 303.091L238.955 321.581C238.898 323.893 237.194 329.704 237.194 329.704C237.194 329.704 236.604 334.547 236.899 336.167C237.194 337.787 236.129 341.978 236.129 341.978L236.486 341.74C233.523 346.244 228.838 342.868 228.838 342.868C228.838 342.868 227.711 337.413 228.896 336.048C230.08 334.683 228.482 330.474 228.482 330.474C228.482 330.474 229.076 308.598 229.252 307.581C229.428 306.564 228.539 303.491 227.711 300.942C226.884 298.393 228.187 288.312 228.482 286.476C228.777 284.64 228.363 276.275 228.068 274.558C227.773 272.841 228.42 265.665 228.42 265.665C227.236 262.108 226.289 265.308 226.289 265.308L225.338 274.615L224.313 293.727C224.313 293.727 224.431 299.534 223.542 301.211C222.653 302.888 221.887 307.119 221.887 307.119L222.301 328.691C222.301 328.691 222.243 333.2 222.538 334.917C222.833 336.634 221.887 341.08 221.887 341.08C218.567 348.903 213.231 340.429 213.231 340.429C213.231 340.429 213.469 339.108 213.94 338.945C214.411 338.782 213.764 335.564 213.408 335.031C213.051 334.498 213.469 330.629 213.469 330.629C213.469 330.629 213.029 327.129 212.399 322.92C211.77 318.711 211.928 302.466 212.342 301.457C212.756 300.449 213.113 295.765 213.113 295.765C213.113 295.765 212.637 293.097 213.231 291.2C213.826 289.302 211.809 281.298 211.809 280.409C211.809 279.52 211.039 274.008 210.621 273.413C210.349 272.903 210.206 272.333 210.207 271.754C210.207 271.754 210.15 270.569 209.142 267.012C208.406 264.415 208.838 259.295 209.142 256.715C209.247 255.759 209.335 255.152 209.335 255.152C209.335 255.152 243.367 249.64 244.731 250.886C245.048 251.176 245.264 252.206 245.383 253.62C245.748 258.348 245.097 267.615 243.64 271.274Z" fill="#444053"/>
<path opacity="0.1" fill-rule="evenodd" clip-rule="evenodd" d="M230.776 297.909C230.934 297.909 234.689 298.226 236.059 297.949C237.428 297.671 230.776 297.909 230.776 297.909Z" fill="black"/>
<path opacity="0.1" fill-rule="evenodd" clip-rule="evenodd" d="M231.053 300.123C231.053 300.123 236.23 301.035 236.508 300.564C236.785 300.093 231.053 300.123 231.053 300.123Z" fill="black"/>
<path opacity="0.1" fill-rule="evenodd" clip-rule="evenodd" d="M215.204 299.177C215.204 299.177 217.889 299.296 219.351 299.965C220.813 300.634 215.204 299.177 215.204 299.177Z" fill="black"/>
<path fill-rule="evenodd" clip-rule="evenodd" d="M205.439 232.695C205.439 232.695 205.879 240.954 205.637 242.415C205.637 242.415 206.588 249.098 207.376 250.78C208.084 252.134 208.918 253.418 209.868 254.615L212.201 238.229L211.651 232.615L205.439 232.695Z" fill="#EFB7B9"/>
<path fill-rule="evenodd" clip-rule="evenodd" d="M229.948 195.066C234.991 195.066 239.079 190.978 239.079 185.936C239.079 180.893 234.991 176.805 229.948 176.805C224.905 176.805 220.817 180.893 220.817 185.936C220.817 190.978 224.905 195.066 229.948 195.066Z" fill="#EFB7B9"/>
<path fill-rule="evenodd" clip-rule="evenodd" d="M225.202 190.206C225.202 190.206 222.358 195.775 219.509 198.386C216.661 200.996 236.587 203.959 237.062 203.959C237.538 203.959 233.505 192.099 234.214 190.677C234.923 189.255 225.202 190.206 225.202 190.206Z" fill="#EFB7B9"/>
<path opacity="0.1" fill-rule="evenodd" clip-rule="evenodd" d="M245.361 253.664C244.915 254.006 244.423 254.283 243.899 254.487C240.263 255.909 236.309 257.886 233.62 257.093C230.93 256.301 225.255 257.093 225.255 257.093C225.255 257.093 213.808 256.147 211.501 256.697C210.727 256.93 209.903 256.947 209.12 256.746C209.225 255.79 209.313 255.183 209.313 255.183C209.313 255.183 243.345 249.671 244.709 250.917C245.026 251.207 245.242 252.215 245.361 253.664Z" fill="black"/>
<path fill-rule="evenodd" clip-rule="evenodd" d="M247.862 248.381C247.862 248.381 247.545 252.343 243.899 253.756C240.254 255.169 236.309 257.155 233.619 256.367C230.93 255.579 225.255 256.367 225.255 256.367C225.255 256.367 213.808 255.416 211.501 255.971C209.194 256.525 208.023 255.812 208.732 254.782C209.441 253.752 209.366 250.379 209.366 248.935C209.366 247.491 208.574 241.742 209.287 240.712C210 239.681 210.608 235.732 212.056 235.098C212.487 234.915 212.811 234.546 212.936 234.095C213.059 233.621 213.059 233.124 212.936 232.651C212.936 232.651 212.699 232.452 212.364 232.157C211.528 231.409 210.11 230.022 210.568 229.569C211.197 228.935 210.568 224.823 210.568 224.823C210.568 224.823 209.062 221.662 209.617 220.478C210.172 219.293 204.774 213.046 204.774 213.046C204.774 213.046 204.774 202.295 211.259 201.82C211.259 201.82 215.842 201.978 216.397 199.922C216.952 197.866 220.588 196.682 220.588 196.682L228.887 198.5C228.887 198.5 236.239 200.081 237.582 199.134C238.924 198.188 239.937 200.393 239.937 200.393C239.937 200.393 244.52 200.631 244.996 201.578C245.471 202.524 243.494 211.774 243.494 211.774C243.494 211.774 240.175 211.461 240.413 215.018C240.65 218.576 239.145 223.079 239.145 223.079C239.145 223.079 238.907 225.69 239.065 226.24C239.224 226.791 238.753 228.741 238.682 229.049V229.089C238.682 229.089 238.357 230.41 238.784 230.881C238.822 230.925 238.868 230.961 238.92 230.986C239.554 231.299 240.505 234.385 240.505 234.385C240.997 234.983 241.25 235.742 241.214 236.516C241.135 237.784 241.61 240.786 243.666 242.525C245.722 244.264 247.862 248.381 247.862 248.381Z" fill="#4D7CFE"/>
<path fill-rule="evenodd" clip-rule="evenodd" d="M212.593 230.084V230.418L212.448 234.117C212.448 234.117 207.605 234.513 204.964 233.839C202.322 233.166 203.431 230.247 203.533 229.635C203.612 229.08 204.325 224.453 204.325 223.705C204.325 222.956 204.325 219.87 204.206 218.448C204.087 217.026 204.796 213.073 204.796 213.073L205.311 212.439L210.885 214.574L212.593 230.084Z" fill="#4D7CFE"/>
<path opacity="0.1" fill-rule="evenodd" clip-rule="evenodd" d="M212.58 230.419L212.435 234.117C212.435 234.117 207.592 234.513 204.95 233.839C202.309 233.166 203.418 230.247 203.52 229.635L212.58 230.419Z" fill="black"/>
<path opacity="0.1" fill-rule="evenodd" clip-rule="evenodd" d="M212.932 234.099C213.054 233.625 213.054 233.128 212.932 232.655C212.932 232.655 212.694 232.457 212.36 232.162C216.551 231.581 233.126 229.305 238.713 229.08V229.12C238.713 229.12 238.387 230.44 238.814 230.912L212.932 234.099Z" fill="black"/>
<path opacity="0.1" fill-rule="evenodd" clip-rule="evenodd" d="M239.312 236.961C239.312 236.961 240.342 242.772 236.508 244.828C236.508 244.828 238.682 241.944 239.312 236.961Z" fill="black"/>
<path opacity="0.1" fill-rule="evenodd" clip-rule="evenodd" d="M214.213 244.986C214.213 244.986 223.459 243.406 225.281 244.63C227.104 245.854 214.213 244.986 214.213 244.986Z" fill="black"/>
<path opacity="0.1" fill-rule="evenodd" clip-rule="evenodd" d="M236.111 208.978C236.111 208.978 234.689 214.829 235.755 216.172C236.82 217.515 236.111 208.978 236.111 208.978Z" fill="black"/>
<path opacity="0.1" fill-rule="evenodd" clip-rule="evenodd" d="M209.313 204.197C209.313 204.197 210.634 206.368 209.828 208.622C209.023 210.876 209.313 204.197 209.313 204.197Z" fill="black"/>
<path fill-rule="evenodd" clip-rule="evenodd" d="M206.628 223.247C206.628 223.247 208.287 224.237 207.733 225.778C207.178 227.319 206.628 223.247 206.628 223.247Z" fill="#4D7CFE"/>
<path opacity="0.1" fill-rule="evenodd" clip-rule="evenodd" d="M206.478 218.743C206.478 218.743 208.019 219.571 208.217 220.795C208.415 222.019 206.478 218.743 206.478 218.743Z" fill="black"/>
<path opacity="0.1" fill-rule="evenodd" clip-rule="evenodd" d="M229.314 266.013C229.314 266.013 238.999 267.003 240.932 264.692C240.932 264.71 232.197 266.431 229.314 266.013Z" fill="black"/>
<path opacity="0.1" fill-rule="evenodd" clip-rule="evenodd" d="M212.593 265.458C212.593 265.458 222.987 267.91 225.043 265.973C225.043 265.991 216.111 266.647 212.593 265.458Z" fill="black"/>
<path opacity="0.1" fill-rule="evenodd" clip-rule="evenodd" d="M230.062 269.213C230.062 269.213 234.412 269.213 236.428 269.332C238.445 269.451 230.062 269.213 230.062 269.213Z" fill="black"/>
<path opacity="0.1" fill-rule="evenodd" clip-rule="evenodd" d="M213.306 271.071C213.306 271.071 215.441 273.484 217.85 273.048C220.258 272.612 213.306 271.071 213.306 271.071Z" fill="black"/>
<path fill-rule="evenodd" clip-rule="evenodd" d="M217.484 172.332C216.815 173.371 216.793 174.573 216.604 175.726C216.125 178.547 214.802 181.157 212.809 183.21C210.916 185.227 208.314 187.054 207.821 189.515C207.359 191.852 208.935 194.102 209.762 196.378C211.964 202.379 208.882 208.674 208.001 214.869C207.755 216.581 208.05 218.769 210.159 219.337C210.819 219.513 211.572 219.491 212.166 219.778C212.959 220.156 213.201 220.949 213.346 221.657C213.876 224.202 214.06 226.807 213.892 229.401C213.795 230.859 213.689 232.532 215.063 233.535C215.765 233.968 216.536 234.275 217.343 234.442C219.509 235.028 222.309 235.49 223.771 234.125C224.383 233.553 224.612 232.743 225.378 232.29C226.523 231.612 228.147 232.069 229.587 232.14C232.369 232.255 234.992 230.846 236.433 228.464C237.599 226.359 237.498 223.973 237.067 221.71C236.635 219.447 235.887 217.211 235.834 214.922C235.765 214.121 235.943 213.319 236.345 212.623C237.225 211.259 239.272 210.638 240.677 209.568C243.318 207.561 243.292 204.285 242.341 201.512C241.39 198.738 239.669 196.123 239.457 193.274C239.364 192.587 239.5 191.887 239.845 191.284C240.32 190.726 240.869 190.236 241.478 189.827C245.313 186.591 244.859 181.273 241.689 177.637C238.176 173.586 222.283 164.9 217.484 172.332Z" fill="#E3787D"/>
<g opacity="0.1">
<path fill-rule="evenodd" clip-rule="evenodd" d="M210.277 198.905C210.651 196.515 210.442 194.07 209.67 191.778C209.256 190.629 208.648 189.488 208.204 188.339C207.985 188.756 207.825 189.2 207.728 189.66C207.266 191.998 208.842 194.247 209.67 196.524C209.951 197.295 210.155 198.093 210.277 198.905Z" fill="black"/>
<path fill-rule="evenodd" clip-rule="evenodd" d="M213.808 224.801C213.976 222.207 213.793 219.602 213.262 217.057C213.117 216.348 212.875 215.556 212.082 215.177C211.488 214.891 210.735 214.913 210.075 214.737C209.259 214.535 208.58 213.973 208.23 213.209C208.111 213.808 208.006 214.411 207.918 215.01C207.671 216.722 207.966 218.91 210.075 219.478C210.735 219.654 211.488 219.632 212.082 219.918C212.875 220.301 213.117 221.089 213.262 221.803C213.507 222.983 213.677 224.176 213.773 225.378C213.782 225.184 213.795 224.99 213.808 224.801Z" fill="black"/>
<path fill-rule="evenodd" clip-rule="evenodd" d="M236.349 223.863C234.909 226.247 232.285 227.656 229.503 227.539C228.064 227.469 226.421 227.011 225.294 227.689C224.533 228.129 224.299 228.952 223.687 229.525C222.226 230.89 219.426 230.427 217.26 229.842C216.453 229.676 215.682 229.367 214.984 228.93C214.387 228.491 213.983 227.838 213.857 227.108C213.857 227.918 213.857 228.732 213.808 229.542C213.711 231 213.606 232.673 214.984 233.676C215.684 234.109 216.454 234.416 217.26 234.583C219.426 235.169 222.226 235.631 223.687 234.271C224.299 233.694 224.533 232.884 225.294 232.43C226.439 231.752 228.064 232.21 229.503 232.281C232.285 232.397 234.909 230.988 236.349 228.605C237.472 226.584 237.423 224.299 237.031 222.115C236.882 222.725 236.652 223.313 236.349 223.863Z" fill="black"/>
<path fill-rule="evenodd" clip-rule="evenodd" d="M241.359 185.191C240.759 185.611 240.221 186.113 239.761 186.684C239.417 187.287 239.28 187.986 239.374 188.674C239.451 189.54 239.634 190.393 239.919 191.214C240.359 190.743 240.841 190.315 241.359 189.933C243.952 187.732 244.582 184.606 243.741 181.678C243.299 183.053 242.472 184.272 241.359 185.191Z" fill="black"/>
<path fill-rule="evenodd" clip-rule="evenodd" d="M240.593 204.968C239.189 206.037 237.141 206.658 236.261 208.019C235.861 208.716 235.683 209.519 235.75 210.321C235.784 211.246 235.898 212.167 236.089 213.073C236.138 212.965 236.195 212.862 236.261 212.764C237.141 211.4 239.189 210.779 240.593 209.709C242.988 207.873 243.191 204.972 242.482 202.383C242.119 203.411 241.462 204.31 240.593 204.968Z" fill="black"/>
</g>
<path fill-rule="evenodd" clip-rule="evenodd" d="M258.643 205.936C257.023 210.048 254.923 211.659 254.923 211.659H253.757L243.503 211.765L242.319 208.525L243.979 201.529L245.004 201.569C245.621 201.895 246.29 202.11 246.981 202.203C247.734 202.203 249.182 202.163 249.623 202.361C249.684 202.387 249.751 202.397 249.816 202.388C250.204 202.348 250.609 201.767 250.609 201.767C250.609 201.767 260.259 201.824 258.643 205.936Z" fill="#4D7CFE"/>
<path opacity="0.1" fill-rule="evenodd" clip-rule="evenodd" d="M258.643 205.936C257.023 210.048 254.923 211.659 254.923 211.659H253.757C254.369 210.03 255.65 206.689 256.152 205.936C256.653 205.183 252.335 203.387 249.825 202.414C250.213 202.374 250.618 201.793 250.618 201.793C250.618 201.793 260.259 201.824 258.643 205.936Z" fill="black"/>
<defs>
<linearGradient id="paint0_linear" x1="260.786" y1="209.141" x2="260.786" y2="170.073" gradientUnits="userSpaceOnUse">
<stop stop-color="#808080" stop-opacity="0.25"/>
<stop offset="0.54" stop-color="#808080" stop-opacity="0.12"/>
<stop offset="1" stop-color="#808080" stop-opacity="0.1"/>
</linearGradient>
<linearGradient id="paint1_linear" x1="240.064" y1="349.432" x2="240.064" y2="340.094" gradientUnits="userSpaceOnUse">
<stop stop-color="#808080" stop-opacity="0.25"/>
<stop offset="0.54" stop-color="#808080" stop-opacity="0.12"/>
<stop offset="1" stop-color="#808080" stop-opacity="0.1"/>
</linearGradient>
<linearGradient id="paint2_linear" x1="225.008" y1="347.565" x2="225.008" y2="338.227" gradientUnits="userSpaceOnUse">
<stop stop-color="#808080" stop-opacity="0.25"/>
<stop offset="0.54" stop-color="#808080" stop-opacity="0.12"/>
<stop offset="1" stop-color="#808080" stop-opacity="0.1"/>
</linearGradient>
<linearGradient id="paint3_linear" x1="220.2" y1="344.844" x2="220.2" y2="341.252" gradientUnits="userSpaceOnUse">
<stop stop-color="#808080" stop-opacity="0.25"/>
<stop offset="0.54" stop-color="#808080" stop-opacity="0.12"/>
<stop offset="1" stop-color="#808080" stop-opacity="0.1"/>
</linearGradient>
<linearGradient id="paint4_linear" x1="236.551" y1="344.523" x2="236.551" y2="340.785" gradientUnits="userSpaceOnUse">
<stop stop-color="#808080" stop-opacity="0.25"/>
<stop offset="0.54" stop-color="#808080" stop-opacity="0.12"/>
<stop offset="1" stop-color="#808080" stop-opacity="0.1"/>
</linearGradient>
<linearGradient id="paint5_linear" x1="245.708" y1="344.369" x2="245.708" y2="249.922" gradientUnits="userSpaceOnUse">
<stop stop-color="#808080" stop-opacity="0.25"/>
<stop offset="0.54" stop-color="#808080" stop-opacity="0.12"/>
<stop offset="1" stop-color="#808080" stop-opacity="0.1"/>
</linearGradient>
<linearGradient id="paint6_linear" x1="235.139" y1="297.704" x2="235.139" y2="297.419" gradientUnits="userSpaceOnUse">
<stop stop-color="#808080" stop-opacity="0.25"/>
<stop offset="0.54" stop-color="#808080" stop-opacity="0.12"/>
<stop offset="1" stop-color="#808080" stop-opacity="0.1"/>
</linearGradient>
<linearGradient id="paint7_linear" x1="236.591" y1="300.295" x2="236.591" y2="299.718" gradientUnits="userSpaceOnUse">
<stop stop-color="#808080" stop-opacity="0.25"/>
<stop offset="0.54" stop-color="#808080" stop-opacity="0.12"/>
<stop offset="1" stop-color="#808080" stop-opacity="0.1"/>
</linearGradient>
<linearGradient id="paint8_linear" x1="219.391" y1="299.736" x2="219.391" y2="298.763" gradientUnits="userSpaceOnUse">
<stop stop-color="#808080" stop-opacity="0.25"/>
<stop offset="0.54" stop-color="#808080" stop-opacity="0.12"/>
<stop offset="1" stop-color="#808080" stop-opacity="0.1"/>
</linearGradient>
<linearGradient id="paint9_linear" x1="211.873" y1="253.849" x2="211.873" y2="231.656" gradientUnits="userSpaceOnUse">
<stop stop-color="#808080" stop-opacity="0.25"/>
<stop offset="0.54" stop-color="#808080" stop-opacity="0.12"/>
<stop offset="1" stop-color="#808080" stop-opacity="0.1"/>
</linearGradient>
<linearGradient id="paint10_linear" x1="239.197" y1="193.794" x2="239.197" y2="175.383" gradientUnits="userSpaceOnUse">
<stop stop-color="#808080" stop-opacity="0.25"/>
<stop offset="0.54" stop-color="#808080" stop-opacity="0.12"/>
<stop offset="1" stop-color="#808080" stop-opacity="0.1"/>
</linearGradient>
<linearGradient id="paint11_linear" x1="237.187" y1="202.762" x2="237.187" y2="188.581" gradientUnits="userSpaceOnUse">
<stop stop-color="#808080" stop-opacity="0.25"/>
<stop offset="0.54" stop-color="#808080" stop-opacity="0.12"/>
<stop offset="1" stop-color="#808080" stop-opacity="0.1"/>
</linearGradient>
<linearGradient id="paint12_linear" x1="245.587" y1="256.503" x2="245.587" y2="249.922" gradientUnits="userSpaceOnUse">
<stop stop-color="#808080" stop-opacity="0.25"/>
<stop offset="0.54" stop-color="#808080" stop-opacity="0.12"/>
<stop offset="1" stop-color="#808080" stop-opacity="0.1"/>
</linearGradient>
<linearGradient id="paint13_linear" x1="248.109" y1="255.786" x2="248.109" y2="195.427" gradientUnits="userSpaceOnUse">
<stop stop-color="#808080" stop-opacity="0.25"/>
<stop offset="0.54" stop-color="#808080" stop-opacity="0.12"/>
<stop offset="1" stop-color="#808080" stop-opacity="0.1"/>
</linearGradient>
<linearGradient id="paint14_linear" x1="212.288" y1="233.285" x2="212.288" y2="211.29" gradientUnits="userSpaceOnUse">
<stop stop-color="#808080" stop-opacity="0.25"/>
<stop offset="0.54" stop-color="#808080" stop-opacity="0.12"/>
<stop offset="1" stop-color="#808080" stop-opacity="0.1"/>
</linearGradient>
<linearGradient id="paint15_linear" x1="212.271" y1="233.285" x2="212.271" y2="228.649" gradientUnits="userSpaceOnUse">
<stop stop-color="#808080" stop-opacity="0.25"/>
<stop offset="0.54" stop-color="#808080" stop-opacity="0.12"/>
<stop offset="1" stop-color="#808080" stop-opacity="0.1"/>
</linearGradient>
<linearGradient id="paint16_linear" x1="238.9" y1="233.152" x2="238.9" y2="228.068" gradientUnits="userSpaceOnUse">
<stop stop-color="#808080" stop-opacity="0.25"/>
<stop offset="0.54" stop-color="#808080" stop-opacity="0.12"/>
<stop offset="1" stop-color="#808080" stop-opacity="0.1"/>
</linearGradient>
<linearGradient id="paint17_linear" x1="239.566" y1="243.969" x2="239.566" y2="236.036" gradientUnits="userSpaceOnUse">
<stop stop-color="#808080" stop-opacity="0.25"/>
<stop offset="0.54" stop-color="#808080" stop-opacity="0.12"/>
<stop offset="1" stop-color="#808080" stop-opacity="0.1"/>
</linearGradient>
<linearGradient id="paint18_linear" x1="225.351" y1="244.427" x2="225.351" y2="243.3" gradientUnits="userSpaceOnUse">
<stop stop-color="#808080" stop-opacity="0.25"/>
<stop offset="0.54" stop-color="#808080" stop-opacity="0.12"/>
<stop offset="1" stop-color="#808080" stop-opacity="0.1"/>
</linearGradient>
<linearGradient id="paint19_linear" x1="236.417" y1="215.221" x2="236.417" y2="207.825" gradientUnits="userSpaceOnUse">
<stop stop-color="#808080" stop-opacity="0.25"/>
<stop offset="0.54" stop-color="#808080" stop-opacity="0.12"/>
<stop offset="1" stop-color="#808080" stop-opacity="0.1"/>
</linearGradient>
<linearGradient id="paint20_linear" x1="209.722" y1="207.935" x2="209.722" y2="203" gradientUnits="userSpaceOnUse">
<stop stop-color="#808080" stop-opacity="0.25"/>
<stop offset="0.54" stop-color="#808080" stop-opacity="0.12"/>
<stop offset="1" stop-color="#808080" stop-opacity="0.1"/>
</linearGradient>
<linearGradient id="paint21_linear" x1="207.449" y1="225.113" x2="207.449" y2="222.208" gradientUnits="userSpaceOnUse">
<stop stop-color="#808080" stop-opacity="0.25"/>
<stop offset="0.54" stop-color="#808080" stop-opacity="0.12"/>
<stop offset="1" stop-color="#808080" stop-opacity="0.1"/>
</linearGradient>
<linearGradient id="paint22_linear" x1="207.833" y1="220.015" x2="207.833" y2="217.664" gradientUnits="userSpaceOnUse">
<stop stop-color="#808080" stop-opacity="0.25"/>
<stop offset="0.54" stop-color="#808080" stop-opacity="0.12"/>
<stop offset="1" stop-color="#808080" stop-opacity="0.1"/>
</linearGradient>
<linearGradient id="paint23_linear" x1="241.057" y1="265.542" x2="241.057" y2="264.014" gradientUnits="userSpaceOnUse">
<stop stop-color="#808080" stop-opacity="0.25"/>
<stop offset="0.54" stop-color="#808080" stop-opacity="0.12"/>
<stop offset="1" stop-color="#808080" stop-opacity="0.1"/>
</linearGradient>
<linearGradient id="paint24_linear" x1="224.934" y1="266.039" x2="224.934" y2="264.771" gradientUnits="userSpaceOnUse">
<stop stop-color="#808080" stop-opacity="0.25"/>
<stop offset="0.54" stop-color="#808080" stop-opacity="0.12"/>
<stop offset="1" stop-color="#808080" stop-opacity="0.1"/>
</linearGradient>
<linearGradient id="paint25_linear" x1="234.584" y1="268.788" x2="234.584" y2="268.618" gradientUnits="userSpaceOnUse">
<stop stop-color="#808080" stop-opacity="0.25"/>
<stop offset="0.54" stop-color="#808080" stop-opacity="0.12"/>
<stop offset="1" stop-color="#808080" stop-opacity="0.1"/>
</linearGradient>
<linearGradient id="paint26_linear" x1="218.137" y1="272.476" x2="218.137" y2="270.428" gradientUnits="userSpaceOnUse">
<stop stop-color="#808080" stop-opacity="0.25"/>
<stop offset="0.54" stop-color="#808080" stop-opacity="0.12"/>
<stop offset="1" stop-color="#808080" stop-opacity="0.1"/>
</linearGradient>
<linearGradient id="paint27_linear" x1="244.415" y1="234.099" x2="244.415" y2="167.942" gradientUnits="userSpaceOnUse">
<stop stop-color="#808080" stop-opacity="0.25"/>
<stop offset="0.54" stop-color="#808080" stop-opacity="0.12"/>
<stop offset="1" stop-color="#808080" stop-opacity="0.1"/>
</linearGradient>
<linearGradient id="paint28_linear" x1="210.099" y1="197.668" x2="210.099" y2="187.014" gradientUnits="userSpaceOnUse">
<stop stop-color="#808080" stop-opacity="0.25"/>
<stop offset="0.54" stop-color="#808080" stop-opacity="0.12"/>
<stop offset="1" stop-color="#808080" stop-opacity="0.1"/>
</linearGradient>
<linearGradient id="paint29_linear" x1="213.578" y1="224.356" x2="213.578" y2="212.086" gradientUnits="userSpaceOnUse">
<stop stop-color="#808080" stop-opacity="0.25"/>
<stop offset="0.54" stop-color="#808080" stop-opacity="0.12"/>
<stop offset="1" stop-color="#808080" stop-opacity="0.1"/>
</linearGradient>
<linearGradient id="paint30_linear" x1="237.373" y1="234.218" x2="237.373" y2="221.068" gradientUnits="userSpaceOnUse">
<stop stop-color="#808080" stop-opacity="0.25"/>
<stop offset="0.54" stop-color="#808080" stop-opacity="0.12"/>
<stop offset="1" stop-color="#808080" stop-opacity="0.1"/>
</linearGradient>
<linearGradient id="paint31_linear" x1="244.299" y1="189.911" x2="244.299" y2="180.296" gradientUnits="userSpaceOnUse">
<stop stop-color="#808080" stop-opacity="0.25"/>
<stop offset="0.54" stop-color="#808080" stop-opacity="0.12"/>
<stop offset="1" stop-color="#808080" stop-opacity="0.1"/>
</linearGradient>
<linearGradient id="paint32_linear" x1="243.027" y1="211.95" x2="243.027" y2="201.173" gradientUnits="userSpaceOnUse">
<stop stop-color="#808080" stop-opacity="0.25"/>
<stop offset="0.54" stop-color="#808080" stop-opacity="0.12"/>
<stop offset="1" stop-color="#808080" stop-opacity="0.1"/>
</linearGradient>
<linearGradient id="paint33_linear" x1="259.279" y1="210.651" x2="259.279" y2="200.332" gradientUnits="userSpaceOnUse">
<stop stop-color="#808080" stop-opacity="0.25"/>
<stop offset="0.54" stop-color="#808080" stop-opacity="0.12"/>
<stop offset="1" stop-color="#808080" stop-opacity="0.1"/>
</linearGradient>
<linearGradient id="paint34_linear" x1="259.269" y1="210.546" x2="259.269" y2="200.569" gradientUnits="userSpaceOnUse">
<stop stop-color="#808080" stop-opacity="0.25"/>
<stop offset="0.54" stop-color="#808080" stop-opacity="0.12"/>
<stop offset="1" stop-color="#808080" stop-opacity="0.1"/>
</linearGradient>
</defs>
</svg>
