<svg
    width="19"
    height="19"
    viewBox="0 0 19 19"
    fill="none"
    xmlns="http://www.w3.org/2000/svg"
>
    <g clip-path="url(#clip0)">
        <path
            d="M17.4168 0H7.91684C7.0424 0 6.3335 0.7089 6.3335 1.58335V4.35419C6.3335 4.5728 6.51073 4.75004 6.72934 4.75004H7.521C7.73961 4.75004 7.91684 4.5728 7.91684 4.35419V1.58335H17.4168V17.4167H7.91684V14.6458C7.91684 14.4272 7.73961 14.25 7.521 14.25H6.72934C6.51073 14.25 6.3335 14.4272 6.3335 14.6458V17.4167C6.3335 18.2911 7.04236 19 7.91684 19H17.4168C18.2913 19 19.0002 18.2911 19.0002 17.4167V1.58335C19.0002 0.7089 18.2913 0 17.4168 0Z"
            fill="#4285F4"
        />
        <path
            d="M8.83938 12.7686C8.75588 12.8436 8.70835 12.9506 8.70835 13.0627V13.8544C8.70835 14.0113 8.80112 14.1536 8.94492 14.2166C8.99594 14.2394 9.05046 14.2502 9.10419 14.2502C9.20123 14.2502 9.29709 14.2142 9.37168 14.1462L14.1217 9.79207C14.2036 9.71711 14.25 9.6112 14.25 9.50024C14.25 9.38928 14.2036 9.28337 14.1217 9.20837L9.37168 4.85422C9.25571 4.74868 9.08757 4.7197 8.94492 4.78386C8.80112 4.84687 8.70835 4.98911 8.70835 5.14605V5.93774C8.70835 6.04985 8.75588 6.15691 8.83938 6.2319L11.5911 8.70858H0.395846C0.177049 8.70858 0 8.88563 0 9.10439V9.89605C0 10.1148 0.177049 10.2919 0.395846 10.2919H11.5911L8.83938 12.7686Z"
            fill="#4285F4"
        />
    </g>
    <defs>
        <clipPath id="clip0">
            <rect width="19" height="19" fill="white" />
        </clipPath>
    </defs>
</svg>
