<svg
    width="10"
    height="10"
    viewBox="0 0 10 10"
    fill="none"
    xmlns="http://www.w3.org/2000/svg"
>
    <path
        d="M1.946 10C1.85267 10 1.77333 9.96733 1.708 9.902C1.64267 9.83667 1.61 9.75733 1.61 9.664V8.124H0.546C0.452667 8.124 0.373333 8.09133 0.308 8.026C0.242667 7.96067 0.21 7.88133 0.21 7.788V7.354C0.21 7.26067 0.242667 7.18133 0.308 7.116C0.373333 7.05067 0.452667 7.018 0.546 7.018H1.61V6.262H0.546C0.452667 6.262 0.373333 6.22933 0.308 6.164C0.242667 6.09867 0.21 6.01933 0.21 5.926V5.17C0.21 5.06733 0.242667 4.988 0.308 4.932C0.373333 4.86667 0.452667 4.834 0.546 4.834H1.61V0.55C1.61 0.447333 1.638 0.363333 1.694 0.298C1.75933 0.232666 1.84333 0.199999 1.946 0.199999H5.684C6.81333 0.199999 7.7 0.466 8.344 0.998C8.988 1.52067 9.31 2.29067 9.31 3.308C9.31 4.288 8.988 5.02533 8.344 5.52C7.7 6.01467 6.81333 6.262 5.684 6.262H3.612V7.018H5.894C5.98733 7.018 6.06667 7.05067 6.132 7.116C6.19733 7.18133 6.23 7.26067 6.23 7.354V7.788C6.23 7.88133 6.19733 7.96067 6.132 8.026C6.076 8.09133 5.99667 8.124 5.894 8.124H3.612V9.664C3.612 9.75733 3.57933 9.83667 3.514 9.902C3.44867 9.96733 3.36467 10 3.262 10H1.946ZM5.614 4.834C6.15533 4.834 6.57067 4.708 6.86 4.456C7.15867 4.19467 7.308 3.812 7.308 3.308C7.308 2.82267 7.168 2.44467 6.888 2.174C6.608 1.894 6.18333 1.754 5.614 1.754H3.584V4.834H5.614Z"
        fill="#98A9BC"
    />
</svg>
