<?xml version="1.0" encoding="UTF-8"?>
<!DOCTYPE svg PUBLIC "-//W3C//DTD SVG 1.1//EN" "http://www.w3.org/Graphics/SVG/1.1/DTD/svg11.dtd">
<svg version="1.2" width="19.05mm" height="6.61mm" viewBox="0 0 1905 661" preserveAspectRatio="xMidYMid" fill-rule="evenodd" stroke-width="28.222" stroke-linejoin="round" xmlns="http://www.w3.org/2000/svg" xmlns:ooo="http://xml.openoffice.org/svg/export" xmlns:xlink="http://www.w3.org/1999/xlink" xmlns:presentation="http://sun.com/xmlns/staroffice/presentation" xmlns:smil="http://www.w3.org/2001/SMIL20/" xmlns:anim="urn:oasis:names:tc:opendocument:xmlns:animation:1.0" xml:space="preserve">
 <defs class="ClipPathGroup">
  <clipPath id="presentation_clip_path" clipPathUnits="userSpaceOnUse">
   <rect x="0" y="0" width="1905" height="661"/>
  </clipPath>
  <clipPath id="presentation_clip_path_shrink" clipPathUnits="userSpaceOnUse">
   <rect x="1" y="0" width="1902" height="660"/>
  </clipPath>
 </defs>
 <defs class="TextShapeIndex">
  <g ooo:slide="id1" ooo:id-list="id3"/>
 </defs>
 <defs class="EmbeddedBulletChars">
  <g id="bullet-char-template-57356" transform="scale(0.00048828125,-0.00048828125)">
   <path d="M 580,1141 L 1163,571 580,0 -4,571 580,1141 Z"/>
  </g>
  <g id="bullet-char-template-57354" transform="scale(0.00048828125,-0.00048828125)">
   <path d="M 8,1128 L 1137,1128 1137,0 8,0 8,1128 Z"/>
  </g>
  <g id="bullet-char-template-10146" transform="scale(0.00048828125,-0.00048828125)">
   <path d="M 174,0 L 602,739 174,1481 1456,739 174,0 Z M 1358,739 L 309,1346 659,739 1358,739 Z"/>
  </g>
  <g id="bullet-char-template-10132" transform="scale(0.00048828125,-0.00048828125)">
   <path d="M 2015,739 L 1276,0 717,0 1260,543 174,543 174,936 1260,936 717,1481 1274,1481 2015,739 Z"/>
  </g>
  <g id="bullet-char-template-10007" transform="scale(0.00048828125,-0.00048828125)">
   <path d="M 0,-2 C -7,14 -16,27 -25,37 L 356,567 C 262,823 215,952 215,954 215,979 228,992 255,992 264,992 276,990 289,987 310,991 331,999 354,1012 L 381,999 492,748 772,1049 836,1024 860,1049 C 881,1039 901,1025 922,1006 886,937 835,863 770,784 769,783 710,716 594,584 L 774,223 C 774,196 753,168 711,139 L 727,119 C 717,90 699,76 672,76 641,76 570,178 457,381 L 164,-76 C 142,-110 111,-127 72,-127 30,-127 9,-110 8,-76 1,-67 -2,-52 -2,-32 -2,-23 -1,-13 0,-2 Z"/>
  </g>
  <g id="bullet-char-template-10004" transform="scale(0.00048828125,-0.00048828125)">
   <path d="M 285,-33 C 182,-33 111,30 74,156 52,228 41,333 41,471 41,549 55,616 82,672 116,743 169,778 240,778 293,778 328,747 346,684 L 369,508 C 377,444 397,411 428,410 L 1163,1116 C 1174,1127 1196,1133 1229,1133 1271,1133 1292,1118 1292,1087 L 1292,965 C 1292,929 1282,901 1262,881 L 442,47 C 390,-6 338,-33 285,-33 Z"/>
  </g>
  <g id="bullet-char-template-9679" transform="scale(0.00048828125,-0.00048828125)">
   <path d="M 813,0 C 632,0 489,54 383,161 276,268 223,411 223,592 223,773 276,916 383,1023 489,1130 632,1184 813,1184 992,1184 1136,1130 1245,1023 1353,916 1407,772 1407,592 1407,412 1353,268 1245,161 1136,54 992,0 813,0 Z"/>
  </g>
  <g id="bullet-char-template-8226" transform="scale(0.00048828125,-0.00048828125)">
   <path d="M 346,457 C 273,457 209,483 155,535 101,586 74,649 74,723 74,796 101,859 155,911 209,963 273,989 346,989 419,989 480,963 531,910 582,859 608,796 608,723 608,648 583,586 532,535 482,483 420,457 346,457 Z"/>
  </g>
  <g id="bullet-char-template-8211" transform="scale(0.00048828125,-0.00048828125)">
   <path d="M -4,459 L 1135,459 1135,606 -4,606 -4,459 Z"/>
  </g>
  <g id="bullet-char-template-61548" transform="scale(0.00048828125,-0.00048828125)">
   <path d="M 173,740 C 173,903 231,1043 346,1159 462,1274 601,1332 765,1332 928,1332 1067,1274 1183,1159 1299,1043 1357,903 1357,740 1357,577 1299,437 1183,322 1067,206 928,148 765,148 601,148 462,206 346,322 231,437 173,577 173,740 Z"/>
  </g>
 </defs>
 <defs class="TextEmbeddedBitmaps"/>
 <g>
  <g id="id2" class="Master_Slide">
   <g id="bg-id2" class="Background"/>
   <g id="bo-id2" class="BackgroundObjects"/>
  </g>
 </g>
 <g class="SlideGroup">
  <g>
   <g id="container-id1">
    <g id="id1" class="Slide" clip-path="url(#presentation_clip_path)">
     <g class="Page">
      <g class="Graphic">
       <g id="id3">
        <rect class="BoundingBox" stroke="none" fill="none" x="0" y="0" width="1905" height="661"/>
        <path fill="rgb(77,124,254)" stroke="none" d="M 843,541 C 839,541 836,540 833,537 831,534 829,531 829,527 L 829,149 C 829,145 830,141 833,139 835,136 839,135 843,135 L 999,135 C 1046,135 1082,146 1109,168 1136,189 1149,221 1149,264 1149,306 1136,338 1109,359 1083,381 1046,391 999,391 L 912,391 912,527 C 912,531 911,534 908,537 906,540 903,541 898,541 L 843,541 843,541 Z M 996,327 C 1019,327 1036,322 1048,311 1060,300 1066,284 1066,264 1066,243 1060,228 1048,217 1037,205 1019,199 996,199 L 911,199 911,327 996,327 996,327 Z M 1162,541 C 1159,541 1156,540 1153,538 1151,535 1150,532 1150,529 L 1151,524 1291,149 C 1294,139 1301,135 1312,135 L 1375,135 C 1385,135 1392,139 1395,149 L 1536,524 C 1536,525 1536,527 1536,529 1536,532 1535,535 1533,538 1530,540 1528,541 1525,541 L 1474,541 C 1469,541 1465,540 1462,538 1460,535 1458,533 1457,530 L 1430,459 1257,459 1230,530 C 1226,538 1221,541 1213,541 L 1162,541 1162,541 Z M 1409,393 L 1343,213 1277,393 1409,393 1409,393 Z M 1667,541 C 1663,541 1660,540 1657,537 1655,534 1653,531 1653,527 L 1653,396 1516,153 C 1515,151 1514,149 1514,147 1514,143 1515,140 1518,138 1520,136 1523,135 1526,135 L 1578,135 C 1582,135 1585,136 1588,138 1591,140 1593,143 1595,146 L 1694,315 1792,146 C 1797,138 1803,135 1810,135 L 1861,135 C 1865,135 1868,136 1870,138 1873,140 1874,143 1874,147 1874,149 1873,151 1872,153 L 1735,396 1735,527 C 1735,531 1733,534 1731,537 1728,540 1724,541 1720,541 L 1667,541 1667,541 Z"/>
        <path fill="rgb(77,124,254)" stroke="none" d="M 202,547 C 171,547 145,542 122,532 100,522 83,509 71,494 60,478 53,461 53,442 53,439 54,437 56,434 58,432 61,431 65,431 L 76,431 C 83,431 88,435 89,442 92,461 103,477 121,491 140,505 167,512 202,512 238,512 266,506 284,492 302,479 311,460 311,436 311,421 306,409 298,400 289,390 276,382 260,375 243,368 218,359 184,348 154,338 131,329 114,319 97,310 85,299 76,285 68,272 64,254 64,233 64,214 69,196 80,180 91,164 106,152 126,143 147,133 171,129 199,129 227,129 252,134 272,145 293,155 309,168 319,183 330,199 335,215 336,230 336,234 335,236 332,239 330,241 328,242 324,242 L 312,242 C 309,242 307,241 304,240 301,238 300,235 299,230 297,211 286,195 268,183 250,170 227,164 199,164 169,164 145,169 127,181 110,193 101,210 101,233 101,248 105,261 113,271 121,281 133,289 149,297 164,304 188,312 219,322 251,332 276,342 293,351 311,361 325,372 334,385 343,398 348,415 348,436 348,471 335,498 309,518 283,537 247,547 202,547 L 202,547 Z M 444,541 C 441,541 437,540 435,538 433,535 432,532 432,528 L 432,148 C 432,144 433,141 435,139 437,136 441,135 444,135 L 586,135 C 627,135 660,145 684,166 708,187 720,216 720,255 720,294 708,323 684,344 660,365 627,375 586,375 L 468,375 468,528 C 468,532 467,535 464,538 462,540 459,541 455,541 L 444,541 444,541 Z M 583,340 C 616,340 641,333 658,319 675,304 683,283 683,255 683,227 675,206 658,192 641,177 616,169 583,169 L 468,169 468,340 583,340 583,340 Z"/>
       </g>
      </g>
     </g>
    </g>
   </g>
  </g>
 </g>
</svg>