<svg width="36" height="36" viewBox="0 0 36 36" fill="none" xmlns="http://www.w3.org/2000/svg">
    <path fill-rule="evenodd" clip-rule="evenodd" d="M18 36C27.9411 36 36 27.9411 36 18C36 8.05887 27.9411 0 18 0C8.05887 0 0 8.05887 0 18C0 27.9411 8.05887 36 18 36Z" fill="#E8ECEF"/>
    <mask id="mask0" mask-type="alpha" maskUnits="userSpaceOnUse" x="0" y="0" width="36" height="36">
    <path fill-rule="evenodd" clip-rule="evenodd" d="M18 36C27.9411 36 36 27.9411 36 18C36 8.05887 27.9411 0 18 0C8.05887 0 0 8.05887 0 18C0 27.9411 8.05887 36 18 36Z" fill="white"/>
    </mask>
    <g mask="url(#mask0)">
    <rect width="36" height="36" fill="#4285F4"/>
    </g>
    <path d="M18 9.75C15.1084 9.75 12.75 12.1084 12.75 15C12.75 16.8076 13.6729 18.4131 15.0703 19.3594C12.3955 20.5078 10.5 23.1621 10.5 26.25H12C12 22.9277 14.6777 20.25 18 20.25C21.3223 20.25 24 22.9277 24 26.25H25.5C25.5 23.1621 23.6045 20.5078 20.9297 19.3594C22.3271 18.4131 23.25 16.8076 23.25 15C23.25 12.1084 20.8916 9.75 18 9.75ZM18 11.25C20.0801 11.25 21.75 12.9199 21.75 15C21.75 17.0801 20.0801 18.75 18 18.75C15.9199 18.75 14.25 17.0801 14.25 15C14.25 12.9199 15.9199 11.25 18 11.25Z" fill="white"/>
    </svg>
    