<svg width="26" height="24" viewBox="0 0 26 24" fill="none" xmlns="http://www.w3.org/2000/svg">
<path d="M16.5751 5.70547C14.747 5.75529 13.3296 6.24851 11.9498 6.72454C10.4741 7.23348 9.08091 7.71348 7.15185 7.73306C5.8624 7.75331 4.57088 7.53235 3.30183 7.09631L2.40039 6.7865V18.3166L2.8531 18.4761C4.03515 18.8912 5.24378 19.1306 6.44689 19.188C6.6379 19.1968 6.82494 19.2012 7.00847 19.2012C9.05649 19.2012 10.6244 18.6617 12.1449 18.1399C13.7477 17.5891 15.2596 17.0692 17.3225 17.1657C18.3924 17.2163 19.4697 17.4312 20.526 17.8024L21.4328 18.1215V6.58743L20.9854 6.42528C19.8128 6.00342 18.6016 5.76404 17.3849 5.71207C17.1059 5.69975 16.8363 5.69836 16.5751 5.70547ZM16.6123 7.04621C16.8427 7.03913 17.0796 7.03923 17.3252 7.04885C17.5794 7.0598 17.8337 7.08267 18.0872 7.11213C18.2686 7.85036 18.9341 8.40013 19.7334 8.40013C19.8497 8.40013 19.9632 8.38745 20.0733 8.36585V14.5093C19.9632 14.4877 19.8497 14.475 19.7334 14.475C18.8934 14.475 18.2007 15.0812 18.0633 15.8764C17.8376 15.8529 17.6117 15.837 17.3863 15.8263C15.065 15.725 13.3533 16.3046 11.6989 16.8743C10.094 17.4265 8.57356 17.9484 6.51195 17.8512C6.25649 17.839 6.00058 17.8147 5.7446 17.784C5.56178 17.0478 4.89761 16.4999 4.09971 16.4999C3.98348 16.4999 3.86996 16.5126 3.75985 16.5342V10.3908C3.86996 10.4124 3.98348 10.4251 4.09971 10.4251C4.94561 10.4251 5.64076 9.80996 5.77115 9.00656C6.2367 9.05489 6.70272 9.08284 7.16645 9.07511C9.31779 9.05351 10.8821 8.51257 12.3958 7.99013C13.7287 7.52946 14.9996 7.09579 16.6123 7.04621ZM11.9166 9.7501C11.9166 10.7214 11.5353 11.1001 10.5571 11.1001V12.45C11.0844 12.45 11.5337 12.348 11.9166 12.1719V15.15H13.276V9.7501H11.9166ZM17.0145 10.4251C16.7441 10.4251 16.4848 10.5318 16.2936 10.7216C16.1024 10.9115 15.9949 11.169 15.9949 11.4376C15.9949 11.7061 16.1024 11.9636 16.2936 12.1535C16.4848 12.3434 16.7441 12.45 17.0145 12.45C17.2849 12.45 17.5443 12.3434 17.7355 12.1535C17.9267 11.9636 18.0341 11.7061 18.0341 11.4376C18.0341 11.169 17.9267 10.9115 17.7355 10.7216C17.5443 10.5318 17.2849 10.4251 17.0145 10.4251ZM6.81862 12.45C6.54821 12.45 6.28887 12.5567 6.09766 12.7466C5.90645 12.9364 5.79903 13.194 5.79903 13.4625C5.79903 13.731 5.90645 13.9886 6.09766 14.1784C6.28887 14.3683 6.54821 14.475 6.81862 14.475C7.08903 14.475 7.34837 14.3683 7.53958 14.1784C7.73079 13.9886 7.83821 13.731 7.83821 13.4625C7.83821 13.194 7.73079 12.9364 7.53958 12.7466C7.34837 12.5567 7.08903 12.45 6.81862 12.45Z" />
</svg>
