<svg width="14" height="15" viewBox="0 0 14 15" fill="none" xmlns="http://www.w3.org/2000/svg">
<path d="M11.8867 0.5C12.3789 0.5 12.8125 0.6875 13.1875 1.0625C13.5391 1.41406 13.7148 1.84766 13.7148 2.36328C13.7148 2.85547 13.5391 3.28906 13.1875 3.66406L13.1172 3.73438L13.4688 4.05078L13.082 4.4375L4.32812 13.2266L4.1875 13.332L4.01172 13.3672L0.917969 14L0.109375 14.1406L0.25 13.332L0.882812 10.2383L0.917969 10.0625L1.02344 9.92188L9.8125 1.16797L10.1992 0.78125L10.5508 1.13281L10.5859 1.0625C10.9609 0.6875 11.3945 0.5 11.8867 0.5ZM11.8867 1.625C11.7227 1.625 11.5586 1.69531 11.3945 1.83594L11.3594 1.90625L12.3438 2.89062L12.4141 2.85547C12.7422 2.52734 12.7422 2.1875 12.4141 1.83594C12.25 1.69531 12.0742 1.625 11.8867 1.625ZM10.2344 2.36328L9.39062 3.17188L11.0781 4.85938L11.8867 4.01562L10.2344 2.36328ZM8.61719 3.98047L2.71094 9.85156L3.76562 10.0625L4.11719 10.1328L4.1875 10.4844L4.39844 11.5391L10.2695 5.63281L8.61719 3.98047ZM1.9375 10.8359L1.69141 11.9609L2.28906 12.5586L3.41406 12.3125L3.13281 11.1172L1.9375 10.8359Z" />
</svg>