<svg width="19" height="19" viewBox="0 0 19 19" fill="none" xmlns="http://www.w3.org/2000/svg">
<path d="M5.04688 2.96875L4.86133 3.20996L2.96875 5.7334V16.0312H16.0312V5.7334L14.1387 3.20996L13.9531 2.96875H5.04688ZM5.64062 4.15625H8.90625V5.34375H4.75L5.64062 4.15625ZM10.0938 4.15625H13.3594L14.25 5.34375H10.0938V4.15625ZM4.15625 6.53125H14.8438V14.8438H4.15625V6.53125ZM7.60742 7.71875C7.2804 7.7489 7.03918 8.04114 7.06934 8.36816C7.09949 8.69519 7.39172 8.9364 7.71875 8.90625H11.2812C11.4946 8.90857 11.6941 8.79724 11.8031 8.61169C11.9098 8.42615 11.9098 8.19885 11.8031 8.01331C11.6941 7.82776 11.4946 7.71643 11.2812 7.71875H7.71875C7.7002 7.71875 7.68164 7.71875 7.66309 7.71875C7.64453 7.71875 7.62598 7.71875 7.60742 7.71875Z"/>
</svg>
