<svg width="19" height="19" viewBox="0 0 19 19" fill="none" xmlns="http://www.w3.org/2000/svg">
<path d="M12.3308 4.51683C10.8937 4.55627 9.7794 4.94674 8.69465 5.32359C7.53455 5.7265 6.43933 6.10651 4.92281 6.122C3.90913 6.13804 2.89381 5.96311 1.89615 5.61791L1.1875 5.37265V14.5006L1.54339 14.6269C2.47265 14.9555 3.4228 15.1451 4.36862 15.1905C4.51877 15.1974 4.66582 15.2009 4.81009 15.2009C6.42012 15.2009 7.6527 14.7738 8.84807 14.3608C10.1081 13.9247 11.2966 13.5131 12.9184 13.5895C13.7595 13.6296 14.6064 13.7997 15.4368 14.0936L16.1496 14.3462V5.21505L15.7979 5.08668C14.8761 4.7527 13.924 4.5632 12.9675 4.52205C12.7481 4.5123 12.5361 4.5112 12.3308 4.51683ZM12.36 5.57825C12.5411 5.57264 12.7274 5.57272 12.9205 5.58034C13.1203 5.58901 13.3203 5.60711 13.5196 5.63043C13.6621 6.21487 14.1853 6.6501 14.8137 6.6501C14.9051 6.6501 14.9943 6.64007 15.0809 6.62297V11.4865C14.9943 11.4694 14.9051 11.4594 14.8137 11.4594C14.1533 11.4594 13.6088 11.9393 13.5008 12.5688C13.3233 12.5502 13.1457 12.5376 12.9685 12.5291C11.1437 12.449 9.79803 12.9078 8.4974 13.3588C7.23577 13.7959 6.04048 14.2092 4.41976 14.1322C4.21893 14.1225 4.01775 14.1033 3.81652 14.079C3.6728 13.4962 3.15066 13.0624 2.5234 13.0624C2.43203 13.0624 2.34279 13.0725 2.25622 13.0896V8.22605C2.34279 8.24315 2.43203 8.25319 2.5234 8.25319C3.1884 8.25319 3.73488 7.76622 3.83739 7.13019C4.20338 7.16846 4.56973 7.19058 4.93429 7.18447C6.62554 7.16737 7.8553 6.73912 9.04532 6.32552C10.0931 5.96082 11.0923 5.6175 12.36 5.57825ZM8.66856 7.71883C8.66856 8.48777 8.36878 8.78755 7.59983 8.78755V9.85627C8.01437 9.85627 8.3676 9.77549 8.66856 9.63606V11.9937H9.73728V7.71883H8.66856ZM12.6763 8.25319C12.4637 8.25319 12.2598 8.33764 12.1095 8.48795C11.9592 8.63827 11.8747 8.84215 11.8747 9.05473C11.8747 9.26731 11.9592 9.47119 12.1095 9.62151C12.2598 9.77182 12.4637 9.85627 12.6763 9.85627C12.8888 9.85627 13.0927 9.77182 13.243 9.62151C13.3934 9.47119 13.4778 9.26731 13.4778 9.05473C13.4778 8.84215 13.3934 8.63827 13.243 8.48795C13.0927 8.33764 12.8888 8.25319 12.6763 8.25319ZM4.66085 9.85627C4.44827 9.85627 4.24439 9.94072 4.09407 10.091C3.94375 10.2414 3.85931 10.4452 3.85931 10.6578C3.85931 10.8704 3.94375 11.0743 4.09407 11.2246C4.24439 11.3749 4.44827 11.4594 4.66085 11.4594C4.87343 11.4594 5.07731 11.3749 5.22762 11.2246C5.37794 11.0743 5.46239 10.8704 5.46239 10.6578C5.46239 10.4452 5.37794 10.2414 5.22762 10.091C5.07731 9.94072 4.87343 9.85627 4.66085 9.85627Z" />
</svg>
