<svg width="19" height="17" viewBox="0 0 19 17" fill="none" xmlns="http://www.w3.org/2000/svg">
<g clip-path="url(#clip0)">
<path d="M11.2812 1.78125C8.00867 1.78125 5.34375 4.44617 5.34375 7.71875C5.34375 9.1405 5.84241 10.444 6.67969 11.4668L1.94824 16.1982L2.80176 17.0518L7.5332 12.3203C8.55603 13.1576 9.8595 13.6562 11.2812 13.6562C14.5538 13.6562 17.2188 10.9913 17.2188 7.71875C17.2188 4.44617 14.5538 1.78125 11.2812 1.78125ZM11.2812 2.96875C13.9114 2.96875 16.0312 5.08862 16.0312 7.71875C16.0312 10.3489 13.9114 12.4688 11.2812 12.4688C8.65112 12.4688 6.53125 10.3489 6.53125 7.71875C6.53125 5.08862 8.65112 2.96875 11.2812 2.96875Z" fill="#98A9BC"/>
</g>
<defs>
<clipPath id="clip0">
<rect width="19" height="16.4667" fill="white"/>
</clipPath>
</defs>
</svg>
