<svg width="15" height="15" viewBox="0 0 15 15" fill="none" xmlns="http://www.w3.org/2000/svg">
<path d="M12.3867 0.5C12.8789 0.5 13.3125 0.6875 13.6875 1.0625C14.0391 1.41406 14.2148 1.84766 14.2148 2.36328C14.2148 2.85547 14.0391 3.28906 13.6875 3.66406L13.6172 3.73438L13.9688 4.05078L13.582 4.4375L4.82812 13.2266L4.6875 13.332L4.51172 13.3672L1.41797 14L0.609375 14.1406L0.75 13.332L1.38281 10.2383L1.41797 10.0625L1.52344 9.92188L10.3125 1.16797L10.6992 0.78125L11.0508 1.13281L11.0859 1.0625C11.4609 0.6875 11.8945 0.5 12.3867 0.5ZM12.3867 1.625C12.2227 1.625 12.0586 1.69531 11.8945 1.83594L11.8594 1.90625L12.8438 2.89062L12.9141 2.85547C13.2422 2.52734 13.2422 2.1875 12.9141 1.83594C12.75 1.69531 12.5742 1.625 12.3867 1.625ZM10.7344 2.36328L9.89062 3.17188L11.5781 4.85938L12.3867 4.01562L10.7344 2.36328ZM9.11719 3.98047L3.21094 9.85156L4.26562 10.0625L4.61719 10.1328L4.6875 10.4844L4.89844 11.5391L10.7695 5.63281L9.11719 3.98047ZM2.4375 10.8359L2.19141 11.9609L2.78906 12.5586L3.91406 12.3125L3.63281 11.1172L2.4375 10.8359Z" fill="#778CA2"/>
</svg>
