<svg width="14" height="24" viewBox="0 0 14 24" fill="none" xmlns="http://www.w3.org/2000/svg">
<path fill-rule="evenodd" clip-rule="evenodd" d="M9.56687 6.19358C9.56687 4.77952 8.40838 3.62966 6.98415 3.62966C5.56105 3.62966 4.40144 4.77952 4.40144 6.19358C4.40144 7.60654 5.56105 8.75713 6.98415 8.75713C8.40838 8.75713 9.56687 7.60654 9.56687 6.19358ZM13.2219 6.19358C13.2219 9.60795 10.4249 12.3853 6.98415 12.3853C3.54414 12.3853 0.746449 9.60795 0.746449 6.19358C0.746449 2.77811 3.54414 0 6.98415 0C10.4249 0 13.2219 2.77811 13.2219 6.19358ZM13.146 15.951C12.0181 16.6543 10.7936 17.1531 9.52385 17.4403L13.0109 20.9028C13.7252 21.6106 13.7252 22.7601 13.0109 23.4686C12.2973 24.1771 11.1407 24.1771 10.4278 23.4686L6.99936 20.0661L3.5739 23.4686C3.21673 23.8225 2.74871 23.9996 2.28068 23.9996C1.8134 23.9996 1.34613 23.8225 0.988951 23.4686C0.275346 22.7601 0.275346 21.6114 0.988205 20.9028L4.47562 17.4403C3.20591 17.1531 1.98136 16.6536 0.853471 15.951C-9.4116e-05 15.4167 -0.256499 14.2972 0.281317 13.449C0.817641 12.5996 1.94553 12.344 2.80058 12.8783C5.35419 14.4732 8.64379 14.4736 11.1989 12.8783C12.0539 12.344 13.1815 12.5996 13.7189 13.449C14.2567 14.2964 13.9996 15.4167 13.146 15.951Z" fill="#778CA2"/>
</svg>
