<svg width="17" height="17" viewBox="0 0 17 17" fill="none" xmlns="http://www.w3.org/2000/svg">
<path d="M16.2031 8.43357C16.2031 7.99086 16.1588 7.52601 16.0703 7.03904H8.23436V9.8945H12.916C12.8274 10.3815 12.6393 10.8685 12.3515 11.3554C11.9531 11.9531 11.4551 12.429 10.8574 12.7832C10.1048 13.2259 9.23045 13.4472 8.23436 13.4472C7.30467 13.4472 6.45246 13.2093 5.67772 12.7334C4.90299 12.2575 4.2832 11.6266 3.81835 10.8408C3.35351 10.055 3.12109 9.18617 3.12109 8.23435C3.12109 7.12758 3.41991 6.14255 4.01757 5.27928C4.57095 4.4824 5.30142 3.88475 6.20897 3.48632C7.11652 3.08788 8.03514 2.95507 8.96483 3.08788C9.96092 3.22069 10.8131 3.6302 11.5215 4.31639L13.7461 2.1582C12.2187 0.719395 10.3815 0 8.23436 0C6.75129 0 5.3789 0.370768 4.11718 1.1123C2.85546 1.85384 1.85384 2.85546 1.1123 4.11718C0.37077 5.3789 0 6.75129 0 8.23436C0 9.71743 0.370768 11.0898 1.1123 12.3515C1.85384 13.6133 2.85546 14.6149 4.11718 15.3564C5.3789 16.0979 6.75129 16.4687 8.23436 16.4687C9.80597 16.4687 11.195 16.1256 12.4013 15.4394C13.6077 14.7532 14.5429 13.8014 15.207 12.584C15.8711 11.3665 16.2031 9.98306 16.2031 8.43358L16.2031 8.43357Z" fill="#778CA2"/>
</svg>
