<svg width="12" height="14" viewBox="0 0 12 14" fill="none" xmlns="http://www.w3.org/2000/svg">
<path d="M4.51562 0.5H6.76562C7.09375 0.5 7.36328 0.605469 7.57422 0.816406C7.78516 1.02734 7.89062 1.29688 7.89062 1.625V2.1875H11.2656V3.3125H10.7031V12.3125C10.7031 12.7812 10.5391 13.1797 10.2109 13.5078C9.88281 13.8359 9.48438 14 9.01562 14H2.26562C1.79688 14 1.39844 13.8359 1.07031 13.5078C0.742188 13.1797 0.578125 12.7812 0.578125 12.3125V3.3125H0.015625V2.1875H3.39062V1.625C3.39062 1.29688 3.49609 1.02734 3.70703 0.816406C3.91797 0.605469 4.1875 0.5 4.51562 0.5ZM4.51562 1.625V2.1875H6.76562V1.625H4.51562ZM1.70312 3.3125V12.3125C1.70312 12.4766 1.75 12.6172 1.84375 12.7344C1.96094 12.8281 2.10156 12.875 2.26562 12.875H9.01562C9.17969 12.875 9.30859 12.8281 9.40234 12.7344C9.51953 12.6172 9.57812 12.4766 9.57812 12.3125V3.3125H1.70312ZM2.82812 5H3.95312V11.1875H2.82812V5ZM5.07812 5H6.20312V11.1875H5.07812V5ZM7.32812 5H8.45312V11.1875H7.32812V5Z" />
</svg>
