<?xml version="1.0" encoding="UTF-8"?><!DOCTYPE svg PUBLIC "-//W3C//DTD SVG 1.1//EN" "http://www.w3.org/Graphics/SVG/1.1/DTD/svg11.dtd"><svg xmlns="http://www.w3.org/2000/svg" xmlns:xlink="http://www.w3.org/1999/xlink"><defs><clipPath id="facebook-a" clipPathUnits="userSpaceOnUse"><path d="M0 0h1773v1296H0z"/></clipPath><clipPath id="google-a" clipPathUnits="userSpaceOnUse"><path d="M0 0h1773v1296H0z"/></clipPath><clipPath id="menu-item-provider-a" clipPathUnits="userSpaceOnUse"><path d="M0 0h661v661H0z"/></clipPath><clipPath id="menu-item-purchase-a" clipPathUnits="userSpaceOnUse"><path d="M0 0h503v476H0z"/></clipPath><clipPath id="menu-item-purse-a" clipPathUnits="userSpaceOnUse"><path d="M0 0h661v661H0z"/></clipPath><clipPath id="menu-item-user-a" clipPathUnits="userSpaceOnUse"><path d="M0 0h661v661H0z"/></clipPath><clipPath id="ok-a" clipPathUnits="userSpaceOnUse"><path d="M0 0h1773v1296H0z"/></clipPath><clipPath id="ring-ico-a" clipPathUnits="userSpaceOnUse"><path d="M0 0h423v529H0z"/></clipPath><clipPath id="vk-a" clipPathUnits="userSpaceOnUse"><path d="M0 0h1773v1296H0z"/></clipPath></defs><symbol id="facebook" viewBox="0 0 1773 1296" preserveAspectRatio="xMidYMid"><g class="SlideGroup"><g class="Slide" clip-path="url(#facebook-a)"><g class="Page"><g class="Graphic"><path class="BoundingBox" fill="none" d="M0 0h1773v1296H0z"/><path fill="#FFF" d="M886 1255h741c58 0 105-47 105-105V145c0-58-47-105-105-105H145C87 40 40 87 40 145v1005c0 58 47 105 105 105h741z"/><path fill="none" stroke="#E8ECEF" stroke-width="26" stroke-linejoin="miter" d="M886 1255h741c58 0 105-47 105-105V145c0-58-47-105-105-105H145C87 40 40 87 40 145v1005c0 58 47 105 105 105h741z"/><path fill="#778CA2" d="M831 908h94V679h73l12-91h-85v-63c0-15 2-25 8-32 6-8 19-12 37-12h48v-81c-18-3-42-4-70-4-36 0-64 10-85 31-22 21-32 51-32 89v72h-77v91h77v229z"/></g></g></g></g></symbol><symbol id="google" viewBox="0 0 1773 1296" preserveAspectRatio="xMidYMid"><g class="SlideGroup"><g class="Slide" clip-path="url(#google-a)"><g class="Page"><g class="Graphic"><path class="BoundingBox" fill="none" d="M0 0h1773v1296H0z"/><path fill="#FFF" d="M886 1255h741c58 0 105-47 105-105V145c0-58-47-105-105-105H145C87 40 40 87 40 145v1005c0 58 47 105 105 105h741z"/><path fill="none" stroke="#E8ECEF" stroke-width="26" stroke-linejoin="miter" d="M886 1255h741c58 0 105-47 105-105V145c0-58-47-105-105-105H145C87 40 40 87 40 145v1005c0 58 47 105 105 105h741z"/><path fill="#778CA2" d="M1103 661c0-11-1-24-4-37H892v76h124c-2 13-7 26-15 39-10 15-24 28-39 37-20 12-43 18-70 18-24 0-47-6-67-19-21-13-37-29-50-50-12-21-18-44-18-69 0-29 8-55 24-78 14-21 34-37 58-47 24-11 48-14 73-11 26 4 48 14 67 32l59-57c-40-38-89-57-146-57-39 0-75 10-109 30-33 19-60 46-79 79-20 34-30 70-30 109s10 76 30 109c19 33 46 60 79 79 34 20 70 30 109 30 42 0 79-9 110-28 32-18 57-43 75-75 17-32 26-69 26-110z"/></g></g></g></g></symbol><symbol id="menu-item-provider" viewBox="0 0 661 661" preserveAspectRatio="xMidYMid"><g class="SlideGroup"><g class="Slide" clip-path="url(#menu-item-provider-a)"><g class="Page"><g class="Graphic"><path class="BoundingBox" fill="none" d="M0 0h661v661H0z"/><path d="M33 92v416h62c9 34 40 60 77 60 36 0 67-26 76-60h164c9 34 40 60 76 60 37 0 68-26 77-60h62V302l-6-6-118-119-7-5H389V92H33zm40 40h277v337H248c-9-34-40-60-76-60-37 0-68 26-77 60H73V132zm316 79h91l107 108v150h-22c-9-34-40-60-77-60-36 0-67 26-76 60h-23V211zM172 449c22 0 39 17 39 39 0 23-17 40-39 40-23 0-40-17-40-40 0-22 17-39 40-39zm316 0c23 0 40 17 40 39 0 23-17 40-40 40-22 0-39-17-39-40 0-22 17-39 39-39z"/></g></g></g></g></symbol><symbol id="menu-item-purchase" viewBox="0 0 503 476" preserveAspectRatio="xMidYMid"><g class="SlideGroup"><g class="Slide" clip-path="url(#menu-item-purchase-a)"><g class="Page"><g class="Graphic"><path class="BoundingBox" fill="none" d="M0 0h503v476H0z"/><path d="M215 35h72c10 0 18 3 25 11 8 7 12 15 12 25v18h54V71h36v18h37c10 0 18 4 25 11s11 16 11 25v291c0 9-4 18-11 26-7 7-15 10-25 10H51c-10 0-18-3-26-10-7-8-10-17-10-26V125c0-9 3-18 10-25 8-7 16-11 26-11h37V71h36v18h54V71c0-10 4-18 11-25 7-8 16-11 26-11zm0 36v18h72V71h-72zM51 125v291h37V143h36v273h254V143h36v273h37V125H51z"/></g></g></g></g></symbol><symbol id="menu-item-purse" viewBox="0 0 661 661" preserveAspectRatio="xMidYMid"><g class="SlideGroup"><g class="Slide" clip-path="url(#menu-item-purse-a)"><g class="Page"><g class="Graphic"><path class="BoundingBox" fill="none" d="M0 0h661v661H0z"/><path d="M468 92c-3 0-6 1-9 2l-322 84c-26 7-45 31-45 58v272c0 33 27 60 60 60h356c33 0 60-27 60-60V251c0-33-27-60-60-60H243l226-59v40h39v-40c0-22-19-40-40-40zM152 231h356c11 0 20 9 20 20v257c0 11-9 20-20 20H152c-11 0-20-9-20-20V251c0-11 9-20 20-20zm307 119c-17 0-30 13-30 30 0 16 13 29 30 29 16 0 29-13 29-29 0-17-13-30-29-30z"/></g></g></g></g></symbol><symbol id="menu-item-user" viewBox="0 0 661 661" preserveAspectRatio="xMidYMid"><g class="SlideGroup"><g class="Slide" clip-path="url(#menu-item-user-a)"><g class="Page"><g class="Graphic"><path class="BoundingBox" fill="none" d="M0 0h661v661H0z"/><path d="M330 112c-76 0-139 62-139 139 0 48 25 90 62 115-71 30-121 100-121 182h40c0-88 70-159 158-159s158 71 158 159h40c0-82-50-152-121-182 37-25 62-67 62-115 0-77-63-139-139-139zm0 40c55 0 99 44 99 99s-44 99-99 99-99-44-99-99 44-99 99-99z"/></g></g></g></g></symbol><symbol id="ok" viewBox="0 0 1773 1296" preserveAspectRatio="xMidYMid"><g class="SlideGroup"><g class="Slide" clip-path="url(#ok-a)"><g class="Page"><g class="Graphic"><path class="BoundingBox" fill="none" d="M0 0h1773v1296H0z"/><path fill="#FFF" d="M886 1255h741c58 0 105-47 105-105V145c0-58-47-105-105-105H145C87 40 40 87 40 145v1005c0 58 47 105 105 105h741z"/><path fill="none" stroke="#E8ECEF" stroke-width="26" stroke-linejoin="miter" d="M886 1255h741c58 0 105-47 105-105V145c0-58-47-105-105-105H145C87 40 40 87 40 145v1005c0 58 47 105 105 105h741z"/><path fill="#778CA2" d="M954 494c0-37-31-68-68-68-38 0-69 31-69 68s31 68 69 68c37 0 68-31 68-68zm97 0c0 90-74 164-165 164s-165-74-165-164 74-164 165-164 165 74 165 164zm-2 258c-30 19-63 32-96 39l92 92c19 18 19 49 0 68-19 18-49 18-68 0l-91-90-91 90c-9 9-21 14-34 14-12 0-25-5-34-14-19-19-19-49 0-68l92-92c-33-7-66-21-96-39-22-14-29-44-15-66 14-23 44-29 67-15 67 42 154 42 222 0 23-14 52-8 67 15 14 22 7 52-15 66z"/></g></g></g></g></symbol><symbol id="ring-ico" viewBox="0 0 423 529" preserveAspectRatio="xMidYMid"><g class="SlideGroup"><g class="Slide" clip-path="url(#ring-ico-a)"><g class="Page"><g class="Graphic"><path class="BoundingBox" fill="none" d="M0 0h423v529H0z"/><path d="M181 46c8-8 17-11 26-11 10 0 19 3 25 11 8 7 12 15 12 25v4c31 9 57 27 78 54 20 27 30 58 30 92v159c0 12 7 18 19 18h18v36H258c3 6 4 12 4 18 0 15-5 28-16 39-11 10-23 16-39 16-15 0-28-6-38-16-11-11-16-24-16-39 0-6 1-12 3-18H26v-36h18c12 0 18-6 18-18V216c0-33 11-63 31-88 21-27 47-44 78-53v-4c0-10 4-18 10-25zm18 61c-28 3-52 14-72 35-19 21-28 45-28 74v164c0 6-2 12-4 18h225c-3-6-4-12-4-18V221c0-31-10-57-30-79-21-22-46-34-75-35h-12zm27 345c0-12-7-18-19-18s-18 6-18 18 6 18 18 18 19-6 19-18z"/></g></g></g></g></symbol><symbol id="vk" viewBox="0 0 1773 1296" preserveAspectRatio="xMidYMid"><g class="SlideGroup"><g class="Slide" clip-path="url(#vk-a)"><g class="Page"><g class="Graphic"><path class="BoundingBox" fill="none" d="M0 0h1773v1296H0z"/><path fill="#FFF" d="M886 1255h741c58 0 105-47 105-105V145c0-58-47-105-105-105H145C87 40 40 87 40 145v1005c0 58 47 105 105 105h741z"/><path fill="none" stroke="#E8ECEF" stroke-width="26" stroke-linejoin="miter" d="M886 1255h741c58 0 105-47 105-105V145c0-58-47-105-105-105H145C87 40 40 87 40 145v1005c0 58 47 105 105 105h741z"/><path fill="#778CA2" d="M905 831s12-1 18-8c6-6 6-17 6-17s-1-52 24-59c24-8 55 50 88 72 25 17 44 13 44 13l88-1s46-3 24-38c-1-3-12-27-65-75-56-50-48-42 19-129 40-54 56-86 51-100-4-13-34-10-34-10l-100 1s-7-1-13 2c-5 3-8 11-8 11s-16 41-37 76c-44 73-62 77-69 73-17-11-13-43-13-66 0-71 11-101-21-109-11-2-19-4-47-4-35-1-65 0-82 8-12 5-20 17-15 18 6 1 21 4 29 15 10 13 10 44 10 44s6 84-14 94c-13 7-31-7-71-74-20-34-35-72-35-72s-3-7-9-11c-6-5-15-6-15-6h-94s-14 1-20 7c-4 5 0 16 0 16s74 170 158 256c76 78 164 73 164 73h39z"/></g></g></g></g></symbol></svg>