<?xml version="1.0" encoding="UTF-8"?><!DOCTYPE svg PUBLIC "-//W3C//DTD SVG 1.1//EN" "http://www.w3.org/Graphics/SVG/1.1/DTD/svg11.dtd"><svg xmlns="http://www.w3.org/2000/svg" xmlns:xlink="http://www.w3.org/1999/xlink"><defs><clipPath id="facebook-a" clipPathUnits="userSpaceOnUse"><path d="M0 0h1773v1296H0z"/></clipPath><clipPath id="google-a" clipPathUnits="userSpaceOnUse"><path d="M0 0h1773v1296H0z"/></clipPath><clipPath id="menu-item-provider-a" clipPathUnits="userSpaceOnUse"><path d="M0 0h661v661H0z"/></clipPath><clipPath id="menu-item-purchase-a" clipPathUnits="userSpaceOnUse"><path d="M0 0h503v476H0z"/></clipPath><clipPath id="menu-item-purse-a" clipPathUnits="userSpaceOnUse"><path d="M0 0h661v661H0z"/></clipPath><clipPath id="menu-item-user-a" clipPathUnits="userSpaceOnUse"><path d="M0 0h661v661H0z"/></clipPath><clipPath id="ok-a" clipPathUnits="userSpaceOnUse"><path d="M0 0h1773v1296H0z"/></clipPath><clipPath id="ring-ico-a" clipPathUnits="userSpaceOnUse"><path d="M0 0h423v529H0z"/></clipPath><clipPath id="settings-profile-tab-ico-a" clipPathUnits="userSpaceOnUse"><path d="M0 0h503v503H0z"/></clipPath><clipPath id="user-profile-tab-ico-a" clipPathUnits="userSpaceOnUse"><path d="M0 0h370v370H0z"/></clipPath><clipPath id="vk-a" clipPathUnits="userSpaceOnUse"><path d="M0 0h1773v1296H0z"/></clipPath></defs><symbol id="alert-money-ico"><path d="M16.575 5.705c-1.828.05-3.245.544-4.625 1.02-1.476.508-2.87.988-4.798 1.008-1.29.02-2.581-.2-3.85-.637l-.902-.31v11.53l.453.16a12.67 12.67 0 003.594.712c.19.009.378.013.561.013 2.048 0 3.616-.54 5.137-1.061 1.603-.55 3.115-1.07 5.178-.974 1.07.05 2.147.265 3.203.636l.907.32V6.587l-.448-.162a12.16 12.16 0 00-4.41-.72zm.037 1.341c.23-.007.468-.007.713.003.254.01.509.034.762.063a1.694 1.694 0 001.986 1.254v6.143a1.692 1.692 0 00-2.01 1.367c-.225-.023-.451-.039-.677-.05-2.321-.101-4.033.479-5.687 1.048-1.605.553-3.125 1.074-5.187.977a10.762 10.762 0 01-.767-.067 1.694 1.694 0 00-1.985-1.25v-6.143A1.691 1.691 0 005.77 9.007c.466.048.932.076 1.395.068 2.152-.021 3.716-.562 5.23-1.085 1.333-.46 2.604-.894 4.216-.944zM11.917 9.75c0 .971-.382 1.35-1.36 1.35v1.35c.527 0 .977-.102 1.36-.278v2.978h1.359v-5.4h-1.36zm5.098.675c-.27 0-.53.107-.721.297a1.01 1.01 0 000 1.431 1.023 1.023 0 001.441 0 1.009 1.009 0 000-1.431 1.024 1.024 0 00-.72-.297zM6.819 12.45c-.27 0-.53.107-.721.297a1.009 1.009 0 000 1.431 1.023 1.023 0 001.442 0 1.009 1.009 0 000-1.431 1.023 1.023 0 00-.721-.297z"/></symbol><symbol id="blue-plus-ico"><path d="M2.832 3.082C4.262 1.652 5.984.938 8 .938s3.738.714 5.168 2.144c1.43 1.43 2.145 3.152 2.145 5.168s-.715 3.738-2.145 5.168c-1.43 1.43-3.152 2.145-5.168 2.145s-3.738-.715-5.168-2.145C1.402 11.988.688 10.266.688 8.25s.714-3.738 2.144-5.168zm9.527.809C11.164 2.67 9.711 2.062 8 2.062c-1.71 0-3.176.61-4.395 1.829C2.41 5.086 1.813 6.539 1.813 8.25c0 1.71.597 3.176 1.792 4.395C4.825 13.84 6.29 14.438 8 14.438c1.71 0 3.164-.598 4.36-1.793 1.218-1.22 1.828-2.684 1.828-4.395 0-1.71-.61-3.164-1.829-4.36zm-4.921.984h1.125v2.813h2.812v1.125H8.562v2.812H7.438V8.812H4.624V7.688h2.813V4.874z" fill="#4D7CFE"/></symbol><symbol id="close-ico"><path d="M9.47.598c2.47 0 4.577.87 6.32 2.613 1.741 1.742 2.612 3.848 2.612 6.32 0 2.47-.87 4.577-2.613 6.32-1.742 1.741-3.848 2.612-6.32 2.612-2.47 0-4.577-.87-6.32-2.613C1.409 14.108.538 12.002.538 9.53c0-2.47.87-4.577 2.613-6.32C4.892 1.47 6.998.599 9.47.599zm7.535 8.932c.02-2.086-.71-3.868-2.188-5.347-1.479-1.479-3.271-2.218-5.378-2.218-2.066 0-3.838.74-5.317 2.218C2.643 5.662 1.894 7.444 1.874 9.53c.02 2.087.77 3.87 2.248 5.348 1.479 1.479 3.251 2.218 5.317 2.218 2.107 0 3.9-.74 5.378-2.218 1.479-1.479 2.208-3.261 2.188-5.348zM11.9 6.127l.973.973-2.431 2.43 2.43 2.431-.972.972-2.43-2.43-2.431 2.43-.972-.972 2.43-2.43L6.067 7.1l.972-.973 2.43 2.431 2.431-2.43z" fill="#778CA2"/></symbol><symbol id="drop-down-ico"><path d="M1.39.297L8 6.94 14.61.297l.843.844-7.031 7.03L8 8.524l-.422-.351L.547 1.14 1.39.297z" fill="#778CA2"/></symbol><symbol id="dropdown-away-ico"><path d="M5.047 2.969l-.186.241L2.97 5.733v10.298H16.03V5.733L14.14 3.21l-.186-.241H5.047zm.594 1.187h3.265v1.188H4.75l.89-1.188zm4.453 0h3.265l.891 1.188h-4.156V4.156zM4.156 6.531h10.688v8.313H4.156V6.53zM7.607 7.72a.598.598 0 00.112 1.187h3.562a.597.597 0 00.522-.294.6.6 0 000-.599.597.597 0 00-.522-.294H7.607z"/></symbol><symbol id="dropdown-copy-ico"><path d="M2.375 2.375V14.25h4.156v-1.188H3.563v-9.5h7.124v.594h1.188V2.375h-9.5zm4.75 2.375v11.875h9.5V4.75h-9.5zm1.188 1.188h7.124v9.5H8.314v-9.5z"/></symbol><symbol id="dropdown-delete-ico"><path d="M5.016.5h2.25c.328 0 .597.105.808.316.211.211.317.48.317.809v.563h3.375v1.124h-.563v9c0 .47-.164.868-.492 1.196A1.627 1.627 0 019.516 14h-6.75c-.47 0-.868-.164-1.196-.492a1.627 1.627 0 01-.492-1.195v-9H.516V2.187H3.89v-.562c0-.328.105-.598.316-.809.211-.21.48-.316.809-.316zm0 1.125v.563h2.25v-.563h-2.25zM2.203 3.313v9c0 .164.047.304.14.421.118.094.259.141.423.141h6.75a.523.523 0 00.386-.14.575.575 0 00.176-.422v-9H2.203zM3.328 5h1.125v6.188H3.328V5zm2.25 0h1.125v6.188H5.578V5zm2.25 0h1.125v6.188H7.828V5z"/></symbol><symbol id="dropdown-edit-ico"><path d="M11.887.5c.492 0 .925.188 1.3.563.352.351.528.785.528 1.3 0 .492-.176.926-.527 1.301l-.07.07.35.317-.386.386-8.754 8.79-.14.105-.176.035L.918 14l-.809.14.141-.808.633-3.094.035-.175.105-.141 8.79-8.754.386-.387.352.352.035-.07c.375-.375.809-.563 1.3-.563zm0 1.125c-.164 0-.328.07-.492.21l-.036.071.985.985.07-.036c.328-.328.328-.667 0-1.02a.797.797 0 00-.527-.21zm-1.653.738l-.843.809 1.687 1.687.809-.843-1.653-1.653zM8.617 3.98L2.711 9.852l1.055.21.351.07.07.352.211 1.055 5.872-5.906L8.617 3.98zm-6.68 6.856l-.246 1.125.598.598 1.125-.246-.281-1.196-1.196-.281z"/></symbol><symbol id="dropdown-payback-ico"><path d="M12.33 4.517c-1.436.04-2.55.43-3.635.807-1.16.402-2.256.783-3.772.798a8.809 8.809 0 01-3.027-.504l-.708-.245V14.5l.355.126a9.898 9.898 0 003.267.574c1.61 0 2.843-.427 4.038-.84 1.26-.436 2.449-.848 4.07-.772.841.04 1.688.21 2.519.505l.713.252v-9.13l-.352-.13a9.5 9.5 0 00-3.467-.57zm.03 1.061c.181-.005.367-.005.56.002.2.009.4.027.6.05a1.333 1.333 0 001.56.993v4.863a1.333 1.333 0 00-1.58 1.082 9.452 9.452 0 00-.531-.039c-1.825-.08-3.171.379-4.472.83-1.261.437-2.457.85-4.077.773-.201-.01-.402-.029-.603-.053a1.333 1.333 0 00-1.56-.99V8.227A1.332 1.332 0 003.837 7.13c.365.038.732.06 1.096.054 1.692-.017 2.921-.445 4.111-.858 1.048-.365 2.047-.708 3.315-.748zm-3.691 2.14c0 .77-.3 1.07-1.07 1.07v1.068c.415 0 .769-.08 1.07-.22v2.358h1.068V7.719H8.67zm4.007.535a.802.802 0 100 1.603.802.802 0 000-1.603zM4.661 9.856a.802.802 0 100 1.604.802.802 0 000-1.604z"/></symbol><symbol id="dropdown-send-ico"><path d="M1.781 4.75v10.688H17.22V4.75H1.78zm2.56 1.188h10.317L9.5 9.37 4.342 5.938zm-1.372.519l6.197 4.138.334.204.334-.204 6.197-4.138v7.793H2.97V6.457z"/></symbol><symbol id="facebook" viewBox="0 0 1773 1296" preserveAspectRatio="xMidYMid"><g class="SlideGroup"><g class="Slide" clip-path="url(#facebook-a)"><g class="Page"><g class="Graphic"><path class="BoundingBox" fill="none" d="M0 0h1773v1296H0z"/><path fill="#FFF" d="M886 1255h741c58 0 105-47 105-105V145c0-58-47-105-105-105H145C87 40 40 87 40 145v1005c0 58 47 105 105 105h741z"/><path fill="none" stroke="#E8ECEF" stroke-width="26" stroke-linejoin="miter" d="M886 1255h741c58 0 105-47 105-105V145c0-58-47-105-105-105H145C87 40 40 87 40 145v1005c0 58 47 105 105 105h741z"/><path fill="#778CA2" d="M831 908h94V679h73l12-91h-85v-63c0-15 2-25 8-32 6-8 19-12 37-12h48v-81c-18-3-42-4-70-4-36 0-64 10-85 31-22 21-32 51-32 89v72h-77v91h77v229z"/></g></g></g></g></symbol><symbol id="google" viewBox="0 0 1773 1296" preserveAspectRatio="xMidYMid"><g class="SlideGroup"><g class="Slide" clip-path="url(#google-a)"><g class="Page"><g class="Graphic"><path class="BoundingBox" fill="none" d="M0 0h1773v1296H0z"/><path fill="#FFF" d="M886 1255h741c58 0 105-47 105-105V145c0-58-47-105-105-105H145C87 40 40 87 40 145v1005c0 58 47 105 105 105h741z"/><path fill="none" stroke="#E8ECEF" stroke-width="26" stroke-linejoin="miter" d="M886 1255h741c58 0 105-47 105-105V145c0-58-47-105-105-105H145C87 40 40 87 40 145v1005c0 58 47 105 105 105h741z"/><path fill="#778CA2" d="M1103 661c0-11-1-24-4-37H892v76h124c-2 13-7 26-15 39-10 15-24 28-39 37-20 12-43 18-70 18-24 0-47-6-67-19-21-13-37-29-50-50-12-21-18-44-18-69 0-29 8-55 24-78 14-21 34-37 58-47 24-11 48-14 73-11 26 4 48 14 67 32l59-57c-40-38-89-57-146-57-39 0-75 10-109 30-33 19-60 46-79 79-20 34-30 70-30 109s10 76 30 109c19 33 46 60 79 79 34 20 70 30 109 30 42 0 79-9 110-28 32-18 57-43 75-75 17-32 26-69 26-110z"/></g></g></g></g></symbol><symbol id="menu-item-provider" viewBox="0 0 661 661" preserveAspectRatio="xMidYMid"><g class="SlideGroup"><g class="Slide" clip-path="url(#menu-item-provider-a)"><g class="Page"><g class="Graphic"><path class="BoundingBox" fill="none" d="M0 0h661v661H0z"/><path d="M33 92v416h62c9 34 40 60 77 60 36 0 67-26 76-60h164c9 34 40 60 76 60 37 0 68-26 77-60h62V302l-6-6-118-119-7-5H389V92H33zm40 40h277v337H248c-9-34-40-60-76-60-37 0-68 26-77 60H73V132zm316 79h91l107 108v150h-22c-9-34-40-60-77-60-36 0-67 26-76 60h-23V211zM172 449c22 0 39 17 39 39 0 23-17 40-39 40-23 0-40-17-40-40 0-22 17-39 40-39zm316 0c23 0 40 17 40 39 0 23-17 40-40 40-22 0-39-17-39-40 0-22 17-39 39-39z"/></g></g></g></g></symbol><symbol id="menu-item-purchase" viewBox="0 0 503 476" preserveAspectRatio="xMidYMid"><g class="SlideGroup"><g class="Slide" clip-path="url(#menu-item-purchase-a)"><g class="Page"><g class="Graphic"><path class="BoundingBox" fill="none" d="M0 0h503v476H0z"/><path d="M215 35h72c10 0 18 3 25 11 8 7 12 15 12 25v18h54V71h36v18h37c10 0 18 4 25 11s11 16 11 25v291c0 9-4 18-11 26-7 7-15 10-25 10H51c-10 0-18-3-26-10-7-8-10-17-10-26V125c0-9 3-18 10-25 8-7 16-11 26-11h37V71h36v18h54V71c0-10 4-18 11-25 7-8 16-11 26-11zm0 36v18h72V71h-72zM51 125v291h37V143h36v273h254V143h36v273h37V125H51z"/></g></g></g></g></symbol><symbol id="menu-item-purse" viewBox="0 0 661 661" preserveAspectRatio="xMidYMid"><g class="SlideGroup"><g class="Slide" clip-path="url(#menu-item-purse-a)"><g class="Page"><g class="Graphic"><path class="BoundingBox" fill="none" d="M0 0h661v661H0z"/><path d="M468 92c-3 0-6 1-9 2l-322 84c-26 7-45 31-45 58v272c0 33 27 60 60 60h356c33 0 60-27 60-60V251c0-33-27-60-60-60H243l226-59v40h39v-40c0-22-19-40-40-40zM152 231h356c11 0 20 9 20 20v257c0 11-9 20-20 20H152c-11 0-20-9-20-20V251c0-11 9-20 20-20zm307 119c-17 0-30 13-30 30 0 16 13 29 30 29 16 0 29-13 29-29 0-17-13-30-29-30z"/></g></g></g></g></symbol><symbol id="menu-item-user" viewBox="0 0 661 661" preserveAspectRatio="xMidYMid"><g class="SlideGroup"><g class="Slide" clip-path="url(#menu-item-user-a)"><g class="Page"><g class="Graphic"><path class="BoundingBox" fill="none" d="M0 0h661v661H0z"/><path d="M330 112c-76 0-139 62-139 139 0 48 25 90 62 115-71 30-121 100-121 182h40c0-88 70-159 158-159s158 71 158 159h40c0-82-50-152-121-182 37-25 62-67 62-115 0-77-63-139-139-139zm0 40c55 0 99 44 99 99s-44 99-99 99-99-44-99-99 44-99 99-99z"/></g></g></g></g></symbol><symbol id="more-btn-ico"><path d="M1.137.805c.286-.287.616-.43.988-.43s.688.143.945.43c.287.257.43.573.43.945s-.143.702-.43.988a1.286 1.286 0 01-.945.387c-.372 0-.702-.129-.988-.387A1.434 1.434 0 01.75 1.75c0-.372.129-.688.387-.945zm6.875 0c.286-.287.616-.43.988-.43s.688.143.945.43c.287.257.43.573.43.945s-.143.702-.43.988A1.286 1.286 0 019 3.125c-.372 0-.702-.129-.988-.387a1.434 1.434 0 01-.387-.988c0-.372.129-.688.387-.945zm6.875 0c.286-.287.616-.43.988-.43s.688.143.945.43c.287.257.43.573.43.945s-.143.702-.43.988a1.286 1.286 0 01-.945.387c-.372 0-.702-.129-.988-.387a1.434 1.434 0 01-.387-.988c0-.372.129-.688.387-.945z" fill="#778CA2"/></symbol><symbol id="ok" viewBox="0 0 1773 1296" preserveAspectRatio="xMidYMid"><g class="SlideGroup"><g class="Slide" clip-path="url(#ok-a)"><g class="Page"><g class="Graphic"><path class="BoundingBox" fill="none" d="M0 0h1773v1296H0z"/><path fill="#FFF" d="M886 1255h741c58 0 105-47 105-105V145c0-58-47-105-105-105H145C87 40 40 87 40 145v1005c0 58 47 105 105 105h741z"/><path fill="none" stroke="#E8ECEF" stroke-width="26" stroke-linejoin="miter" d="M886 1255h741c58 0 105-47 105-105V145c0-58-47-105-105-105H145C87 40 40 87 40 145v1005c0 58 47 105 105 105h741z"/><path fill="#778CA2" d="M954 494c0-37-31-68-68-68-38 0-69 31-69 68s31 68 69 68c37 0 68-31 68-68zm97 0c0 90-74 164-165 164s-165-74-165-164 74-164 165-164 165 74 165 164zm-2 258c-30 19-63 32-96 39l92 92c19 18 19 49 0 68-19 18-49 18-68 0l-91-90-91 90c-9 9-21 14-34 14-12 0-25-5-34-14-19-19-19-49 0-68l92-92c-33-7-66-21-96-39-22-14-29-44-15-66 14-23 44-29 67-15 67 42 154 42 222 0 23-14 52-8 67 15 14 22 7 52-15 66z"/></g></g></g></g></symbol><symbol id="pencil-edit-ico"><path d="M12.387.5c.492 0 .925.188 1.3.563.352.351.528.785.528 1.3 0 .492-.176.926-.527 1.301l-.07.07.35.317-.386.386-8.754 8.79-.14.105-.176.035L1.418 14l-.809.14.141-.808.633-3.094.035-.175.105-.141 8.79-8.754.386-.387.352.352.035-.07c.375-.375.809-.563 1.3-.563zm0 1.125c-.164 0-.328.07-.492.21l-.036.071.985.985.07-.036c.328-.328.328-.667 0-1.02a.797.797 0 00-.527-.21zm-1.653.738l-.843.809 1.687 1.687.809-.843-1.653-1.653zM9.117 3.98L3.211 9.852l1.055.21.351.07.07.352.211 1.055 5.872-5.906L9.117 3.98zm-6.68 6.856l-.246 1.125.598.598 1.125-.246-.281-1.196-1.196-.281z" fill="#778CA2"/></symbol><symbol id="ring-ico" viewBox="0 0 423 529" preserveAspectRatio="xMidYMid"><g class="SlideGroup"><g class="Slide" clip-path="url(#ring-ico-a)"><g class="Page"><g class="Graphic"><path class="BoundingBox" fill="none" d="M0 0h423v529H0z"/><path d="M181 46c8-8 17-11 26-11 10 0 19 3 25 11 8 7 12 15 12 25v4c31 9 57 27 78 54 20 27 30 58 30 92v159c0 12 7 18 19 18h18v36H258c3 6 4 12 4 18 0 15-5 28-16 39-11 10-23 16-39 16-15 0-28-6-38-16-11-11-16-24-16-39 0-6 1-12 3-18H26v-36h18c12 0 18-6 18-18V216c0-33 11-63 31-88 21-27 47-44 78-53v-4c0-10 4-18 10-25zm18 61c-28 3-52 14-72 35-19 21-28 45-28 74v164c0 6-2 12-4 18h225c-3-6-4-12-4-18V221c0-31-10-57-30-79-21-22-46-34-75-35h-12zm27 345c0-12-7-18-19-18s-18 6-18 18 6 18 18 18 19-6 19-18z"/></g></g></g></g></symbol><symbol id="settings-profile-tab-ico" viewBox="0 0 503 503" preserveAspectRatio="xMidYMid"><g class="SlideGroup"><g class="Slide" clip-path="url(#settings-profile-tab-ico-a)"><g class="Page"><g class="Graphic"><path class="BoundingBox" fill="none" d="M0 0h503v503H0z"/><path d="M209 58l-2 12-9 44c-14 6-27 13-38 23l-44-15-11-4-6 11-30 51-6 11 9 8 33 29c-1 7-3 15-3 23s2 16 3 23l-33 29-9 8 6 11 30 51 6 11 11-4 44-15c11 10 24 17 38 23l9 44 2 12h84l2-12 9-44c14-6 27-13 38-23l44 15 11 4 6-11 30-51 6-11-9-8-33-29c1-7 3-15 3-23s-2-16-3-23l33-29 9-8-6-11-30-51-6-11-11 4-44 15c-11-10-24-17-38-23l-9-44-2-12h-84zm24 30h36l7 38 2 9 8 3c17 5 33 14 45 26l7 6 8-3 38-13 17 30-29 27-7 5 2 9c2 8 3 17 3 26s-1 18-3 26l-2 9 7 5 29 27-17 30-38-13-8-3-7 6c-12 12-28 21-45 26l-8 3-2 9-7 38h-36l-7-38-2-9-8-3c-17-5-33-14-45-26l-7-6-8 3-38 13-17-30 29-27 7-5-2-9c-2-8-3-17-3-26s1-18 3-26l2-9-7-5-29-27 17-30 38 13 8 3 7-6c12-12 28-21 45-26l8-3 2-9 7-38zm18 89c-41 0-74 33-74 74s33 74 74 74 74-33 74-74-33-74-74-74zm0 29c25 0 45 20 45 45s-20 45-45 45-45-20-45-45 20-45 45-45z"/></g></g></g></g></symbol><symbol id="social-facebook-ico"><path d="M2.91 19.355h3.554v-8.657h2.76l.453-3.44H6.464V4.877c0-.555.101-.958.303-1.21.252-.303.718-.454 1.398-.454H9.98V.151C9.3.051 8.417 0 7.334 0 5.998 0 4.927.397 4.12 1.19c-.806.795-1.21 1.91-1.21 3.346v2.722H0v3.44h2.91v8.657z" fill="#778CA2"/></symbol><symbol id="social-google-ico"><path d="M16.203 8.434c0-.443-.044-.908-.133-1.395H8.234v2.856h4.682a4.43 4.43 0 01-.565 1.46 4.596 4.596 0 01-1.494 1.428c-.752.443-1.627.664-2.623.664a4.79 4.79 0 01-2.556-.714 5.436 5.436 0 01-1.86-1.892 5.024 5.024 0 01-.697-2.607c0-1.106.299-2.091.897-2.955a5.117 5.117 0 012.191-1.793c.908-.398 1.826-.53 2.756-.398a4.419 4.419 0 012.556 1.228l2.225-2.158C12.22.72 10.382 0 8.234 0 6.751 0 5.38.37 4.117 1.112a8.32 8.32 0 00-3.005 3.005A7.982 7.982 0 000 8.234c0 1.483.37 2.856 1.112 4.117a8.32 8.32 0 003.005 3.005 7.982 7.982 0 004.117 1.113c1.572 0 2.961-.343 4.167-1.03a7.18 7.18 0 002.806-2.855c.664-1.217.996-2.6.996-4.15z" fill="#778CA2"/></symbol><symbol id="social-ok-ico"><path fill-rule="evenodd" clip-rule="evenodd" d="M9.567 6.194A2.576 2.576 0 006.984 3.63c-1.423 0-2.583 1.15-2.583 2.564 0 1.413 1.16 2.563 2.583 2.563a2.576 2.576 0 002.583-2.563zm3.655 0c0 3.414-2.797 6.191-6.238 6.191-3.44 0-6.238-2.777-6.238-6.191C.746 2.778 3.544 0 6.984 0c3.44 0 6.238 2.778 6.238 6.194zm-.076 9.757a11.734 11.734 0 01-3.622 1.49l3.487 3.462a1.804 1.804 0 010 2.566 1.835 1.835 0 01-2.583 0l-3.429-3.403-3.425 3.403a1.832 1.832 0 01-1.293.53 1.83 1.83 0 01-1.292-.53 1.806 1.806 0 010-2.566l3.487-3.463a11.751 11.751 0 01-3.623-1.489 1.807 1.807 0 01-.572-2.502 1.833 1.833 0 012.52-.57 7.968 7.968 0 008.398 0 1.834 1.834 0 012.52.57c.538.847.28 1.968-.573 2.502z" fill="#778CA2"/></symbol><symbol id="social-vk-ico"><path fill-rule="evenodd" clip-rule="evenodd" d="M13.726 13.941s.451-.049.682-.292c.212-.224.205-.645.205-.645s-.029-1.967.902-2.258c.917-.285 2.095 1.903 3.344 2.744.944.636 1.66.497 1.66.497l3.34-.046s1.746-.105.918-1.453c-.068-.11-.483-.997-2.482-2.82-2.095-1.907-1.813-1.598.708-4.898 1.536-2.009 2.15-3.235 1.958-3.76-.182-.502-1.312-.368-1.312-.368l-3.76.022s-.278-.037-.485.084c-.201.12-.332.396-.332.396s-.594 1.555-1.388 2.877c-1.674 2.79-2.343 2.937-2.617 2.765-.637-.405-.478-1.623-.478-2.489 0-2.704.418-3.83-.813-4.122-.408-.098-.709-.161-1.755-.172-1.34-.013-2.476.005-3.119.313-.428.206-.758.664-.556.69.248.033.81.15 1.109.548.385.515.372 1.67.372 1.67s.221 3.182-.518 3.577c-.506.271-1.2-.282-2.693-2.813-.764-1.296-1.342-2.73-1.342-2.73s-.11-.267-.31-.411a1.556 1.556 0 00-.577-.228L.815.642S.278.656.081.885c-.174.203-.013.624-.013.624s2.796 6.423 5.963 9.66c2.904 2.967 6.2 2.772 6.2 2.772h1.495z" fill="#778CA2"/></symbol><symbol id="trash-ico"><path d="M4.516.5h2.25c.328 0 .597.105.808.316.211.211.317.48.317.809v.563h3.375v1.124h-.563v9c0 .47-.164.868-.492 1.196A1.627 1.627 0 019.016 14h-6.75c-.47 0-.868-.164-1.196-.492a1.627 1.627 0 01-.492-1.195v-9H.016V2.187H3.39v-.562c0-.328.105-.598.316-.809.211-.21.48-.316.809-.316zm0 1.125v.563h2.25v-.563h-2.25zM1.703 3.313v9c0 .164.047.304.14.421.118.094.259.141.423.141h6.75a.523.523 0 00.386-.14.575.575 0 00.176-.422v-9H1.703zM2.828 5h1.125v6.188H2.828V5zm2.25 0h1.125v6.188H5.078V5zm2.25 0h1.125v6.188H7.328V5z"/></symbol><symbol id="user-profile-tab-ico" viewBox="0 0 370 370" preserveAspectRatio="xMidYMid"><g class="SlideGroup"><g class="Slide" clip-path="url(#user-profile-tab-ico-a)"><g class="Page"><g class="Graphic"><path class="BoundingBox" fill="none" d="M0 0h370v370H0z"/><path d="M110 45c20-20 44-30 73-30 28 0 53 10 73 30 20 21 31 45 31 74 0 17-5 33-13 49-8 15-19 28-34 37 27 12 49 30 66 54 17 25 25 52 25 82h-30c0-33-11-61-35-83-23-24-50-36-83-36s-61 12-84 36c-23 22-35 50-35 83H35c0-30 8-57 25-82 16-24 38-42 65-54-14-9-25-22-34-37-8-16-12-32-12-49 0-29 10-53 31-74zm125 22c-14-15-32-23-52-23-21 0-38 8-53 23-14 14-21 31-21 52 0 20 7 38 21 52 15 15 32 22 53 22 20 0 38-7 52-22 15-14 22-32 22-52 0-21-7-38-22-52z"/></g></g></g></g></symbol><symbol id="vk" viewBox="0 0 1773 1296" preserveAspectRatio="xMidYMid"><g class="SlideGroup"><g class="Slide" clip-path="url(#vk-a)"><g class="Page"><g class="Graphic"><path class="BoundingBox" fill="none" d="M0 0h1773v1296H0z"/><path fill="#FFF" d="M886 1255h741c58 0 105-47 105-105V145c0-58-47-105-105-105H145C87 40 40 87 40 145v1005c0 58 47 105 105 105h741z"/><path fill="none" stroke="#E8ECEF" stroke-width="26" stroke-linejoin="miter" d="M886 1255h741c58 0 105-47 105-105V145c0-58-47-105-105-105H145C87 40 40 87 40 145v1005c0 58 47 105 105 105h741z"/><path fill="#778CA2" d="M905 831s12-1 18-8c6-6 6-17 6-17s-1-52 24-59c24-8 55 50 88 72 25 17 44 13 44 13l88-1s46-3 24-38c-1-3-12-27-65-75-56-50-48-42 19-129 40-54 56-86 51-100-4-13-34-10-34-10l-100 1s-7-1-13 2c-5 3-8 11-8 11s-16 41-37 76c-44 73-62 77-69 73-17-11-13-43-13-66 0-71 11-101-21-109-11-2-19-4-47-4-35-1-65 0-82 8-12 5-20 17-15 18 6 1 21 4 29 15 10 13 10 44 10 44s6 84-14 94c-13 7-31-7-71-74-20-34-35-72-35-72s-3-7-9-11c-6-5-15-6-15-6h-94s-14 1-20 7c-4 5 0 16 0 16s74 170 158 256c76 78 164 73 164 73h39z"/></g></g></g></g></symbol></svg>